<?xml version="1.0" encoding="UTF-8" standalone="no"?><!-- Generator: Gravit.io --><svg xmlns="http://www.w3.org/2000/svg" xmlns:xlink="http://www.w3.org/1999/xlink" style="isolation:isolate" viewBox="0 0 3057 1087" width="3057pt" height="1087pt"><defs><clipPath id="_clipPath_rVPL9D1n93LtQrzBUZ4x6Jg8smDMSXWh"><rect width="3057" height="1087"/></clipPath></defs><g clip-path="url(#_clipPath_rVPL9D1n93LtQrzBUZ4x6Jg8smDMSXWh)"><rect x="15.35" y="0" width="3011.332" height="1087" transform="matrix(1,0,0,1,0,0)" fill="rgb(37,37,37)"/><path d=" M 0 428 L 0 856 L 77.8 856 L 155.5 856 L 150.5 853.1 C 144.7 849.8 137 841.9 134.2 836.4 C 129.4 827 129 823.3 129 792.5 C 129 761.7 129.4 758 134.2 748.7 C 136.8 743.5 143.5 736.3 148.9 732.8 L 153.4 730 L 135.9 730 C 112.6 730 105.1 727.8 94.8 718.2 C 88.9 712.7 85.4 707.1 82.9 698.9 C 81.2 693.5 81 689.4 81 663.5 C 81 637.6 81.2 633.5 82.9 628.1 C 87.9 611.9 100 601.1 117 597.6 C 122.2 596.6 122.9 596.2 121.6 595.1 C 118.5 592.5 115 583.8 115 578.5 C 115 571.7 119 563.7 124.1 560.1 C 126.2 558.7 127.9 557.2 128 556.8 C 128 556.5 114.1 481 97 389.2 C 73.4 261.8 66.3 221.5 66.9 219.2 C 68.3 214.4 70 212 73.3 210 C 76.4 208 81 208 350 208 C 613.8 208 623.7 208.1 627 209.8 C 628.9 210.9 631.2 213.2 632.1 215.1 C 633.1 217.1 646.8 288.6 664.9 386.5 C 682 478.9 696 554.7 696 555 C 696 555.3 735.1 555.5 782.8 555.5 L 869.7 555.5 L 874.6 558.5 C 882.9 563.7 887.4 573.7 885.6 583.4 C 885.2 585.3 883.4 589.2 881.5 592 L 878.1 597 L 896.3 597 C 912 597 915 597.2 917.9 598.8 C 921.9 600.9 925 606.1 925 610.5 C 925 616.9 918.4 624 912.5 624 C 910.5 624 910.5 624.6 910.6 653.8 C 910.6 670.1 911 686.1 911.4 689.2 C 912.5 696.7 911.6 700.2 908.8 699.8 C 906.1 699.4 905.9 697.1 905.6 656 C 905.5 639.8 905.3 625.9 905.2 625.2 C 905 624.2 888.1 624 820.5 624.2 L 736 624.5 L 732.8 627.8 L 729.5 631 L 729.2 664.5 L 728.9 698 L 731.4 700.5 L 733.9 703 L 825.5 703 C 925 703 921.2 702.8 923.8 708.5 C 925.3 711.7 925.4 721.4 924 724.1 C 923 725.9 923.5 726 942.7 726 C 965 726 967.7 726.7 971.2 733.1 C 976.1 742.3 969.5 753 958.7 753 C 955.9 753 955.1 753.3 955.7 754.2 C 956.1 754.9 956.6 769.4 956.7 786.5 C 956.8 803.5 957.1 820.8 957.2 824.8 L 957.5 832 L 961.3 832 C 966.4 832 970.4 834.2 972 837.9 C 973.2 841 973 851.1 971.6 854.3 C 970.8 855.9 972.8 856 1005.3 856 L 1039.9 856 L 1038.4 853.2 C 1036.2 849 1036.3 709.3 1038.5 705 C 1040.5 701.1 1044.8 699 1051 699 L 1056 699 L 1056 683.5 L 1056 668 L 1073.5 668 L 1091 668 L 1091 683.5 L 1091 699 L 1093.5 699 L 1096 699 L 1096 683.5 L 1096 668 L 1114.5 668 L 1133 668 L 1133 683.5 C 1133 698.3 1133.1 699 1135 699 C 1136.9 699 1137 698.3 1137 683.5 L 1137 668 L 1155.5 668 L 1174 668 L 1174 683.5 L 1174 699 L 1177 699 L 1180 699 L 1180 683.6 C 1180 668 1180.4 666.5 1183.8 667.7 C 1184.7 668.1 1185 672.1 1185 683.6 L 1185 699 L 1188.5 699 L 1192 699 L 1192 683.6 C 1192 668 1192.4 666.5 1195.8 667.7 C 1196.7 668.1 1197 672.1 1197 683.6 L 1197 699 L 1200 699 L 1203 699 L 1203 683.6 C 1203 668 1203.4 666.5 1206.8 667.7 C 1207.7 668.1 1208 672.1 1208 683.6 L 1208 699 L 1236 699 L 1264 699 L 1264.9 696.7 C 1266.4 692.9 1269.5 691 1275.6 690 C 1278.9 689.4 1281.6 689 1281.8 689 C 1281.9 689 1281.3 687.8 1280.4 686.4 C 1278.8 684 1278.8 683.7 1280.7 681.2 C 1282.6 678.6 1283.2 678.5 1292.5 678.2 C 1300.5 678 1302.6 678.2 1304.1 679.6 C 1306.4 681.7 1306.5 685.7 1304.3 688.2 C 1302.8 689.9 1302.9 690 1307.1 690 C 1313 690 1318.1 692.7 1320.3 697 C 1321.9 700.3 1322 705.7 1321.8 776.5 C 1321.6 818.3 1321.1 853.3 1320.6 854.3 C 1319.8 855.9 1321.4 856 1345.5 856 L 1371.2 856 L 1366.4 852.7 C 1359.1 847.8 1355.7 842.3 1355.2 834.5 C 1354.9 830.5 1355.3 826.5 1356.2 823.8 C 1357 821.4 1364.5 808.2 1372.7 794.5 C 1392.7 761.2 1406.6 736.2 1415.5 717.7 C 1426.7 694.6 1427 693.3 1427 672.6 L 1427 655.1 L 1422.3 654.8 C 1418.8 654.6 1417.5 654.1 1417.5 653 C 1417.5 651.8 1418.9 651.5 1424 651.5 L 1430.5 651.5 L 1430.8 671.2 C 1431 688.9 1430.8 691.6 1429 697.1 C 1425.9 706.3 1419.6 719.8 1410.3 737.2 C 1405.8 745.8 1402 753.1 1402 753.4 C 1402 753.7 1402.8 754 1403.9 754 C 1404.9 754 1408.4 755.4 1411.6 757.2 C 1416.5 759.9 1418.6 760.4 1424 760.4 C 1429.4 760.4 1431.6 759.9 1436.9 757.1 C 1445.8 752.5 1453.7 752.5 1462.4 757 C 1465.8 758.8 1470.7 760.4 1473.6 760.7 C 1478 761.2 1479.8 760.7 1486.9 757.5 C 1497.9 752.6 1504 752.5 1514 757.1 C 1517.8 758.8 1521.2 760.1 1521.4 759.9 C 1521.6 759.7 1518.4 753.4 1514.3 746 C 1503.6 726.5 1495.5 709.6 1492 699.1 C 1489 690.2 1489 689.9 1489.2 671.3 L 1489.5 652.5 L 1496 652.5 C 1501.1 652.5 1502.5 652.8 1502.5 654 C 1502.5 655.1 1501.2 655.6 1497.7 655.8 L 1492.8 656.1 L 1493.2 674.3 C 1493.5 688.5 1494 693.6 1495.4 697.5 C 1498 704.9 1512.7 734.8 1520.5 748.5 C 1524.2 755.1 1528.4 762.5 1529.8 765 C 1531.2 767.5 1539.2 781.1 1547.7 795.2 C 1565.6 825.2 1567.4 829.8 1564.7 839.1 C 1562.8 845.6 1560.3 849.1 1554.7 853.1 L 1550.7 856 L 1591.5 856 C 1628.1 856 1632.2 855.8 1631.6 854.4 C 1631.3 853.6 1631.5 852 1632 850.9 C 1633 849.1 1634.5 849 1668.9 849 C 1707.3 849 1708 849.1 1706.7 854 C 1706.2 856 1706.6 856 1768.9 856 L 1831.7 856 L 1832.8 853.5 L 1834 851 L 1870.2 851.2 L 1906.5 851.5 L 1907.5 853.7 L 1908.5 856 L 1937.8 856 L 1967.2 856 L 1964.1 853.1 C 1957.7 847.1 1958 851.6 1958 756.6 C 1958 697.9 1958.3 669.2 1959.1 667.3 C 1960.6 663.3 1964.8 659.1 1969.5 656.9 C 1972.8 655.4 1976 655 1987.8 655 L 2002 655 L 2002 634.7 C 2002 615.7 2002.1 614.2 2004.3 610 C 2008.6 601.3 1994.4 602 2160 602 C 2297.5 602 2306.7 602.1 2309.9 603.8 C 2311.8 604.7 2314.3 606.8 2315.4 608.3 C 2317.3 610.9 2317.5 612.7 2317.8 633.1 L 2318.1 655 L 2336.4 655 C 2356.5 655 2359.7 655.6 2364.9 660.4 C 2371.3 666.3 2371 661.5 2371 756.5 C 2371 851.6 2371.3 847.1 2364.9 853.1 L 2361.8 856 L 2397.5 856 C 2425.6 856 2433.1 856.3 2432.8 857.2 C 2432.4 858.2 2188 858.6 1216.2 858.8 L 0 859 L 0 973 L 0 1087 L 1528.5 1087 L 3057 1087 L 3057 973 L 3057 859 L 2989.8 858.8 C 2945.8 858.6 2922.5 858.2 2922.5 857.5 C 2922.5 856.8 2945.8 856.4 2989.8 856.2 L 3057 856 L 3057 428 L 3057 0 L 2893 0 L 2729 0 L 2729 126.5 L 2729 253 L 2736.5 253 C 2745.1 253 2748 254.8 2748 260 C 2748 262.9 2748.2 263 2752.4 263 C 2759.4 263 2759.5 263.6 2759.2 284.4 C 2759 294.4 2759.4 305.1 2759.9 308.4 C 2761.4 316.9 2765.8 325.4 2773 334 C 2776.4 338.1 2780.8 343.8 2782.6 346.6 C 2792.8 362.5 2793.5 385.6 2784.3 405 C 2779.8 414.4 2767.7 426.9 2758.3 431.8 C 2734 444.6 2705.1 440.3 2685.9 421.1 C 2673.7 408.8 2668 395 2668 377.2 C 2668 360.1 2671.9 350.5 2685.1 335.1 C 2692.7 326.1 2697.2 319.1 2699.2 312.5 C 2699.7 310.9 2700.6 299.4 2701 287 C 2702 262.2 2702 262 2708.7 262 C 2711.8 262 2712 261.8 2712 258.7 C 2712 254.2 2713.5 253 2719.2 253 L 2724 253 L 2724 126.5 L 2724 0 L 2614.5 0 L 2505 0 L 2505 109.9 L 2505 219.9 L 2510.3 220.2 L 2515.5 220.5 L 2515.5 250.5 L 2515.5 280.5 L 2502 280.5 L 2488.5 280.5 L 2488.5 250.5 L 2488.5 220.5 L 2494.3 220.2 L 2500 219.9 L 2500 110 L 2500 0 L 1250 0 L 0 0 L 0 428 Z  M 1234.2 57.4 C 1265.8 63.5 1289.8 85.9 1299.6 118.5 C 1301.3 124.2 1301.5 132.8 1301.7 267.9 C 1302.1 428.1 1302.7 413.5 1294.9 429.1 C 1284.2 450.6 1266.4 466.6 1245.6 473.6 L 1238.1 476.1 L 1244.8 480.7 C 1289.5 511.1 1331.6 566 1355.2 625 C 1358.8 633.9 1359 636 1356.1 636 C 1354.8 636 1353.1 633.2 1350 625.7 C 1335.7 591.9 1316.6 560 1295.2 534.2 C 1278.6 514.2 1252 490.5 1234.6 480.3 C 1230.4 477.9 1228 475.8 1228 474.7 C 1228 472.7 1227.8 472.8 1237.5 470.6 C 1245.2 468.8 1256.6 463.7 1263.3 459.1 C 1275 451.1 1288.3 433.6 1294 418.8 L 1297 411.1 L 1297 272.7 C 1297 153.9 1296.8 133 1295.5 125.6 C 1289.5 91.1 1260.3 64.4 1225.5 61.5 C 1218.7 60.9 1215.9 61.6 1101.5 92.9 C 1037.2 110.5 981.1 126.1 977 127.5 C 945.7 138.8 922.1 159.1 913.8 182 L 911.5 188.5 L 911.5 293 C 911.5 387.9 911.7 398.6 913.3 409.1 C 917.5 436.8 925.2 456 934.1 460.5 C 935.7 461.4 942.1 463.9 948.3 466.2 C 960.1 470.5 962 471.5 962 473.5 C 962 474.2 957.2 478.3 951.3 482.6 C 938.3 492.1 922.9 506.7 915.6 516.5 C 905.6 529.7 900.5 541 899.2 553.2 C 898.6 558.6 898.2 559.5 896.5 559.5 C 894.7 559.5 894.5 558.9 894.6 552.5 C 894.8 543.2 899.1 531.8 906.5 520.3 C 913.1 510.1 933.2 489.5 945.3 480.5 C 949.5 477.4 953 474.4 953 474 C 953 473.6 948.2 471.5 942.4 469.4 C 934.9 466.7 930.4 464.3 927.3 461.6 C 919.3 454.6 912.7 437.2 908.4 411.9 C 906.8 402.5 906.6 391.3 906.3 297.5 C 905.9 180.8 905.6 186 913.2 170.9 C 921 155.3 940.8 137.9 962.1 128.1 C 974.6 122.3 980.3 120.7 1103.5 87 C 1180.2 66 1218.2 56.1 1221.7 56.1 C 1224.5 56 1230.1 56.6 1234.2 57.4 Z  M 1120.9 151.3 C 1138.4 156 1151.2 163.2 1163.5 175.5 C 1177.7 189.7 1185.9 205.8 1189 225 C 1189.8 230.5 1190 256.7 1189.8 322.5 C 1189.4 403.1 1189.2 413.2 1187.7 418.8 C 1185.4 427.4 1182.9 432 1178.1 436.3 C 1171.4 442.4 1163.9 444.1 1128.2 447.5 C 1098.9 450.4 1089.9 454 1075.5 468.5 C 1069.8 474.2 1061.5 484.5 1052.9 496.5 C 1043.6 509.4 1038.7 515.5 1037.4 515.5 C 1036 515.5 1034.1 512.2 1029.4 501.5 C 1018.7 477.4 1017.3 474.6 1012.1 468.9 C 1005.1 461 997.5 456.3 985 452 C 971 447.1 964.7 443.7 958 437 C 951.7 430.7 947 421.8 943.8 410.3 C 941.9 403.2 941.6 399.4 941.2 368.9 L 940.8 335.2 L 936.5 334.8 C 931.2 334.2 926.8 331.1 924.6 326.6 C 923.2 323.7 923 320.3 923.2 307.3 C 923.5 292.3 923.6 291.5 925.5 291.5 C 927.4 291.5 927.5 292.3 928 307.8 L 928.5 324.2 L 931.8 327.1 L 935 330 L 968.5 330 L 1002 330 L 1005.2 327.1 L 1008.5 324.2 L 1009 307.8 C 1009.5 292.3 1009.6 291.5 1011.5 291.5 C 1013.3 291.5 1013.5 292.3 1013.8 298.2 L 1014.1 305 L 1029 305 L 1043.8 305 L 1044.2 298 C 1044.4 293.1 1044.2 291.1 1043.4 291.4 C 1042.7 291.7 1039.2 292.8 1035.4 293.9 C 1029.9 295.7 1028.4 295.8 1027.3 294.8 C 1025.6 293.1 1026.3 292.2 1034.3 286.6 C 1038.1 284 1041 281.6 1040.8 281.4 C 1040.6 281.2 1037.5 282.2 1034 283.7 C 1013.5 291.9 981.1 292.1 952.8 284.2 C 946.3 282.3 946.1 282.3 945.6 284.2 C 945.3 285.5 944.5 286 943.3 285.8 C 941.6 285.5 941.5 283.7 941.6 254.5 C 941.6 223.7 941.6 223.4 944.3 214.7 C 951.9 189.9 967.6 170.6 989 159.6 C 1008.6 149.6 1012.5 149.1 1068.5 149.4 C 1107.9 149.6 1115.4 149.9 1120.9 151.3 Z  M 1775.5 199.9 C 1783 203.3 1791.3 214.9 1798.5 231.8 C 1800.3 236 1811.1 265.8 1822.5 298 C 1842.4 354.2 1845.8 365.6 1847.7 381.3 L 1848.5 388.1 L 1853.2 379.3 C 1855.8 374.4 1859.3 369.1 1861 367.5 C 1863.7 364.9 1864.9 364.5 1869.5 364.5 C 1873.3 364.5 1875.6 365.1 1877.5 366.5 C 1880.2 368.5 1895.5 393.6 1899.1 401.7 C 1904.1 413.3 1904 408.5 1904 589.2 C 1904 735 1904.2 758.2 1905.5 762.4 C 1908.5 772.4 1910.2 785.7 1910.4 800.5 L 1910.5 815.5 L 1866.3 815.8 L 1822.1 816 L 1821.8 820.8 L 1821.5 825.5 L 1769 825.5 L 1716.5 825.5 L 1716.2 819.3 L 1715.9 813 L 1671.5 813 L 1627 813 L 1627 803.5 C 1627 789.8 1628.8 775.1 1632.1 762 L 1635 750.5 L 1635 585.5 C 1635 482.4 1635.4 418.2 1636 414.5 C 1637.7 404 1640.1 398.4 1649.4 382.3 C 1659.6 364.9 1662.4 362 1669.4 362 C 1676 362 1679.3 364.8 1684.8 375.1 L 1689.8 384.3 L 1690.4 380.4 C 1692.9 363.1 1695.7 353.8 1715 299.6 C 1726.1 268.3 1736.5 239.2 1738.2 235.1 C 1745.6 216.3 1754.4 203.5 1762.5 199.9 C 1767.5 197.6 1770.5 197.6 1775.5 199.9 Z  M 970 297.9 C 970 300 953 315 950.6 315 C 946.8 315 949.4 310.8 957.6 303.6 C 966.3 296 970 294.3 970 297.9 Z  M 988 297.9 C 988 300 971 315 968.6 315 C 964.8 315 967.4 310.8 975.6 303.6 C 984.3 296 988 294.3 988 297.9 Z  M 1091 604.5 L 1091 622 L 1073.5 622 L 1056 622 L 1056 604.5 L 1056 587 L 1073.5 587 L 1091 587 L 1091 604.5 Z  M 1133 605.5 L 1133 624 L 1114.5 624 L 1096 624 L 1096 605.5 L 1096 587 L 1114.5 587 L 1133 587 L 1133 605.5 Z  M 1174 605.5 L 1174 624 L 1155.5 624 L 1137 624 L 1137 605.5 L 1137 587 L 1155.5 587 L 1174 587 L 1174 605.5 Z  M 1184.5 605.5 C 1184.5 622.8 1184.4 623.5 1182.5 623.5 C 1180.6 623.5 1180.5 622.7 1180.2 606.5 C 1180.1 597.2 1180.2 589 1180.5 588.2 C 1180.8 587.5 1181.8 587 1182.7 587.2 C 1184.3 587.5 1184.5 589.2 1184.5 605.5 Z  M 1196.5 605.5 C 1196.5 622.8 1196.4 623.5 1194.5 623.5 C 1192.6 623.5 1192.5 622.7 1192.2 606.5 C 1192.1 597.2 1192.2 589 1192.5 588.2 C 1192.8 587.5 1193.8 587 1194.7 587.2 C 1196.3 587.5 1196.5 589.2 1196.5 605.5 Z  M 1207.5 605.5 C 1207.5 622.8 1207.4 623.5 1205.5 623.5 C 1203.6 623.5 1203.5 622.7 1203.2 606.5 C 1203.1 597.2 1203.2 589 1203.5 588.2 C 1203.8 587.5 1204.8 587 1205.7 587.2 C 1207.3 587.5 1207.5 589.2 1207.5 605.5 Z  M 1486.4 595.2 C 1489.8 600 1486.8 606 1481.2 606 C 1474.9 606 1472.2 597.2 1477.4 593.8 C 1479.8 592.2 1484.9 593 1486.4 595.2 Z  M 1452.9 615.8 C 1457.6 618.1 1460.1 621.9 1460.7 627.2 C 1461.6 635.3 1456.7 641.7 1448.3 643.5 C 1443.8 644.4 1436.6 641.1 1434 636.8 C 1431 632.1 1431.6 623.1 1435.1 619.4 C 1440 614.1 1446.9 612.7 1452.9 615.8 Z  M 1185 646 C 1185 659.4 1184.7 663.9 1183.8 664.3 C 1180.3 665.5 1180 664 1180 646 C 1180 632.6 1180.3 628.1 1181.3 627.7 C 1184.7 626.5 1185 628 1185 646 Z  M 1197 646 C 1197 659.4 1196.7 663.9 1195.8 664.3 C 1192.3 665.5 1192 664 1192 646 C 1192 632.6 1192.3 628.1 1193.3 627.7 C 1196.7 626.5 1197 628 1197 646 Z  M 1208 646 C 1208 659.4 1207.7 663.9 1206.8 664.3 C 1203.3 665.5 1203 664 1203 646 C 1203 632.6 1203.3 628.1 1204.3 627.7 C 1207.7 626.5 1208 628 1208 646 Z  M 1091 645.5 L 1091 663 L 1073.5 663 L 1056 663 L 1056 645.5 L 1056 628 L 1073.5 628 L 1091 628 L 1091 645.5 Z  M 1133 646.5 L 1133 665 L 1114.5 665 L 1096 665 L 1096 646.5 L 1096 628 L 1114.5 628 L 1133 628 L 1133 646.5 Z  M 1174 646.5 L 1174 665 L 1155.5 665 L 1137 665 L 1137 646.5 L 1137 628 L 1155.5 628 L 1174 628 L 1174 646.5 Z  M 898 640.5 C 898 641.8 888.2 642 816 642 C 743.8 642 734 641.8 734 640.5 C 734 639.2 743.8 639 816 639 C 888.2 639 898 639.2 898 640.5 Z  M 2603 650.7 C 2603 652.3 2603.4 653.9 2603.8 654.5 C 2604.2 655 2608.7 655.5 2613.8 655.5 L 2623.1 655.5 L 2624.1 651.7 C 2625 648.1 2625.4 647.9 2627.8 648.5 C 2629.3 648.9 2630.6 649.3 2630.7 649.4 C 2630.9 649.6 2630.4 651.7 2629.7 654.1 L 2628.5 658.5 L 2633.6 663.6 L 2638.8 668.7 L 2641.8 666.8 L 2644.8 664.9 L 2646.9 667.9 L 2649 670.8 L 2645.4 672.9 C 2642.4 674.7 2641.9 675.4 2642.5 677.3 C 2644.1 682.3 2643.6 684.3 2640.6 685.3 C 2637.9 686.2 2637.4 686 2635.1 682.9 C 2627.8 673.2 2621 669.5 2610.5 669.6 C 2599.2 669.6 2590.1 675.3 2583.6 686.5 C 2577 697.7 2576.2 715.4 2581.7 727.3 C 2587.5 739.6 2595.5 745.1 2608.7 745.8 C 2616.2 746.2 2617.5 746 2622.6 743.5 C 2629.1 740.3 2633.5 734.4 2634.6 727.4 C 2635.1 723.8 2635.7 723 2638.2 722.1 C 2642 720.7 2642.7 721.2 2644.1 726 C 2645.2 729.5 2645.7 729.9 2648.9 730.2 C 2652 730.5 2652.5 730.9 2652.8 733.2 C 2653.1 735.8 2652.8 736 2649.8 736 C 2646.6 736 2646.5 736.1 2645 742.4 L 2643.4 748.9 L 2647.2 750.6 C 2651.4 752.5 2651.6 752.8 2649.7 755.4 C 2648.5 757.1 2648 757.1 2644.8 756 L 2641.3 754.7 L 2635.6 760.3 L 2630 766 L 2631.5 769.6 C 2633.5 774.4 2633.5 774.7 2630.2 776.4 C 2627.3 777.9 2627.3 777.9 2625.1 773.3 C 2623.4 769.9 2622.5 769 2621.2 769.5 C 2617.3 771 2609.7 772.1 2607.5 771.6 C 2605.4 771.1 2605.1 771.4 2604.5 775.3 C 2603.5 781.3 2603 781.8 2599.3 780.8 L 2596.1 780 L 2597.5 775.3 C 2598.3 772.7 2598.8 770.5 2598.7 770.5 C 2598.6 770.4 2596.5 769.8 2594.1 769.1 C 2591.8 768.4 2589.2 767.6 2588.5 767.4 C 2587.8 767.1 2586.3 768.5 2585 770.4 C 2582.6 774.5 2581.1 774.8 2578.6 772.1 C 2577 770.4 2577 770.1 2578.9 766.8 L 2581 763.4 L 2575.1 757.6 L 2569.3 751.8 L 2565.2 753.9 L 2561.1 756 L 2559.4 753.5 C 2558.5 752.1 2557.9 750.8 2558.1 750.6 C 2558.3 750.5 2560.2 749.3 2562.3 748.1 C 2564.3 746.9 2566 745.7 2566 745.6 C 2566 745.4 2565.1 742.7 2564 739.4 C 2562.8 736.2 2561.6 730.7 2561.3 727.3 C 2560.8 721.6 2560.5 721.1 2558.6 721.5 C 2552.6 722.8 2551.6 722.5 2550.6 719.7 C 2549.4 716.4 2550.8 715 2555.5 715 C 2560 715 2560.6 714.1 2561.9 706.8 C 2562.5 703.2 2563.7 698.3 2564.5 696 C 2565.3 693.6 2566 691.5 2566 691.1 C 2566 690.8 2564.2 689.4 2562 688 C 2557.5 685.2 2557.3 684.5 2559.9 681.1 L 2561.8 678.6 L 2565.5 681.4 C 2567.5 682.9 2569.2 684 2569.4 683.9 C 2569.5 683.7 2571.5 680.9 2573.8 677.8 L 2578 672.1 L 2574.8 667.5 L 2571.5 662.9 L 2574 661 L 2576.5 659.1 L 2579.8 663 L 2583.2 667 L 2586.2 664.5 C 2587.9 663.1 2591 661 2593.1 659.9 C 2597.4 657.8 2597.3 658 2596.1 652.8 C 2595.2 648.9 2595.6 648.4 2600.8 648.1 C 2602.6 648 2603 648.5 2603 650.7 Z  M 2816.4 652.1 C 2823.6 654.4 2829.6 656.3 2829.8 656.5 C 2830 656.7 2827 661.3 2823.3 666.7 L 2816.4 676.7 L 2811 674.8 C 2808 673.8 2805.3 673.3 2804.9 673.7 C 2804.6 674.2 2797.8 696.7 2789.9 723.8 C 2776.2 770.8 2775.4 773.3 2772.7 774.7 C 2771.1 775.5 2769.7 776 2769.5 775.8 C 2769.4 775.6 2762.6 759 2754.5 738.8 C 2746.4 718.6 2739.4 702.2 2739 702.5 C 2738.7 702.7 2730.1 720.3 2719.9 741.6 L 2701.5 780.4 L 2700 773.7 C 2699.1 769.9 2698.2 766.8 2698 766.7 C 2697.7 766.6 2695.6 767.1 2693.2 767.9 C 2688.4 769.5 2688 769.3 2687.7 765.5 C 2687.5 763 2688 762.5 2692 761.2 C 2694.5 760.4 2696.7 759.6 2696.8 759.4 C 2697.1 759.2 2694.9 748 2694.6 748 C 2694.5 748 2692.3 748.7 2689.6 749.5 C 2686.9 750.3 2684.6 750.9 2684.4 750.8 C 2684.3 750.6 2684 749 2683.8 747.1 C 2683.5 743.9 2683.7 743.7 2688.3 742.3 C 2693.4 740.8 2693.5 740.6 2691.9 733.1 L 2690.9 728.1 L 2686.1 730 L 2681.3 731.9 L 2679.6 728.4 L 2678 724.9 L 2682.6 723 C 2685.1 721.9 2687.6 721 2688.1 721 C 2689.3 721 2689.2 719.2 2687.9 713 C 2687.3 710.3 2686.4 708 2686 708 C 2685.5 708 2682.8 708.5 2679.9 709.1 C 2674.3 710.3 2673 709.6 2673 705.4 C 2673 703.7 2674 703.1 2678.5 702 C 2681.6 701.3 2684.3 700.3 2684.6 699.8 C 2685.1 699.1 2683.1 687 2682.5 687 C 2682.4 687 2680.3 687.7 2678 688.5 C 2673.2 690.2 2672.4 690 2671.8 686.5 C 2671.3 684.4 2671.8 683.9 2675.9 682.4 C 2678.4 681.4 2680.6 680.6 2680.8 680.4 C 2681.3 680.1 2678.7 666.5 2677.9 665.6 C 2677.5 665.2 2675.5 665.3 2673.5 666 C 2669.3 667.4 2668.3 666.8 2667.4 662.5 L 2666.8 659.5 L 2678.5 655.7 C 2684.9 653.5 2690.3 652 2690.4 652.2 C 2690.6 652.3 2696.3 669 2703.1 689.2 C 2709.9 709.4 2715.7 726 2716 726 C 2716.3 726 2724.6 708.7 2734.5 687.6 C 2744.4 666.5 2752.8 649.5 2753.1 649.8 C 2753.5 650.2 2759.5 664.7 2766.5 682 C 2773.5 699.3 2779.5 714.1 2780 714.9 C 2780.7 716.3 2783.9 707 2797.6 663.2 C 2800.3 654.9 2802.6 648 2802.9 648 C 2803.1 648 2809.2 649.8 2816.4 652.1 Z  M 878 655.5 C 878 656.8 870.5 657 816.5 657 C 762.5 657 755 656.8 755 655.5 C 755 654.2 762.5 654 816.5 654 C 870.5 654 878 654.2 878 655.5 Z  M 1478.6 668.1 C 1486.8 675.8 1478 690 1467.6 685.6 C 1461.7 683.1 1459.1 677.8 1461.1 672 C 1463.5 665.2 1473.2 663 1478.6 668.1 Z  M 898 684.5 C 898 685.8 888.6 686 819.5 686 C 750.4 686 741 685.8 741 684.5 C 741 683.2 750.4 683 819.5 683 C 888.6 683 898 683.2 898 684.5 Z  M 1459.5 707.5 C 1460.9 708.8 1462 710.8 1462 712 C 1462 714.6 1457.7 719 1455.2 719 C 1452.4 719 1449.2 716 1448.4 712.8 C 1448 710.7 1448.4 709.5 1450.4 707.6 C 1453.6 704.3 1456.4 704.3 1459.5 707.5 Z  M 1683.7 819.5 C 1690.4 822.8 1699.8 831.7 1702.8 837.7 C 1706.3 844.5 1706.7 844.4 1668.3 843.7 C 1649.8 843.3 1634.5 842.8 1634.2 842.6 C 1633.2 841.5 1635.3 836.9 1638.9 832.3 C 1650.8 817.2 1668.6 812.2 1683.7 819.5 Z  M 1884.7 821.5 C 1891.4 824.8 1900.8 833.7 1903.8 839.7 C 1907.3 846.5 1907.7 846.4 1869.3 845.7 C 1850.8 845.3 1835.5 844.8 1835.2 844.6 C 1834.2 843.5 1836.3 838.9 1839.9 834.3 C 1851.8 819.2 1869.6 814.2 1884.7 821.5 Z  M 2700.7 840.4 C 2700.3 841.3 2699.4 841.7 2698.5 841.4 C 2696.7 840.7 2696.5 838.3 2698.3 837.7 C 2700 837.1 2701.4 838.6 2700.7 840.4 Z  M 2500.3 841.1 C 2503.6 845.2 2501.4 851.8 2494.7 857.5 L 2490.6 861 L 2496.3 861 C 2500.7 861 2502 861.3 2502 862.5 C 2502 863.7 2500.4 864 2494 864 C 2484.2 864 2483.9 863.2 2491.3 856.8 C 2497.7 851.3 2499.8 847.1 2498.2 843.5 C 2497.4 841.8 2496.2 841 2494.6 841 C 2492.2 841 2489 843.3 2489 845.1 C 2489 845.6 2488.3 846 2487.5 846 C 2485.7 846 2485.6 844.6 2487.1 841.9 C 2489.4 837.6 2497 837.2 2500.3 841.1 Z  M 2566 842.7 C 2566 846.4 2566.3 847.1 2567.2 846.2 C 2568.5 844.9 2574.8 844.6 2576.6 845.8 C 2578.9 847.3 2580 851.1 2580 857.4 C 2580 862.6 2579.7 864 2578.5 864 C 2577.3 864 2577 862.6 2577 857.5 C 2577 850.6 2575 847 2571.3 847 C 2567.6 847 2566 850 2566 857.2 C 2566 862.6 2565.7 864 2564.5 864 C 2563.2 864 2563 861.9 2563 851 C 2563 840.1 2563.2 838 2564.5 838 C 2565.6 838 2566 839.2 2566 842.7 Z  M 2529 840 C 2529 840.6 2526.3 841 2523 841 L 2517 841 L 2517 845 C 2517 848.7 2517.2 849 2518.9 848 C 2522.2 846.3 2526 846.9 2528.7 849.6 C 2530.9 851.8 2531.2 852.8 2530.7 856.3 C 2530 861.3 2527.1 864 2522.5 864 C 2519 864 2514 860.7 2514 858.4 C 2514 856.3 2516.3 856.7 2517.8 859 C 2519.5 861.7 2525.5 861.8 2527 859.1 C 2530.4 852.6 2523.5 846.5 2518.1 851.4 C 2514.8 854.4 2514 853.4 2514 846 L 2514 839 L 2521.5 839 C 2525.8 839 2529 839.4 2529 840 Z  M 2546.2 842.2 C 2546.4 843.7 2547.3 844.6 2548.8 844.8 C 2550 845 2551 845.5 2551 846 C 2551 846.5 2550 847 2548.8 847.2 C 2546.9 847.4 2546.4 848.2 2546.2 851.9 C 2545.7 858.1 2546.6 861 2549 861 C 2550.1 861 2551 861.7 2551 862.5 C 2551 864 2548.4 864.5 2545.6 863.4 C 2544.3 862.9 2544 861.2 2544 855.4 C 2544 849.5 2543.7 847.9 2542.3 847 C 2540.6 846 2540.6 846 2542.3 845 C 2543.2 844.4 2544 843 2544 842 C 2544 839.2 2545.8 839.5 2546.2 842.2 Z  M 2622.2 846.7 C 2623.9 848.2 2624 848.2 2624 846.7 C 2624 845.7 2624.7 845 2625.5 845 C 2626.7 845 2627 846.7 2627 854.5 C 2627 862.3 2626.7 864 2625.5 864 C 2624.7 864 2624 863.3 2624 862.4 C 2624 861 2623.8 861 2621.8 862.4 C 2618.4 864.8 2613.3 864.4 2610.5 861.5 C 2608.6 859.7 2608 858 2608 854.5 C 2608 851 2608.6 849.3 2610.5 847.5 C 2613.4 844.5 2619.4 844.1 2622.2 846.7 Z  M 2642 846.2 C 2642 847.1 2642.3 847.1 2643.2 846.2 C 2644.5 844.9 2650.8 844.6 2652.6 845.8 C 2654.9 847.3 2656 851.1 2656 857.4 C 2656 862.6 2655.7 864 2654.5 864 C 2653.3 864 2653 862.6 2653 857.5 C 2653 850.6 2651 847 2647.3 847 C 2643.6 847 2642 850 2642 857.2 C 2642 862.6 2641.7 864 2640.5 864 C 2639.3 864 2639 862.3 2639 854.5 C 2639 846.7 2639.3 845 2640.5 845 C 2641.3 845 2642 845.5 2642 846.2 Z  M 2672 846.2 C 2672 847.1 2672.3 847.1 2673.2 846.2 C 2674.5 844.9 2680.8 844.6 2682.6 845.8 C 2684.9 847.3 2686 851.1 2686 857.4 C 2686 862.6 2685.7 864 2684.5 864 C 2683.3 864 2683 862.6 2683 857.5 C 2683 850.6 2681 847 2677.3 847 C 2673.6 847 2672 850 2672 857.2 C 2672 862.6 2671.7 864 2670.5 864 C 2669.3 864 2669 862.3 2669 854.5 C 2669 846.7 2669.3 845 2670.5 845 C 2671.3 845 2672 845.5 2672 846.2 Z  M 2701 854.5 C 2701 862.3 2700.7 864 2699.5 864 C 2698.3 864 2698 862.3 2698 854.5 C 2698 846.7 2698.3 845 2699.5 845 C 2700.7 845 2701 846.7 2701 854.5 Z  M 2717.6 852.4 C 2719.2 856.5 2720.7 859.7 2721.1 859.4 C 2721.5 859.2 2722.8 856 2724 852.4 C 2725.9 846.8 2728.1 843.8 2729.5 845.1 C 2729.7 845.3 2728.2 849.7 2726.3 854.8 C 2721.6 866.9 2720.2 866.9 2715.4 855.1 C 2711.5 845.5 2711.5 845 2713.4 845 C 2714.3 845 2716 847.9 2717.6 852.4 Z  M 2754.5 847.5 C 2755.9 848.8 2757 851.1 2757 852.5 C 2757 855 2756.9 855 2749.5 855 C 2742.8 855 2742 855.2 2742 856.9 C 2742 859.2 2743.6 860.6 2747.2 861.5 C 2749.2 862 2750.4 861.6 2752 860 C 2753.2 858.8 2754.9 858 2755.8 858.2 C 2757.2 858.5 2757.1 859 2754.8 861.3 C 2752.7 863.4 2751.1 864 2748 864 C 2742.2 864 2739 860.7 2739 854.5 C 2739 848.3 2742.2 845 2748 845 C 2751 845 2752.7 845.6 2754.5 847.5 Z  M 2772 846.2 C 2772 847.1 2772.3 847.1 2773.2 846.2 C 2774.9 844.5 2778 844.7 2778 846.5 C 2778 847.3 2777.2 848 2776.2 848 C 2773 848 2772 850.2 2772 857.2 C 2772 862.6 2771.7 864 2770.5 864 C 2769.3 864 2769 862.3 2769 854.5 C 2769 846.7 2769.3 845 2770.5 845 C 2771.3 845 2772 845.5 2772 846.2 Z  M 2800.4 846.6 C 2801.3 847.4 2802 848.6 2802 849.1 C 2802 850.5 2799.4 850.2 2798 848.5 C 2796.4 846.6 2793.6 846.6 2792 848.5 C 2790.4 850.4 2791.4 851.6 2795.8 853.1 C 2800.9 854.7 2802 855.8 2802 859.1 C 2802 863.8 2795 865.8 2790.2 862.4 C 2787.7 860.7 2787.3 858 2789.5 858 C 2790.3 858 2791 858.4 2791 859 C 2791 860.5 2794.9 862.2 2797 861.5 C 2800.4 860.4 2799.4 857.3 2795.3 856 C 2788.4 853.7 2786.4 850.5 2789.7 846.8 C 2791.7 844.5 2798.2 844.4 2800.4 846.6 Z  M 2827.2 846.7 C 2828.9 848.2 2829 848.2 2829 846.7 C 2829 845.7 2829.7 845 2830.5 845 C 2831.7 845 2832 846.7 2832 854.5 C 2832 862.3 2831.7 864 2830.5 864 C 2829.7 864 2829 863.3 2829 862.4 C 2829 861 2828.8 861 2826.8 862.4 C 2823.4 864.8 2818.3 864.4 2815.5 861.5 C 2813.6 859.7 2813 858 2813 854.5 C 2813 851 2813.6 849.3 2815.5 847.5 C 2818.4 844.5 2824.4 844.1 2827.2 846.7 Z  M 2848 846.2 C 2848 847.1 2848.3 847.1 2849.2 846.2 C 2850.9 844.5 2854 844.7 2854 846.5 C 2854 847.3 2853.2 848 2852.2 848 C 2849 848 2848 850.2 2848 857.2 C 2848 862.6 2847.7 864 2846.5 864 C 2845.3 864 2845 862.3 2845 854.5 C 2845 846.7 2845.3 845 2846.5 845 C 2847.3 845 2848 845.5 2848 846.2 Z  M 2868.8 852.2 C 2870.2 856 2871.6 859 2871.9 859 C 2872.2 859 2873.7 856 2875.1 852.2 C 2876.7 848.2 2878.4 845.4 2879.4 845.2 C 2880.9 844.9 2880.8 845.3 2879.1 849.7 C 2872.4 866.7 2869.5 873 2868.3 873 C 2866.6 873 2866.7 872.1 2868.6 867.5 C 2870.1 863.9 2870 863.5 2866.6 854.9 C 2862.4 844.6 2862.5 844.8 2864.7 845.2 C 2865.7 845.4 2867.3 848.1 2868.8 852.2 Z  M 2697 915 C 2698.1 916.1 2699 917.4 2699 917.9 C 2699 920.2 2697.5 922.2 2695.2 923.1 C 2691.7 924.5 2688 921.9 2688 918 C 2688 913.2 2693.4 911.4 2697 915 Z  M 2672.5 920.4 C 2676.3 922 2679 926.4 2679 931.1 C 2679 933.3 2678 935.2 2675.7 937.5 C 2672.4 940.8 2672.4 940.9 2674.5 942 C 2678.1 943.9 2680.3 948.7 2679.7 953.2 C 2678.6 961.6 2673.6 964 2657.5 964 L 2646 964 L 2646 941.5 L 2646 919 L 2657.5 919 C 2665.2 919 2670.2 919.5 2672.5 920.4 Z  M 2586 929.5 C 2588.8 930.9 2592 935.5 2592 938 C 2592 938.5 2590.1 939 2587.7 939 C 2584.6 939 2583.2 938.5 2582.2 937 C 2579.8 933.1 2571 935.2 2572.5 939.2 C 2572.8 940 2576.5 941.7 2580.6 943 C 2589.2 945.7 2592 948.4 2592 953.7 C 2592 960.7 2587.7 964 2578.5 964 C 2571.6 964 2566.4 961.7 2564.5 957.9 C 2562.3 953.7 2562.6 953 2567.1 953 C 2570 953 2571.7 953.6 2572.8 955.1 C 2576 959 2585.1 957 2583.5 952.8 C 2583.1 951.8 2579.8 950.2 2575.7 949 C 2566.6 946.3 2564 943.9 2564 938.8 C 2564 933.9 2565.3 931.5 2568.8 929.6 C 2572.4 927.6 2582.3 927.6 2586 929.5 Z  M 2628.8 930.8 C 2639 938.1 2638.3 955.6 2627.5 961.7 C 2622.1 964.8 2612.9 964.9 2608.1 961.9 C 2603.2 958.9 2601.2 956.2 2599.9 950.5 C 2598 942.1 2601.2 934.4 2608.4 929.8 C 2612.9 927 2624.2 927.6 2628.8 930.8 Z  M 2697 946 L 2697 964 L 2693 964 L 2689 964 L 2689 946 L 2689 928 L 2693 928 L 2697 928 L 2697 946 Z  M 2731 930 C 2734.2 932.5 2735 932.5 2735 930 C 2735 928.3 2735.7 928 2739.5 928 L 2744 928 L 2744 946.2 C 2743.9 970.7 2742.8 974.8 2734.9 979.5 C 2727.5 983.9 2713 980.7 2709.5 974 C 2707.2 969.6 2707.6 969 2712.3 969 C 2715.4 969 2717.2 969.6 2718.5 971 C 2720.8 973.5 2725.7 974.4 2729.3 973.1 C 2732.3 971.9 2735 966.9 2735 962.5 C 2735 959.5 2734.9 959.5 2730.8 962 C 2726.1 964.8 2718.3 964.7 2714 961.7 C 2708.7 958.2 2706.5 953.6 2706.5 946 C 2706.5 938.4 2708.7 933.8 2714 930.3 C 2718.4 927.3 2727.3 927.1 2731 930 Z  M 2795 929.5 C 2797.8 930.9 2801 935.5 2801 938 C 2801 938.5 2799.1 939 2796.7 939 C 2793.6 939 2792.2 938.5 2791.2 937 C 2788.8 933.1 2780 935.2 2781.5 939.2 C 2781.8 940 2785.5 941.7 2789.6 943 C 2798.2 945.7 2801 948.4 2801 953.7 C 2801 960.7 2796.7 964 2787.5 964 C 2780.6 964 2775.4 961.7 2773.5 957.9 C 2771.3 953.7 2771.6 953 2776.1 953 C 2779 953 2780.7 953.6 2781.8 955.1 C 2785 959 2794.1 957 2792.5 952.8 C 2792.1 951.8 2788.8 950.2 2784.7 949 C 2775.6 946.3 2773 943.9 2773 938.8 C 2773 933.9 2774.3 931.5 2777.8 929.6 C 2781.4 927.6 2791.3 927.6 2795 929.5 Z  M 2762.4 955.6 C 2765.8 958.9 2763.5 964 2758.7 964 C 2754.9 964 2753 962.5 2753 959.4 C 2753 956.5 2755.5 954 2758.5 954 C 2759.8 954 2761.6 954.7 2762.4 955.6 Z " fill="rgb(254,253,248)"/><path d=" M 1018 155.1 C 985.5 160 957.7 185.1 948.9 217.5 C 947 224.5 946.6 228.8 946.2 251.2 L 945.8 276.9 L 951.5 278.5 C 971.9 284.5 997.9 286.6 1014.7 283.6 C 1025.1 281.8 1035.6 278.2 1041.3 274.4 C 1043.4 273 1045.9 272 1046.8 272.2 C 1049.6 272.7 1049.5 278 1046.6 282.2 L 1044.2 285.8 L 1051.3 282.8 C 1081.9 269.8 1108.3 245 1122.1 216.2 C 1125.5 209.1 1126.5 207.9 1128.3 208.2 C 1130.3 208.5 1130.5 209.2 1131.2 218.8 C 1131.6 224.4 1132.4 231.6 1133.1 234.8 L 1134.3 240.5 L 1135.3 236 C 1136.3 230.8 1137.6 229 1140 229 C 1141.2 229 1142 230.5 1142.9 234.7 C 1147.3 254.5 1161.3 268.1 1181.8 272.5 L 1185 273.2 L 1185 252.8 C 1185 231.1 1184.2 223.3 1180.8 213 C 1171.8 185.3 1150.1 164.8 1121.1 156.7 C 1114 154.8 1110.8 154.6 1069 154.4 C 1044.4 154.3 1021.6 154.6 1018 155.1 Z " fill="rgb(254,253,248)"/><path d=" M 1123.3 225.3 C 1119.7 232.7 1108.8 247 1100.4 255.5 C 1088.4 267.5 1076.4 276.1 1060.7 283.9 C 1053.1 287.7 1047.4 291.1 1047.9 291.5 C 1048.6 291.9 1049 297.8 1049 307.7 L 1049 323.2 L 1052.4 326.6 L 1055.8 330 L 1089.4 330 L 1123 330 L 1126.2 327.1 L 1129.5 324.2 L 1130 307.8 C 1130.5 292.3 1130.6 291.5 1132.5 291.5 C 1134.4 291.5 1134.5 292.2 1134.5 308.5 C 1134.5 324.5 1134.4 325.7 1132.3 328.6 C 1127.8 334.8 1126.8 335 1089.5 335 C 1052.2 335 1051.2 334.8 1046.7 328.6 C 1045 326.2 1044.4 323.8 1044.1 317.7 L 1043.8 310 L 1028.9 310 L 1014 310 L 1014 316.7 C 1014 320.8 1013.4 324.7 1012.5 326.4 C 1011.7 327.9 1011 329.4 1011 329.6 C 1011 329.8 1014.1 330 1017.9 330 C 1024.7 330 1026.3 330.8 1025.3 333.7 C 1025 334.6 1022.1 335 1015.8 335 C 1005.5 335 1001.2 336.5 997.7 341.4 C 994.7 345.7 994.7 353.3 997.7 357.6 C 1001.2 362.6 1005.4 364 1016.3 364 C 1025.8 364 1027.4 364.6 1026.3 367.7 C 1026 368.6 1022.9 369 1015.7 369 C 1001.4 368.9 995.4 365.9 991.5 356.8 C 988.9 350.3 990.2 341.8 994.7 336.8 C 996.2 335.1 995.2 335 971.1 335 L 945.8 335 L 946.3 367.7 C 946.8 403.6 947.5 409 952.9 420.7 C 956.5 428.3 964.4 436.9 971.5 441 C 974.3 442.6 980.9 445.3 986.2 447 C 997.6 450.7 1005.6 455.3 1012.8 462.3 C 1020.2 469.5 1023.7 475.3 1030.5 491.3 C 1033.7 498.8 1036.8 505.7 1037.4 506.5 C 1038.3 507.7 1040.5 505.2 1049 493.3 C 1064.2 471.9 1070.3 464.6 1078.1 458.5 C 1091.9 447.8 1101.2 445 1134.8 441.6 C 1164 438.6 1169.7 437.2 1175.6 431.6 C 1184.1 423.4 1185 414.8 1185 337.9 L 1185 278.3 L 1179 277.1 C 1175.7 276.4 1169.5 274.1 1165.1 271.9 C 1155.8 267.3 1147.7 259.3 1142.7 249.7 L 1139.5 243.5 L 1139.2 248.3 C 1138.9 253.4 1137.1 255.2 1134.5 253 C 1132.5 251.4 1128.3 237.9 1126.9 229 C 1126.3 224.9 1125.7 221.4 1125.6 221.3 C 1125.5 221.1 1124.4 222.9 1123.3 225.3 Z  M 1091 297.9 C 1091 300 1074 315 1071.6 315 C 1067.8 315 1070.4 310.8 1078.6 303.6 C 1087.3 296 1091 294.3 1091 297.9 Z  M 1109 297.9 C 1109 300 1092 315 1089.6 315 C 1085.8 315 1088.4 310.8 1096.6 303.6 C 1105.3 296 1109 294.3 1109 297.9 Z " fill="rgb(254,253,248)"/><path d=" M 1764.2 204.6 C 1757.9 207.8 1750.9 218.1 1744 234.4 C 1737.2 250.5 1699.2 359.2 1697.4 368 C 1695.6 376 1695.5 386.1 1695.3 529.5 L 1695 682.5 L 1698.2 677.5 C 1704.1 668.1 1709.6 654.6 1713.7 639 C 1715.2 633.2 1715.4 623.3 1716 550 C 1716.5 481.3 1716.9 466.6 1718.2 462 C 1720 455.1 1745.8 382.4 1747.6 378.9 C 1749.6 375 1756.4 369.5 1760.9 368.2 C 1765.8 366.7 1772.2 366.7 1777.1 368.2 C 1781.6 369.5 1788.4 375 1790.4 378.9 C 1792.2 382.4 1818 455 1819.9 462 C 1821.1 466.6 1821.5 481.2 1822 551 C 1822.6 632.2 1822.7 634.7 1824.8 642.6 C 1828 654.9 1830.9 662.7 1835.6 672 C 1843.8 688.3 1843 703.1 1842.7 530.5 C 1842.5 386.2 1842.3 376 1840.6 368 C 1838.1 356.2 1798 243 1791.5 229.3 C 1785.3 216.3 1781.2 210 1776.6 206.5 C 1772.3 203.2 1768.3 202.6 1764.2 204.6 Z " fill="rgb(254,253,248)"/><path d=" M 1664.2 368.7 C 1662.3 370.4 1650.8 389.5 1646 399 C 1641.3 408.2 1641 411.3 1641 450.7 L 1641 488 L 1665.5 488 L 1690 488 L 1690 441.7 L 1690 395.3 L 1683 382.5 C 1679.2 375.5 1675.2 369.1 1674.3 368.4 C 1671.8 366.5 1666.6 366.7 1664.2 368.7 Z " fill="rgb(254,253,248)"/><path d=" M 1864.6 371.2 C 1863.3 372.5 1859.1 379.3 1855.3 386.5 L 1848.4 399.5 L 1848.8 443.7 L 1849.2 488 L 1873.6 488 L 1898 488 L 1898 451.2 C 1897.9 415.9 1897.9 414.2 1895.7 408 C 1892.7 399 1876.4 371.5 1873.3 370.1 C 1869.7 368.4 1867.4 368.8 1864.6 371.2 Z " fill="rgb(254,253,248)"/><path d=" M 1761 373.6 C 1754.2 376.5 1752.3 379.5 1746.7 395.6 L 1743.2 405.6 L 1752.4 403.2 C 1763.7 400.3 1777.9 400.6 1787.4 403.9 C 1790.7 405.1 1793.7 406 1794.1 406 C 1795 406 1788.8 387.4 1786 382 C 1785 380.1 1783.4 377.7 1782.3 376.8 C 1777.2 372.2 1767.6 370.7 1761 373.6 Z " fill="rgb(254,253,248)"/><path d=" M 1756.5 406.3 C 1751.3 407.4 1741 410.9 1741 411.5 C 1741 411.6 1737.2 422.3 1732.6 435.2 C 1728 448.2 1723.7 461.1 1723.1 463.9 C 1722.3 467.6 1722 506.5 1722 594.5 L 1722 720 L 1769 720 L 1816 720 L 1816 594.2 C 1816 513.9 1815.6 466.9 1814.9 464 C 1814.4 461.5 1810.2 449 1805.7 436.2 C 1797.5 412.9 1797.5 412.8 1793.6 410.8 C 1784 405.9 1767.9 403.9 1756.5 406.3 Z  M 1787.7 443 C 1796.9 447.6 1799.8 450.6 1798 453.9 C 1796.5 456.8 1794.8 456.5 1787.3 452 C 1774.5 444.3 1763.9 444.3 1752.7 452 C 1746.4 456.3 1745.1 456.7 1743.2 454.8 C 1739.5 451.1 1746.2 444.4 1758.1 439.9 C 1762.4 438.4 1765.2 438 1771.4 438.4 C 1778.2 438.8 1780.5 439.4 1787.7 443 Z " fill="rgb(254,253,248)"/><path d=" M 1641 563.5 L 1641 635 L 1665.5 635 L 1690 635 L 1690 563.5 L 1690 492 L 1665.5 492 L 1641 492 L 1641 563.5 Z " fill="rgb(254,253,248)"/><path d=" M 1849 563.5 L 1849 635 L 1873.5 635 L 1898 635 L 1898 563.5 L 1898 492 L 1873.5 492 L 1849 492 L 1849 563.5 Z " fill="rgb(254,253,248)"/><path d=" M 1641 688.2 L 1641 737.3 L 1645.1 731 C 1651 721.9 1658.3 714.6 1668 708.2 C 1672.7 705.2 1679.5 699.7 1683.3 696.2 L 1690 689.7 L 1690 664.3 L 1690 639 L 1665.5 639 L 1641 639 L 1641 688.2 Z " fill="rgb(254,253,248)"/><path d=" M 1849 666.2 L 1849 693.4 L 1854.8 698.9 C 1857.9 701.9 1863.7 706.4 1867.5 708.8 C 1880.8 717.4 1888.1 724.7 1895.3 737 L 1898 741.5 L 1898 690.2 L 1898 639 L 1873.5 639 L 1849 639 L 1849 666.2 Z " fill="rgb(254,253,248)"/><path d=" M 1713.2 657.7 C 1705.1 681.1 1691.8 698.4 1671.6 712 C 1656.7 722 1649.2 731 1642.3 747.3 C 1636.5 761 1633.5 775.7 1632.4 796.4 L 1631.7 808 L 1673.8 808 L 1716 808 L 1716 729.5 C 1716 686.3 1715.9 651 1715.7 651 C 1715.6 651 1714.4 654 1713.2 657.7 Z " fill="rgb(254,253,248)"/><path d=" M 1822 731.7 L 1822 810 L 1864.2 810 L 1906.3 810 L 1905.6 798.2 C 1904 769.1 1897.2 747.1 1884.7 730.5 C 1879.9 724.1 1876.2 720.9 1866 714 C 1846.8 701.2 1835.1 686.4 1825.9 663.1 L 1822.1 653.5 L 1822 731.7 Z " fill="rgb(254,253,248)"/><path d=" M 1722 773 L 1722 820 L 1769 820 L 1816 820 L 1816 773 L 1816 726 L 1769 726 L 1722 726 L 1722 773 Z " fill="rgb(254,253,248)"/><path d=" M 1061 604.5 L 1061 617 L 1073.5 617 L 1086 617 L 1086 604.5 L 1086 592 L 1073.5 592 L 1061 592 L 1061 604.5 Z " fill="rgb(254,253,248)"/><path d=" M 1101 605.5 L 1101 619 L 1114.5 619 L 1128 619 L 1128 605.5 L 1128 592 L 1114.5 592 L 1101 592 L 1101 605.5 Z " fill="rgb(254,253,248)"/><path d=" M 1142 605.5 L 1142 619 L 1155.5 619 L 1169 619 L 1169 605.5 L 1169 592 L 1155.5 592 L 1142 592 L 1142 605.5 Z " fill="rgb(254,253,248)"/><path d=" M 1479.2 599.2 C 1479.4 600.7 1480.2 601.5 1481.5 601.5 C 1484.5 601.5 1484.2 597.6 1481.2 597.2 C 1479.2 596.9 1478.9 597.2 1479.2 599.2 Z " fill="rgb(254,253,248)"/><path d=" M 1442.4 619 C 1438.8 620.4 1436 624.9 1436 629.2 C 1436 634.8 1440.3 639 1446 639 C 1451.2 639 1453.6 637.7 1455.5 634 C 1458.5 628.1 1456.8 622.5 1451 619.5 C 1447.8 617.8 1445.5 617.7 1442.4 619 Z " fill="rgb(254,253,248)"/><path d=" M 1061 645.5 L 1061 658 L 1073.5 658 L 1086 658 L 1086 645.5 L 1086 633 L 1073.5 633 L 1061 633 L 1061 645.5 Z " fill="rgb(254,253,248)"/><path d=" M 1101 646.5 L 1101 660 L 1114.5 660 L 1128 660 L 1128 646.5 L 1128 633 L 1114.5 633 L 1101 633 L 1101 646.5 Z " fill="rgb(254,253,248)"/><path d=" M 1142 646.5 L 1142 660 L 1155.5 660 L 1169 660 L 1169 646.5 L 1169 633 L 1155.5 633 L 1142 633 L 1142 646.5 Z " fill="rgb(254,253,248)"/><path d=" M 2747.4 676.2 L 2745.3 680.4 L 2753.7 700.9 C 2770.2 741.8 2771.3 744.2 2772 742.8 C 2772.4 742.1 2773.3 739 2774 736 L 2775.2 730.5 L 2762.9 701.3 C 2756.1 685.2 2750.3 672 2749.9 672 C 2749.6 672 2748.5 673.9 2747.4 676.2 Z " fill="rgb(254,253,248)"/><path d=" M 1467.2 670.6 C 1464.4 672.5 1464.2 678 1466.8 680.3 C 1469.3 682.6 1473.6 682.4 1476 680 C 1478.7 677.3 1478.5 674.4 1475.5 671.5 C 1472.7 668.6 1470.4 668.4 1467.2 670.6 Z " fill="rgb(254,253,248)"/><path d=" M 1453.7 709.7 C 1452.5 710.9 1453 713.8 1454.4 714.3 C 1456.6 715.2 1458.5 712.4 1457 710.5 C 1455.6 708.9 1454.7 708.6 1453.7 709.7 Z " fill="rgb(254,253,248)"/><path d=" M 1660.8 821.3 C 1654.2 823.8 1648.2 827.9 1643.6 833.2 L 1639 838.5 L 1654 838.8 C 1662.2 838.9 1675.8 838.9 1684 838.8 L 1699.1 838.5 L 1694.1 832.9 C 1684.9 822.6 1670.7 817.6 1660.8 821.3 Z " fill="rgb(254,253,248)"/><path d=" M 1861.8 823.3 C 1855.2 825.8 1849.2 829.9 1844.6 835.2 L 1840 840.5 L 1855 840.8 C 1863.2 840.9 1876.8 840.9 1885 840.8 L 1900.1 840.5 L 1895.1 834.9 C 1885.9 824.6 1871.7 819.6 1861.8 823.3 Z " fill="rgb(254,253,248)"/><path d=" M 2613 849 C 2610 852 2610.3 857.3 2613.7 859.9 C 2616.7 862.3 2619.5 861.9 2622.3 858.8 C 2624.7 856 2624.4 852.3 2621.5 849.5 C 2618.6 846.5 2615.7 846.3 2613 849 Z " fill="rgb(254,253,248)"/><path d=" M 2744.2 848.6 C 2740.1 851.5 2741.4 853 2748 853 C 2754.4 853 2755.2 852.2 2752 849 C 2749.6 846.6 2747.2 846.5 2744.2 848.6 Z " fill="rgb(254,253,248)"/><path d=" M 2818 849 C 2815 852 2815.3 857.3 2818.7 859.9 C 2821.7 862.3 2824.5 861.9 2827.3 858.8 C 2829.7 856 2829.4 852.3 2826.5 849.5 C 2823.6 846.5 2820.7 846.3 2818 849 Z " fill="rgb(254,253,248)"/><path d=" M 2654 931.5 L 2654 937 L 2660.4 937 C 2666 937 2667.1 936.7 2668.4 934.8 C 2670.5 931.8 2670.4 930.4 2668 928 C 2666.4 926.4 2664.7 926 2660 926 L 2654 926 L 2654 931.5 Z " fill="rgb(254,253,248)"/><path d=" M 2654.4 945.4 C 2654.1 946.1 2654 948.9 2654.2 951.6 L 2654.5 956.5 L 2660.1 956.8 C 2669.4 957.3 2673.9 951.8 2668.5 946.5 C 2666.5 944.4 2665.1 944 2660.5 944 C 2656.7 944 2654.8 944.4 2654.4 945.4 Z " fill="rgb(254,253,248)"/><path d=" M 2614.5 935.9 C 2610.5 937.6 2608.6 940.8 2608.6 946 C 2608.6 953.8 2613.9 958.2 2620.7 955.9 C 2628.6 953.3 2629.2 939.7 2621.5 936.2 C 2618.5 934.8 2617.3 934.8 2614.5 935.9 Z " fill="rgb(254,253,248)"/><path d=" M 2721 936.3 C 2719.6 937 2717.6 939.3 2716.6 941.4 C 2714.9 945 2714.8 945.7 2716.1 949.4 C 2717.1 952.4 2718.5 954 2721.3 955.5 L 2725 957.5 L 2728.7 955.5 C 2735.9 951.7 2736.4 941.1 2729.7 937 C 2726 934.7 2724.4 934.6 2721 936.3 Z " fill="rgb(254,253,248)"/><path d=" M 74.6 215.6 C 72.7 217.6 72 219.3 72 222.1 C 72 225 126.2 520.8 132.1 549.7 L 133.1 555 L 412 555 L 690.9 555 L 690.4 552.2 C 690.1 550.7 676 474.8 659.1 383.6 C 629 221.2 628.3 217.6 625.6 215.3 L 622.9 213 L 350.1 213 L 77.3 213 L 74.6 215.6 Z " fill="rgb(254,253,248)"/><path d=" M 2716 259.5 L 2716 262 L 2729.5 262 L 2743 262 L 2743 259.5 L 2743 257 L 2729.5 257 L 2716 257 L 2716 259.5 Z " fill="rgb(254,253,248)"/><path d=" M 2706 280.4 L 2706 295 L 2730.5 295 L 2755 295 L 2755 281.1 L 2755 267.2 L 2735.3 267.1 C 2724.4 267 2713.4 266.7 2710.8 266.4 L 2706 265.7 L 2706 280.4 Z " fill="rgb(254,253,248)"/><path d=" M 2705 302.8 C 2705 307 2702.2 316.9 2699.5 322.5 C 2698.1 325.2 2693.3 331.9 2688.7 337.3 C 2684.1 342.6 2679.1 349.2 2677.7 351.8 C 2674.2 358.3 2672 367.8 2672 377.2 C 2672 393.9 2677.1 406.3 2688.9 418.1 C 2703.4 432.6 2721 437.8 2741.3 433.5 C 2770.6 427.3 2789.8 399.9 2786.2 369.6 C 2784.8 358.4 2781.4 351.1 2772.9 340.7 C 2760.2 325.1 2756.8 318.4 2755.4 305.7 L 2754.7 300 L 2748.9 300 L 2743 300 L 2743 317.8 C 2743 327.7 2742.7 339.1 2742.4 343.3 L 2741.7 351 L 2745.4 351 C 2755.6 351 2760.5 360.1 2754.1 367.2 C 2748 374 2739.2 370.1 2738.2 360.1 L 2737.7 355 L 2730 355 L 2722.3 355 L 2721.8 360.2 C 2721.4 364.2 2720.7 365.9 2718.6 367.7 C 2714.9 370.8 2709.7 370.8 2706.5 367.6 C 2699.7 360.8 2704 351.1 2713.8 350.7 L 2718 350.6 L 2718 325.3 L 2718 300 L 2711.5 300 C 2705.1 300 2705 300 2705 302.8 Z  M 2772.4 366.8 C 2774.8 374.5 2775.1 378.7 2774 385.2 C 2772.4 393.7 2768.6 401.1 2762.5 407.5 C 2756.6 413.5 2745.4 421.1 2743.4 420.3 C 2740.7 419.3 2742.1 417.1 2747.7 414 C 2755.6 409.5 2763.5 401.3 2767 393.8 C 2769.6 388.4 2770 386.4 2770 379.5 C 2769.9 375.1 2769.3 369.8 2768.5 367.6 C 2767.8 365.5 2767.4 363.2 2767.7 362.4 C 2768.6 360 2770.9 362.1 2772.4 366.8 Z  M 2730.4 418.6 C 2732.4 419.4 2732.5 422.9 2730.5 423.6 C 2728.1 424.6 2725.8 422.2 2727.1 419.9 C 2728.2 417.8 2728.2 417.8 2730.4 418.6 Z " fill="rgb(254,253,248)"/><path d=" M 2722.7 312.7 C 2722.3 319.8 2722 331.2 2722 338.2 L 2722 351 L 2730 351 L 2738 351 L 2738 339.7 C 2738 333.6 2738.3 322.1 2738.7 314.2 L 2739.3 300 L 2731.3 300 L 2723.3 300 L 2722.7 312.7 Z " fill="rgb(254,253,248)"/><path d=" M 2708.3 357.6 C 2706.8 360 2706.8 360.5 2708.1 362.9 C 2711.3 368.7 2718 365.6 2718 358.3 C 2718 355.1 2717.9 355 2714 355 C 2710.8 355 2709.7 355.5 2708.3 357.6 Z " fill="rgb(254,253,248)"/><path d=" M 2742 358.3 C 2742 364.8 2747.6 368.4 2751.3 364.2 C 2754.9 360.2 2751.6 355 2745.5 355 C 2742.2 355 2742 355.2 2742 358.3 Z " fill="rgb(254,253,248)"/><path d=" M 132.4 561.1 C 128.1 562.3 122.2 568.6 120.9 573.4 C 118.8 581.4 121.8 589.3 128.8 594.1 L 132.4 596.5 L 410.2 596.8 L 688.1 597 L 685.6 593.7 C 678.1 583.9 678.1 573.1 685.6 563.3 L 688.1 560 L 411.8 560.1 C 253.6 560.1 134.2 560.6 132.4 561.1 Z " fill="rgb(254,253,248)"/><path d=" M 697.4 561.1 C 693.1 562.3 687.2 568.6 685.9 573.4 C 683.8 581.4 686.8 589.3 693.8 594.1 L 697.4 596.5 L 783 596.5 L 868.6 596.5 L 872.2 594.1 C 878.1 590 880.5 585.6 880.5 578.5 C 880.5 571.4 878.1 567 872.2 562.9 L 868.6 560.5 L 784.6 560.3 C 737 560.2 699.2 560.5 697.4 561.1 Z " fill="rgb(254,253,248)"/><path d=" M 692.5 601.1 C 691.4 601.5 562.2 601.9 405.5 601.9 C 88.8 602 113.8 601.4 103 608.8 C 96.5 613.2 90.7 620.6 88.3 627.5 C 86.7 631.9 86.5 636.5 86.5 663.5 C 86.5 690.5 86.7 695.1 88.3 699.5 C 90.7 706.4 96.5 713.8 103 718.2 C 113.9 725.6 76.3 725 518.6 725 C 903 725 916.7 724.9 918.3 723.2 C 919.4 722 920 719.6 920 716.3 C 920 707.3 928.7 708.1 823.7 707.8 L 731 707.5 L 727.8 704.2 L 724.5 701 L 724.2 666.7 C 723.9 632.8 724 632.5 726.2 628 C 727.9 624.7 729.7 622.9 733 621.2 L 737.4 619 L 825.8 619 L 914.2 619 L 917.1 616.1 C 920.9 612.3 920.9 608.7 917.1 604.9 L 914.2 602 L 891.3 602 C 878.8 602 830.4 602 783.8 602 C 737.3 602 698.1 601.6 696.8 601.1 C 695.6 600.7 693.6 600.6 692.5 601.1 Z  M 697.3 606.2 C 697.5 606.9 697.3 608.5 696.9 609.8 C 693.3 619.4 693.3 699 696.9 714.9 C 697.9 719.4 697.4 721 695 721 C 693.7 721 692.8 719.9 692.1 717.3 C 687.9 702.1 688.3 612.8 692.6 605.8 C 693.4 604.5 696.8 604.9 697.3 606.2 Z " fill="rgb(254,253,248)"/><path d=" M 2012.3 607 C 2011.1 607.5 2009.3 609.1 2008.3 610.6 C 2006.7 613 2006.5 616.2 2006.2 634.2 L 2005.9 655 L 2013.2 655 L 2020.5 655 L 2020.2 641.8 C 2019.8 626.1 2020.3 622.6 2023.5 619.4 L 2025.9 617 L 2159.5 617 C 2249.2 617 2293.8 617.3 2295.1 618 C 2299.1 620.2 2300 624.1 2300 640 L 2300 655 L 2307.1 655 L 2314.1 655 L 2313.8 633.4 L 2313.5 611.8 L 2310.2 608.9 L 2307 606 L 2160.7 606.1 C 2078.7 606.1 2013.5 606.5 2012.3 607 Z " fill="rgb(254,253,248)"/><path d=" M 2026.2 622.2 C 2025.4 623 2025 628.2 2025 639.2 L 2025 655 L 2160.6 655 L 2296.1 655 L 2295.8 639.7 C 2295.6 628.5 2295.1 623.8 2294.1 622.7 C 2292.9 621.1 2282.2 621 2160.1 621 C 2058.2 621 2027.1 621.3 2026.2 622.2 Z " fill="rgb(254,253,248)"/><path d=" M 1970.2 661.1 C 1967.3 662.6 1965.3 664.5 1963.9 667.1 C 1962 670.9 1962 673.1 1962.2 757.7 L 1962.5 844.5 L 1964.7 847.6 C 1969.6 854.5 1953.3 854 2164.5 854 C 2375.7 854 2359.4 854.5 2364.3 847.6 L 2366.5 844.5 L 2366.8 757.7 C 2367 671.7 2367 671 2365 666.9 C 2363.5 664 2361.7 662.3 2358.7 660.9 C 2354.6 659.1 2349.1 659 2164.5 659 L 1974.5 659 L 1970.2 661.1 Z  M 2050.7 678.4 C 2053.2 680.5 2053.5 681.5 2053.5 687 C 2053.5 692.6 2053.2 693.4 2050.6 695.7 C 2047.8 698.1 2047.2 698.2 2036.3 697.8 C 2025.6 697.5 2024.7 697.3 2022.9 695.1 C 2021.5 693.4 2021 691.2 2021 686.8 C 2021 681.9 2021.4 680.5 2023.5 678.5 C 2025.8 676.1 2026.6 676 2036.9 676 C 2047.1 676 2048.1 676.2 2050.7 678.4 Z  M 2301.4 678.9 C 2303.6 681 2304 682.2 2304 687 C 2304 691.3 2303.5 693.4 2301.9 695.4 C 2299.9 697.9 2299.6 698 2287.9 698 C 2273.2 698 2272 697.3 2272 688.1 C 2272 684.8 2272.3 681.4 2272.6 680.5 C 2273.9 677.3 2278.9 676 2289.2 676.2 C 2297.8 676.5 2299.1 676.8 2301.4 678.9 Z  M 2239.8 682.2 C 2241.6 684 2241.2 687.8 2239.1 689 C 2237.8 689.7 2212.2 690 2163 690 C 2113.8 690 2088.2 689.7 2086.9 689 C 2084.8 687.8 2084.4 684 2086.2 682.2 C 2087.9 680.5 2238.1 680.5 2239.8 682.2 Z  M 2064.8 717.5 C 2088 724.8 2103.9 746.8 2104 771.5 C 2104 786.7 2098.4 799.7 2087.1 811.1 C 2075.1 823.1 2060.7 828.7 2044.5 827.7 C 2013.9 825.7 1991 801.5 1991 771.3 C 1991 745.7 2008.1 723.3 2032.6 716.5 C 2041.1 714.2 2055.7 714.6 2064.8 717.5 Z  M 2299.6 717.1 C 2323.7 724.5 2339.9 746.3 2340 771.5 C 2340 786.7 2334.4 799.7 2323.1 811.1 C 2308.4 825.8 2289.4 831.1 2269.6 826 C 2259.2 823.4 2252.9 819.8 2244.4 811.7 C 2226.1 794.4 2221.7 768.3 2233.3 745 C 2239.6 732.2 2254.1 720.5 2268.6 716.5 C 2276.5 714.4 2291.6 714.6 2299.6 717.1 Z  M 2210.1 730.8 L 2213.1 734.1 L 2212.8 763.7 L 2212.5 793.2 L 2209.7 795.6 L 2206.9 798 L 2166.4 798 L 2125.8 798 L 2122.9 795.1 L 2120 792.2 L 2120 763.2 C 2120 735.2 2120.1 734.2 2122.1 731.6 C 2123.3 730.1 2125.2 728.4 2126.4 728 C 2127.5 727.5 2146.2 727.2 2167.8 727.3 L 2207.2 727.5 L 2210.1 730.8 Z  M 2116.8 820.2 C 2118.3 821.7 2118.4 832.4 2117 835.1 C 2115.8 837.2 2112 837.6 2110.2 835.8 C 2109.5 835.1 2109 831.8 2109 828 C 2109 821 2110 819 2113.5 819 C 2114.7 819 2116.1 819.5 2116.8 820.2 Z  M 2138.8 820.2 C 2139.5 820.9 2140 824.2 2140 828 C 2140 835 2139 837 2135.5 837 C 2132 837 2131 835 2131 828 C 2131 821 2132 819 2135.5 819 C 2136.7 819 2138.1 819.5 2138.8 820.2 Z  M 2159.8 820.2 C 2160.5 820.9 2161 824.2 2161 828 C 2161 834.8 2160 837 2156.9 837 C 2153.6 837 2152 834.1 2152 828.4 C 2152 825.3 2152.5 822 2153 820.9 C 2154.2 818.8 2158 818.4 2159.8 820.2 Z  M 2179.8 820.2 C 2181.3 821.7 2181.4 832.4 2180 835.1 C 2178.8 837.2 2175 837.6 2173.2 835.8 C 2172.5 835.1 2172 831.8 2172 828 C 2172 821 2173 819 2176.5 819 C 2177.7 819 2179.1 819.5 2179.8 820.2 Z  M 2201.8 820.2 C 2202.5 820.9 2203 824.2 2203 828 C 2203 835 2202 837 2198.5 837 C 2195 837 2194 835 2194 828 C 2194 821 2195 819 2198.5 819 C 2199.7 819 2201.1 819.5 2201.8 820.2 Z  M 2222.8 820.2 C 2223.5 820.9 2224 824.2 2224 828 C 2224 834.8 2223 837 2219.9 837 C 2216.6 837 2215 834.1 2215 828.4 C 2215 825.3 2215.5 822 2216 820.9 C 2217.2 818.8 2221 818.4 2222.8 820.2 Z " fill="rgb(254,253,248)"/><path d=" M 2026.2 681.2 C 2025.5 681.9 2025 684.5 2025 687.2 C 2025 690.9 2025.4 692.2 2026.9 693 C 2029.7 694.4 2046.3 694.3 2047.8 692.8 C 2048.5 692.1 2049 689.5 2049 687 C 2049 684.5 2048.5 681.9 2047.8 681.2 C 2046.2 679.6 2027.8 679.6 2026.2 681.2 Z " fill="rgb(254,253,248)"/><path d=" M 2276.4 682.4 C 2276.1 683.1 2276 685.9 2276.2 688.6 L 2276.5 693.5 L 2286.9 693.8 C 2298.7 694.1 2300 693.5 2300 688 C 2300 681 2300 681 2287.9 681 C 2279.5 681 2276.8 681.3 2276.4 682.4 Z " fill="rgb(254,253,248)"/><path d=" M 2032 722.3 C 2014.4 728.3 2002 741.3 1997.5 758.5 C 1990 787.3 2009.5 817 2039.3 822.1 C 2071.2 827.5 2101 800.3 2098.6 767.8 C 2097 745.6 2081.7 727.1 2060.5 721.5 C 2051.8 719.3 2039.9 719.6 2032 722.3 Z  M 2054.8 759.6 C 2059.1 762.4 2061.2 767 2060.7 772.8 C 2060.4 777.3 2059.8 778.7 2056.8 781.7 C 2052.4 786.1 2046.2 787.2 2040.7 784.5 C 2029.6 779.3 2030.8 761.5 2042.5 758 C 2046.2 756.9 2051.7 757.6 2054.8 759.6 Z " fill="rgb(254,253,248)"/><path d=" M 2268 722.3 C 2254.6 726.9 2244.3 735.3 2238.3 746.6 C 2227.3 767.2 2230.7 790.7 2247.1 807.2 C 2267.5 827.8 2299.2 827.9 2319.8 807.4 C 2340.4 786.8 2339.8 754 2318.4 733.5 C 2305.7 721.4 2284.4 716.7 2268 722.3 Z  M 2290.7 759 C 2297.5 763.1 2299.5 770.2 2296.1 777.4 C 2290.8 788.2 2275.7 788.3 2270.6 777.5 C 2266.1 768.1 2273.1 757 2283.5 757 C 2285.7 757 2288.9 757.9 2290.7 759 Z " fill="rgb(254,253,248)"/><path d=" M 2126.2 734.2 C 2124.6 735.8 2124.5 788.2 2126 791.1 C 2127 792.9 2128.5 793 2166 793 C 2200 793 2205.1 792.8 2206.4 791.4 C 2207.8 790.1 2208 786.1 2208 763.4 C 2208 747 2207.6 736.1 2207 734.9 C 2206 733.1 2204.5 733 2166.7 733 C 2137.5 733 2127.1 733.3 2126.2 734.2 Z  M 2156 755.6 C 2157.8 757.3 2158.5 759.1 2158.5 761.9 C 2158.5 766.4 2156.8 768.8 2152.3 770.7 C 2149.5 771.8 2148.5 771.8 2145.6 770.6 C 2141.6 768.9 2140 766.4 2140 762 C 2140 757.7 2141.6 755.1 2145.3 753.4 C 2149.3 751.7 2152.8 752.4 2156 755.6 Z  M 2190 754.5 C 2193.5 756.3 2195.5 761.6 2194.1 765.2 C 2192.8 768.7 2188.3 772 2184.9 772 C 2180.7 772 2175.9 767.3 2175.8 763.2 C 2175.6 755.1 2182.6 750.7 2190 754.5 Z " fill="rgb(254,253,248)"/><path d=" M 2144.6 757.6 C 2142.4 759.7 2142.6 764.3 2144.8 766.3 C 2147.1 768.4 2151.4 768.5 2153.4 766.4 C 2155.7 764.2 2155.5 758.3 2153.1 757 C 2150.2 755.5 2146.4 755.8 2144.6 757.6 Z " fill="rgb(254,253,248)"/><path d=" M 2181.2 757.6 C 2179.4 758.8 2179 760 2179.2 762.8 C 2179.9 770.7 2190.1 770.9 2190.8 763.1 C 2191.4 757.1 2186.2 754.1 2181.2 757.6 Z " fill="rgb(254,253,248)"/><path d=" M 1061 685.5 L 1061 698 L 1073.5 698 L 1086 698 L 1086 685.5 L 1086 673 L 1073.5 673 L 1061 673 L 1061 685.5 Z " fill="rgb(254,253,248)"/><path d=" M 1101 686 L 1101 699 L 1114.5 699 L 1128 699 L 1128 686 L 1128 673 L 1114.5 673 L 1101 673 L 1101 686 Z " fill="rgb(254,253,248)"/><path d=" M 1142 686 L 1142 699 L 1155.5 699 L 1169 699 L 1169 686 L 1169 673 L 1155.5 673 L 1142 673 L 1142 686 Z " fill="rgb(254,253,248)"/><path d=" M 1271.1 696.9 C 1269.9 698.1 1269 700.1 1269 701.5 L 1269 704 L 1237.8 704.2 C 1220.6 704.3 1170.2 704.4 1125.8 704.4 C 1061 704.5 1044.8 704.8 1043.8 705.8 C 1042.8 706.8 1042.4 721.5 1042.2 778.5 C 1042 849 1042 850 1044 852 C 1046 854 1046.9 854 1180 854 L 1314 854 L 1315.5 851.6 C 1316.9 849.6 1317 840.5 1316.8 774.2 C 1316.5 703.7 1316.4 699 1314.7 697.3 C 1313.1 695.7 1310.5 695.5 1293 695.2 C 1274 694.9 1273 695 1271.1 696.9 Z  M 1063.8 718.6 C 1066.2 720.3 1066.8 724.8 1064.8 726.8 C 1061.9 729.7 1055 726.9 1055 722.8 C 1055 720.7 1058.4 717 1060.3 717 C 1061 717 1062.6 717.7 1063.8 718.6 Z  M 1241 721.5 C 1242 722.7 1242 723.3 1241 724.5 C 1240 725.7 1237.1 726 1227 726 C 1216.9 726 1214 725.7 1213 724.5 C 1212 723.3 1212 722.7 1213 721.5 C 1214 720.3 1216.9 720 1227 720 C 1237.1 720 1240 720.3 1241 721.5 Z  M 1268 778 L 1268 833 L 1265.5 833 L 1263 833 L 1263 778 L 1263 723 L 1265.5 723 L 1268 723 L 1268 778 Z  M 1157.3 730.9 C 1166.6 734.1 1171.3 737.1 1178 743.9 C 1193.8 760 1197.3 782.1 1187.3 803 C 1183.8 810.3 1172.3 821.7 1164.7 825.3 C 1132.6 840.7 1095.3 820.8 1091.1 786.1 C 1087.8 759.5 1104.9 735.4 1131.1 729.5 C 1138.9 727.7 1149.7 728.3 1157.3 730.9 Z " fill="rgb(254,253,248)"/><path d=" M 1130.1 735.6 C 1107.9 741.6 1093.3 763.7 1096.8 786.2 C 1100.2 808.3 1119.4 824.9 1141.5 825 C 1166.8 825 1187 804.8 1187 779.5 C 1187 749.8 1158.7 727.9 1130.1 735.6 Z  M 1156.3 750.4 C 1176.8 760.4 1180.4 788.9 1163.2 804.1 C 1156.6 809.8 1149.2 812.3 1140 811.8 C 1127.2 811 1117.5 804.5 1112.2 793.2 C 1108.6 785.5 1108.4 774 1111.8 766.4 C 1114.9 759.5 1122.3 752.5 1129.6 749.4 C 1137.6 746 1148.2 746.4 1156.3 750.4 Z " fill="rgb(254,253,248)"/><path d=" M 1132.7 751.4 C 1123 755 1116.2 762.2 1113.4 771.9 C 1109.6 784.9 1116 799.3 1128.4 805.8 C 1132.8 808.1 1134.7 808.5 1142 808.5 C 1148.9 808.5 1151.3 808.1 1154.7 806.2 C 1160.7 803 1165.9 797.5 1168.8 791.2 C 1170.9 786.5 1171.2 784.8 1170.8 778.1 C 1170.1 766.4 1164.4 757.8 1154.2 752.9 C 1148.6 750.1 1138 749.4 1132.7 751.4 Z  M 1150.2 767.6 C 1158.8 774 1157.9 788 1148.6 792.4 C 1141 796 1132.4 793.2 1128.8 786 C 1125.4 779.2 1127.5 771.6 1134 767.2 C 1136.8 765.3 1138.5 764.9 1142.6 765.2 C 1145.5 765.5 1148.8 766.5 1150.2 767.6 Z " fill="rgb(254,253,248)"/><path d=" M 1136 769.7 C 1130.6 773.4 1128.9 778.5 1131.3 784.3 C 1133.1 788.5 1137.3 791 1142.6 791 C 1145.4 791 1147 790.2 1149.6 787.6 C 1152.4 784.8 1153 783.5 1153 779.8 C 1153 774.8 1151.2 771.6 1147 769.5 C 1143.2 767.5 1139 767.6 1136 769.7 Z " fill="rgb(254,253,248)"/><path d=" M 160 731.4 C 160 732.2 158.1 733.8 155.7 734.9 C 145.8 739.7 138.2 749 135.5 759.8 C 133.1 769 133.8 822.3 136.3 829 C 138.8 835.6 144.8 843 151 847.2 C 161.9 854.6 124.3 854 566.6 854 C 951 854 964.7 853.9 966.3 852.2 C 967.4 851 968 848.6 968 845.3 C 968 836.3 976.7 837.1 871.7 836.8 L 779 836.5 L 775.8 833.2 L 772.5 830 L 772.2 795.7 C 771.9 761.8 772 761.5 774.2 757 C 775.9 753.7 777.7 751.9 781 750.2 L 785.4 748 L 873.8 748 L 962.2 748 L 965.1 745.1 C 968.8 741.3 968.9 737.7 965.2 734.1 L 962.5 731.3 L 927.6 730.7 C 908.4 730.3 727.8 730 526.3 730 C 211.7 730 160 730.2 160 731.4 Z  M 745.3 735.2 C 745.5 735.9 745.3 737.5 744.9 738.8 C 741.3 748.4 741.3 828 744.9 843.9 C 745.9 848.4 745.4 850 743 850 C 741.7 850 740.8 848.9 740.1 846.3 C 735.9 831.1 736.3 741.8 740.6 734.8 C 741.4 733.5 744.8 733.9 745.3 735.2 Z " fill="rgb(254,253,248)"/><path d=" M 784.5 754 C 783.4 754.4 781.4 756 780 757.5 L 777.5 760.2 L 777.2 793.6 L 776.9 827 L 779.4 829.5 L 781.9 832 L 867.3 832 L 952.7 832 L 952.3 824.7 C 952.1 820.8 951.8 803 951.8 785.2 L 951.7 753 L 869.1 753.1 C 823.7 753.1 785.6 753.5 784.5 754 Z  M 946 769.5 C 946 770.8 936.3 771 864.5 771 C 792.7 771 783 770.8 783 769.5 C 783 768.2 792.7 768 864.5 768 C 936.3 768 946 768.2 946 769.5 Z  M 927 784.5 C 927 785.8 919.4 786 865 786 C 810.6 786 803 785.8 803 784.5 C 803 783.2 810.6 783 865 783 C 919.4 783 927 783.2 927 784.5 Z  M 946 813.5 C 946 814.8 936.6 815 867.5 815 C 798.4 815 789 814.8 789 813.5 C 789 812.2 798.4 812 867.5 812 C 936.6 812 946 812.2 946 813.5 Z " fill="rgb(254,253,248)"/><path d=" M 1394.9 765.2 C 1392.6 769.2 1384.4 783 1376.8 795.8 C 1369.1 808.6 1362 821 1360.9 823.3 C 1357 832.1 1359.2 841.8 1366.7 847.9 C 1374 853.9 1372.1 853.8 1459.2 854.6 C 1548.5 855.3 1545.5 855.5 1554.1 848.2 C 1559.2 843.8 1561 839.7 1561 832.8 C 1561 826.1 1559.7 823.5 1546.8 802 C 1541 792.4 1533.7 780.2 1530.6 774.9 C 1525.7 766.4 1524.6 765.1 1521.8 764.6 C 1520 764.3 1515.8 762.6 1512.5 761 C 1504.1 756.8 1497.7 756.9 1489 761.2 C 1483.4 764.1 1481.5 764.5 1475 764.5 C 1468.6 764.4 1466.6 764 1461.3 761.2 C 1452.6 756.7 1446.7 756.8 1436.9 761.5 C 1431.2 764.2 1428.3 765 1424 765 C 1419.7 765 1416.8 764.2 1411.1 761.5 C 1400.6 756.4 1399.9 756.6 1394.9 765.2 Z  M 1491.9 780.9 C 1493.2 783.3 1491.1 786.4 1488.5 785.9 C 1485.7 785.3 1484.3 782.5 1485.9 780.6 C 1487.7 778.4 1490.7 778.6 1491.9 780.9 Z  M 1415.1 782 C 1417.3 783.2 1417.7 787.9 1415.8 789.8 C 1415.1 790.5 1413.7 791 1412.5 791 C 1409.6 791 1408 789.1 1408 785.8 C 1408 781.9 1411.4 780.1 1415.1 782 Z  M 1451.8 796.9 C 1453.9 798.2 1452.8 801.5 1450.2 801.8 C 1447.5 802.2 1446.2 799.6 1448 797.5 C 1449.4 795.8 1450 795.7 1451.8 796.9 Z  M 1522.8 799.9 C 1524.9 801.2 1523.8 804.5 1521.2 804.8 C 1518.5 805.2 1517.2 802.6 1519 800.5 C 1520.4 798.8 1521 798.7 1522.8 799.9 Z  M 1399.8 817.9 C 1401.9 819.2 1400.8 822.5 1398.2 822.8 C 1395.5 823.2 1394.2 820.6 1396 818.5 C 1397.4 816.8 1398 816.7 1399.8 817.9 Z  M 1473.1 821 C 1475.3 822.2 1475.7 826.9 1473.8 828.8 C 1473.1 829.5 1471.7 830 1470.5 830 C 1467.6 830 1466 828.1 1466 824.8 C 1466 820.9 1469.4 819.1 1473.1 821 Z  M 1543.5 831 C 1543.5 831.8 1542.7 832.6 1541.8 832.8 C 1540.5 833 1540 832.5 1540 831 C 1540 829.5 1540.5 829 1541.8 829.2 C 1542.7 829.4 1543.5 830.2 1543.5 831 Z  M 1505.4 834.6 C 1506.3 835.4 1507 836.5 1507 837 C 1507 838.1 1504.1 841 1503 841 C 1501.9 841 1499 838.1 1499 837 C 1499 835.9 1501.9 833 1503 833 C 1503.5 833 1504.6 833.7 1505.4 834.6 Z  M 1432 839 C 1432 840.3 1431.3 841 1430 841 C 1428.1 841 1427.3 839 1428.7 837.7 C 1430 836.3 1432 837.1 1432 839 Z " fill="rgb(254,253,248)"/></g></svg>