<?xml version="1.0" encoding="UTF-8" standalone="no"?><!-- Generator: Gravit.io --><svg xmlns="http://www.w3.org/2000/svg" xmlns:xlink="http://www.w3.org/1999/xlink" style="isolation:isolate" viewBox="0 0 624.73 409.6" width="624.73pt" height="409.6pt"><defs><clipPath id="_clipPath_xCdPeQOB6MXGKARb2NIxbFtK4uFtXs08"><rect width="624.73" height="409.6"/></clipPath></defs><g clip-path="url(#_clipPath_xCdPeQOB6MXGKARb2NIxbFtK4uFtXs08)"><path d=" M 458.055 31.049 L 458.055 20.592 C 458.055 20.592 495.351 4.997 532.647 23.355 L 532.647 43.08" fill="rgb(37,37,37)"/><path d=" M 169.358 30.897 L 169.358 20.454 C 169.358 20.454 132.062 4.859 94.766 23.217 L 94.766 42.887" fill="rgb(37,37,37)"/><mask id="_mask_T10cgfLAhByDyYNA9CSGKYnsrg9tVV6W" x="-200%" y="-200%" width="400%" height="400%"><rect x="-200%" y="-200%" width="400%" height="400%" style="fill:white;"/><path d=" M 180.408 34.005 L 440.94 34.005 C 460.873 34.005 535.464 -4.272 568.616 88.774 C 601.768 181.82 653.761 359.514 558.947 390.387 C 501.622 409.035 458.801 259.852 458.801 259.852 L 448.648 226.7" fill="black" stroke="none"/></mask><path d=" M 180.408 34.005 L 440.94 34.005 C 460.873 34.005 535.464 -4.272 568.616 88.774 C 601.768 181.82 653.761 359.514 558.947 390.387 C 501.622 409.035 458.801 259.852 458.801 259.852 L 448.648 226.7" fill="none"/><path d=" M 180.408 34.005 L 440.94 34.005 C 460.873 34.005 535.464 -4.272 568.616 88.774 C 601.768 181.82 653.761 359.514 558.947 390.387 C 501.622 409.035 458.801 259.852 458.801 259.852 L 448.648 226.7" fill="none" mask="url(#_mask_T10cgfLAhByDyYNA9CSGKYnsrg9tVV6W)" vector-effect="non-scaling-stroke" stroke-width="2" stroke="rgb(37,37,37)" stroke-linejoin="round" stroke-linecap="butt" stroke-miterlimit="4"/><mask id="_mask_XL89zL0NCTAP7dDsYkYKs7zk1OYFDWyh" x="-200%" y="-200%" width="400%" height="400%"><rect x="-200%" y="-200%" width="400%" height="400%" style="fill:white;"/><path d=" M 447.004 33.314 L 186.583 33.314 C 166.595 33.314 92.004 -4.962 58.852 88.084 C 25.7 181.13 -26.293 358.824 68.521 389.696 C 125.846 408.344 167.286 259.161 167.286 259.161 L 177.894 230.153" fill="black" stroke="none"/></mask><path d=" M 447.004 33.314 L 186.583 33.314 C 166.595 33.314 92.004 -4.962 58.852 88.084 C 25.7 181.13 -26.293 358.824 68.521 389.696 C 125.846 408.344 167.286 259.161 167.286 259.161 L 177.894 230.153" fill="none"/><path d=" M 447.004 33.314 L 186.583 33.314 C 166.595 33.314 92.004 -4.962 58.852 88.084 C 25.7 181.13 -26.293 358.824 68.521 389.696 C 125.846 408.344 167.286 259.161 167.286 259.161 L 177.894 230.153" fill="none" mask="url(#_mask_XL89zL0NCTAP7dDsYkYKs7zk1OYFDWyh)" vector-effect="non-scaling-stroke" stroke-width="2" stroke="rgb(37,37,37)" stroke-linejoin="round" stroke-linecap="butt" stroke-miterlimit="4"/><circle vector-effect="non-scaling-stroke" cx="410.454427848065" cy="207.36118686630738" r="42.82110087664387" fill="none" stroke-width="1" stroke="rgb(37,37,37)" stroke-linejoin="miter" stroke-linecap="butt" stroke-miterlimit="10"/><circle vector-effect="non-scaling-stroke" cx="215.68748515107194" cy="207.36118686630738" r="42.82110087664387" fill="none" stroke-width="1" stroke="rgb(37,37,37)" stroke-linejoin="miter" stroke-linecap="butt" stroke-miterlimit="10"/><path d=" M 145.737 111.166 C 152.547 109.37 171.72 106.221 173.543 113.334 C 175.367 120.448 175.56 123.777 174.676 131.844 C 173.792 139.911 172.48 141.361 155.862 141.002 C 155.862 141.002 149.052 142.798 141.731 136.32 C 134.41 129.841 130.114 127.355 136.579 120.034 C 143.044 112.713 145.737 111.166 145.737 111.166 Z " fill="rgb(37,37,37)"/><path d=" M 110.541 103.154 C 108.828 96.316 105.941 77.102 113.069 75.376 C 120.196 73.649 123.553 73.483 131.592 74.491 C 139.632 75.5 141.096 76.798 140.502 93.429 C 140.502 93.429 142.215 100.253 135.64 107.491 C 129.065 114.729 126.537 119.053 119.285 112.409 C 112.033 105.765 110.541 103.154 110.541 103.154 Z " fill="rgb(37,37,37)"/><path d=" M 104.339 137.438 C 97.529 139.234 78.342 142.384 76.533 135.284 C 74.723 128.184 74.502 124.827 75.4 116.774 C 76.298 108.721 77.583 107.243 94.214 107.616 C 94.214 107.616 101.024 105.806 108.345 112.285 C 115.666 118.763 119.962 121.263 113.483 128.584 C 107.005 135.905 104.339 137.438 104.339 137.438 Z " fill="rgb(37,37,37)"/><path d=" M 139.535 145.464 C 141.248 152.288 144.135 171.516 137.007 173.242 C 129.88 174.969 126.523 175.121 118.484 174.126 C 110.444 173.132 108.98 171.806 109.574 155.189 C 109.574 155.189 107.861 148.282 114.436 141.127 C 121.011 133.971 123.567 129.634 130.791 136.195 C 138.016 142.757 139.535 145.464 139.535 145.464 Z " fill="rgb(37,37,37)"/><mask id="_mask_5chEcpH7PZWcD7p55zVEUIJbFucYiSBw" x="-200%" y="-200%" width="400%" height="400%"><rect x="-200%" y="-200%" width="400%" height="400%" style="fill:white;"/><line x1="253.674" y1="230.153" x2="372.855" y2="230.153" fill="black" stroke="none"/></mask><line x1="253.674" y1="230.153" x2="372.855" y2="230.153" mask="url(#_mask_5chEcpH7PZWcD7p55zVEUIJbFucYiSBw)" vector-effect="non-scaling-stroke" stroke-width="2" stroke="rgb(37,37,37)" stroke-linejoin="miter" stroke-linecap="butt" stroke-miterlimit="10"/><mask id="_mask_CQtDq3FVLZkBzzQ0VC2JBB6swpIiaVjK" x="-200%" y="-200%" width="400%" height="400%"><rect x="-200%" y="-200%" width="400%" height="400%" style="fill:white;"/><path d=" M 238.424 33.411 L 238.424 107.864 C 238.424 110.557 240.607 112.74 243.3 112.74 L 389.085 112.74 C 391.778 112.74 393.961 110.557 393.961 107.864 L 393.961 34.005 L 238.424 33.411 Z " fill="black" stroke="none"/></mask><path d=" M 238.424 33.411 L 238.424 107.864 C 238.424 110.557 240.607 112.74 243.3 112.74 L 389.085 112.74 C 391.778 112.74 393.961 110.557 393.961 107.864 L 393.961 34.005 L 238.424 33.411 Z " fill="none"/><path d=" M 238.424 33.411 L 238.424 107.864 C 238.424 110.557 240.607 112.74 243.3 112.74 L 389.085 112.74 C 391.778 112.74 393.961 110.557 393.961 107.864 L 393.961 34.005 L 238.424 33.411 Z " fill="none" mask="url(#_mask_CQtDq3FVLZkBzzQ0VC2JBB6swpIiaVjK)" vector-effect="non-scaling-stroke" stroke-width="2" stroke="rgb(37,37,37)" stroke-linejoin="miter" stroke-linecap="butt" stroke-miterlimit="10"/><path d=" M 503.003 64.076 L 489.881 86.799 L 516.126 86.799 L 503.003 64.076 L 503.003 64.076 Z " fill="rgb(37,37,37)"/><circle vector-effect="non-scaling-stroke" cx="546.5150225690143" cy="125.17229969984558" r="13.81325834730444" fill="rgb(37,37,37)"/><rect x="447.06" y="112.74" width="22.101" height="22.101" transform="matrix(1,0,0,1,0,0)" fill="rgb(37,37,37)"/><mask id="_mask_wtWckNiVvcl4oISW0TocbBT9vcx7e1xF" x="-200%" y="-200%" width="400%" height="400%"><rect x="-200%" y="-200%" width="400%" height="400%" style="fill:white;"/><line x1="513.363" y1="179.044" x2="495.406" y2="159.705" fill="black" stroke="none"/></mask><line x1="513.363" y1="179.044" x2="495.406" y2="159.705" mask="url(#_mask_wtWckNiVvcl4oISW0TocbBT9vcx7e1xF)" vector-effect="non-scaling-stroke" stroke-width="2" stroke="rgb(37,37,37)" stroke-linejoin="miter" stroke-linecap="round" stroke-miterlimit="10"/><mask id="_mask_4kbTPAHbYyLoTUuNxtNzj31MJbpuyw5R" x="-200%" y="-200%" width="400%" height="400%"><rect x="-200%" y="-200%" width="400%" height="400%" style="fill:white;"/><line x1="494.895" y1="179.058" x2="512.852" y2="159.719" fill="black" stroke="none"/></mask><line x1="494.895" y1="179.058" x2="512.852" y2="159.719" mask="url(#_mask_4kbTPAHbYyLoTUuNxtNzj31MJbpuyw5R)" vector-effect="non-scaling-stroke" stroke-width="2" stroke="rgb(37,37,37)" stroke-linejoin="miter" stroke-linecap="round" stroke-miterlimit="10"/><mask id="_mask_eNEoTN8Dc8K54RIpU4sdfuD2wWQ8MNkp" x="-200%" y="-200%" width="400%" height="400%"><rect x="-200%" y="-200%" width="400%" height="400%" style="fill:white;"/><path d=" M 427.666 206.077 C 428.047 215.994 420.317 224.343 410.399 224.724 C 400.482 225.106 392.133 217.375 391.751 207.458" fill="black" stroke="none"/></mask><path d=" M 427.666 206.077 C 428.047 215.994 420.317 224.343 410.399 224.724 C 400.482 225.106 392.133 217.375 391.751 207.458" fill="none"/><path d=" M 427.666 206.077 C 428.047 215.994 420.317 224.343 410.399 224.724 C 400.482 225.106 392.133 217.375 391.751 207.458" fill="none" mask="url(#_mask_eNEoTN8Dc8K54RIpU4sdfuD2wWQ8MNkp)" vector-effect="non-scaling-stroke" stroke-width="2" stroke="rgb(37,37,37)" stroke-linejoin="miter" stroke-linecap="butt" stroke-miterlimit="10"/><mask id="_mask_ZjaArbNj7rw3wMYE6k2X0LJoHNYE6I7G" x="-200%" y="-200%" width="400%" height="400%"><rect x="-200%" y="-200%" width="400%" height="400%" style="fill:white;"/><path d=" M 232.899 206.077 C 233.28 215.994 225.55 224.343 215.632 224.724 C 205.715 225.106 197.366 217.375 196.984 207.458" fill="black" stroke="none"/></mask><path d=" M 232.899 206.077 C 233.28 215.994 225.55 224.343 215.632 224.724 C 205.715 225.106 197.366 217.375 196.984 207.458" fill="none"/><path d=" M 232.899 206.077 C 233.28 215.994 225.55 224.343 215.632 224.724 C 205.715 225.106 197.366 217.375 196.984 207.458" fill="none" mask="url(#_mask_ZjaArbNj7rw3wMYE6k2X0LJoHNYE6I7G)" vector-effect="non-scaling-stroke" stroke-width="2" stroke="rgb(37,37,37)" stroke-linejoin="miter" stroke-linecap="round" stroke-miterlimit="10"/><mask id="_mask_kNQyacUcHyN2VwXSfZ0GHSHudxBS8MHD" x="-200%" y="-200%" width="400%" height="400%"><rect x="-200%" y="-200%" width="400%" height="400%" style="fill:white;"/><line x1="274.836" y1="153.849" x2="309.908" y2="153.849" fill="black" stroke="none"/></mask><line x1="274.836" y1="153.849" x2="309.908" y2="153.849" mask="url(#_mask_kNQyacUcHyN2VwXSfZ0GHSHudxBS8MHD)" vector-effect="non-scaling-stroke" stroke-width="2" stroke="rgb(37,37,37)" stroke-linejoin="miter" stroke-linecap="round" stroke-miterlimit="10"/><circle vector-effect="non-scaling-stroke" cx="344.84145069836876" cy="154.1801422291851" r="5.525303338921788" fill="rgb(37,37,37)"/></g></svg>