<svg xmlns="http://www.w3.org/2000/svg" width="450.625" height="364.178" viewBox="0 0 450.625 364.178">
  <g id="Group_131" data-name="Group 131" transform="translate(2.5 2.5)">
    <circle id="Ellipse_26" data-name="Ellipse 26" cx="7.5" cy="7.5" r="7.5" transform="translate(288.125 117.893)" fill="#e2e2e2"/>
    <line id="Line_55" data-name="Line 55" x2="32.5" y2="35.5" transform="translate(279.125 107.893)" fill="none" stroke="#e2e2e2" stroke-miterlimit="10" stroke-width="3" opacity="0.5"/>
    <line id="Line_56" data-name="Line 56" y2="48.13" transform="translate(294.768 101.042)" fill="none" stroke="#e2e2e2" stroke-miterlimit="10" stroke-width="3" opacity="0.5"/>
    <line id="Line_57" data-name="Line 57" x1="48.129" y1="0.376" transform="translate(271.766 125.413)" fill="none" stroke="#e2e2e2" stroke-miterlimit="10" stroke-width="3" opacity="0.5"/>
    <path id="Path_126" data-name="Path 126" d="M697.531,3122.386l16.365-7.279,16.719,6.424,7.279,16.365-6.424,16.719-16.365,7.279-16.719-6.424-7.279-16.365Z" transform="translate(-418.875 -3013.107)" fill="none" stroke="#e2e2e2" stroke-miterlimit="10" stroke-width="3" opacity="0.5"/>
    <path id="Path_127" data-name="Path 127" d="M631.5,3108.5l32-4,19,30-10.321,44.893L634.5,3203.5l-43,6-27-3" transform="translate(-236.875 -3013.107)" fill="none" stroke="#e2e2e2" stroke-linecap="round" stroke-linejoin="round" stroke-width="5"/>
    <path id="Path_128" data-name="Path 128" d="M615.541,3133.205l8.245-2.205,18-1L651,3144.5l-5,25-23,16-24,3H586.5" transform="translate(-227.375 -3013.107)" fill="none" stroke="#e2e2e2" stroke-linecap="round" stroke-linejoin="round" stroke-width="3" opacity="0.5"/>
    <path id="Path_129" data-name="Path 129" d="M752.643,3118.5l-50.5-23.214-14.5,2.214-16.071,9.393L663.429,3128,669,3159.25l8.643,10.25,32,13.214,24-8.214,23-23,4.071-20.5Z" transform="translate(-414.018 -3013.107)" fill="none" stroke="#e2e2e2" stroke-linecap="round" stroke-linejoin="round" stroke-width="5"/>
    <path id="Path_130" data-name="Path 130" d="M696.959,3176.286l54.742-20.864,35.753-32.222" transform="translate(-474.287 -3013.107)" fill="none" stroke="#e2e2e2" stroke-miterlimit="10" stroke-width="3" opacity="0.5"/>
    <path id="Path_131" data-name="Path 131" d="M774.128,3122.386l-21.1-15.493-21.556-15.554" transform="translate(-495.472 -3013.107)" fill="none" stroke="#e2e2e2" stroke-miterlimit="10" stroke-width="3" opacity="0.5"/>
    <path id="Path_132" data-name="Path 132" d="M724.628,3115.107l-6.9-19.821-2.628-54.447" transform="translate(-429.607 -3013.107)" fill="none" stroke="#e2e2e2" stroke-miterlimit="10" stroke-width="3" opacity="0.5"/>
    <path id="Path_133" data-name="Path 133" d="M651,3122.386l23.643-3.886,20.5-23.214" transform="translate(-336.018 -3013.107)" fill="none" stroke="#e2e2e2" stroke-miterlimit="10" stroke-width="3" opacity="0.5"/>
    <path id="Path_134" data-name="Path 134" d="M625.2,3137.9l27.678-6.9,38.23-26.661" transform="translate(-306.181 -3013.107)" fill="none" stroke="#e2e2e2" stroke-miterlimit="10" stroke-width="3" opacity="0.5"/>
    <path id="Path_135" data-name="Path 135" d="M633.556,3154.614l30.031-3.114,33.944,4.857" transform="translate(-320.962 -3013.107)" fill="none" stroke="#e2e2e2" stroke-miterlimit="10" stroke-width="3" opacity="0.5"/>
    <line id="Line_58" data-name="Line 58" x1="43.837" y2="8.411" transform="translate(261.625 197.982)" fill="none" stroke="#e2e2e2" stroke-linecap="round" stroke-linejoin="round" stroke-width="3" opacity="0.5"/>
    <path id="Path_136" data-name="Path 136" d="M706.125,3161.893l-1.462,17.5,10.694,31.7" transform="translate(-409.896 -3013.107)" fill="none" stroke="#e2e2e2" stroke-linecap="round" stroke-linejoin="round" stroke-width="3" opacity="0.5"/>
    <line id="Line_59" data-name="Line 59" y1="25.5" x2="12.214" transform="translate(414.411 91.393)" fill="none" stroke="#e2e2e2" stroke-linecap="round" stroke-linejoin="round" stroke-width="3" opacity="0.5"/>
    <line id="Line_60" data-name="Line 60" y1="10" x2="22" transform="translate(423.625 121.393)" fill="none" stroke="#e2e2e2" stroke-miterlimit="10" stroke-width="3" opacity="0.5"/>
    <line id="Line_61" data-name="Line 61" x2="16.679" y2="9.893" transform="translate(418.625 156.393)" fill="none" stroke="#e2e2e2" stroke-linecap="round" stroke-linejoin="round" stroke-width="3" opacity="0.5"/>
    <line id="Line_62" data-name="Line 62" x2="2" y2="18" transform="translate(395.625 172.393)" fill="none" stroke="#e2e2e2" stroke-linecap="round" stroke-linejoin="round" stroke-width="3" opacity="0.5"/>
    <line id="Line_63" data-name="Line 63" x1="9.643" y2="19" transform="translate(359.125 175.393)" fill="none" stroke="#e2e2e2" stroke-linecap="round" stroke-linejoin="round" stroke-width="3" opacity="0.5"/>
    <line id="Line_64" data-name="Line 64" y1="23.414" transform="translate(339.737 47.893)" fill="none" stroke="#e2e2e2" stroke-linecap="round" stroke-linejoin="round" stroke-width="3" opacity="0.5"/>
    <line id="Line_65" data-name="Line 65" y1="26.414" transform="translate(305.737 19.893)" fill="none" stroke="#e2e2e2" stroke-linecap="round" stroke-linejoin="round" stroke-width="3" opacity="0.5"/>
    <path id="Path_137" data-name="Path 137" d="M774.128,3242.339l-6.628,30.59,6.628,50.572" transform="translate(-531.503 -3013.107)" fill="none" stroke="#e2e2e2" stroke-linecap="round" stroke-linejoin="round" stroke-width="3" opacity="0.5"/>
    <line id="Line_66" data-name="Line 66" x1="46.628" y2="4.429" transform="translate(235.997 255.393)" fill="none" stroke="#e2e2e2" stroke-linecap="round" stroke-linejoin="round" stroke-width="3" opacity="0.5"/>
    <line id="Line_67" data-name="Line 67" x1="45.5" transform="translate(242.625 305.465)" fill="none" stroke="#e2e2e2" stroke-linecap="round" stroke-linejoin="round" stroke-width="3" opacity="0.5"/>
    <line id="Line_68" data-name="Line 68" x1="45.5" y1="6" transform="translate(242.625 330.322)" fill="none" stroke="#e2e2e2" stroke-linecap="round" stroke-linejoin="round" stroke-width="3" opacity="0.5"/>
    <circle id="Ellipse_27" data-name="Ellipse 27" cx="7.5" cy="7.5" r="7.5" transform="translate(142.5 118.857)" fill="#e2e2e2"/>
    <line id="Line_69" data-name="Line 69" x1="32.5" y2="35.5" transform="translate(134 108.857)" fill="none" stroke="#e2e2e2" stroke-miterlimit="10" stroke-width="3" opacity="0.5"/>
    <line id="Line_70" data-name="Line 70" y2="48.13" transform="translate(150.857 102.007)" fill="none" stroke="#e2e2e2" stroke-miterlimit="10" stroke-width="3" opacity="0.5"/>
    <line id="Line_71" data-name="Line 71" y1="0.376" x2="48.129" transform="translate(125.73 126.377)" fill="none" stroke="#e2e2e2" stroke-miterlimit="10" stroke-width="3" opacity="0.5"/>
    <path id="Path_138" data-name="Path 138" d="M877.094,3123.35l-16.365-7.279-16.719,6.424-7.279,16.365,6.424,16.719,16.365,7.279,16.719-6.424,7.279-16.365Z" transform="translate(-710.125 -3013.107)" fill="none" stroke="#e2e2e2" stroke-miterlimit="10" stroke-width="3" opacity="0.5"/>
    <path id="Path_139" data-name="Path 139" d="M738.128,3243.3l-33.464-31.25-38.536-19.75-32.571-34.981L625.2,3105.3l27.929-10,40-23,31.5-30.5,31.5,7.5,18,43,12,12,14.37-12.964,18-43,31.5-7.5,31.5,30.5,40,23,27.929,10-8.357,52.019L908.5,3191.339l-38.536,19.75-33.464,31.25" transform="translate(-564.5 -3013.107)" fill="none" stroke="#e2e2e2" stroke-linecap="round" stroke-linejoin="round" stroke-width="5"/>
    <path id="Path_140" data-name="Path 140" d="M644.671,3087.522l2.589-8.494s56-41.286,59.5-51.143l78.554-14.778,82.551,13.814c3.5,9.857,59.5,51.142,59.5,51.142l2.589,8.5" transform="translate(-564.5 -3013.107)" fill="none" stroke="#e2e2e2" stroke-linecap="round" stroke-linejoin="round" stroke-width="5"/>
    <path id="Path_141" data-name="Path 141" d="M781.406,3212.464H768.013l-5.607,17,7,11,17.719,8.678h.094l18-9.643,7-11-5.607-17H793.219l-6,12Z" transform="translate(-564.5 -3013.107)" fill="none" stroke="#e2e2e2" stroke-linecap="round" stroke-linejoin="round" stroke-width="5"/>
    <path id="Path_142" data-name="Path 142" d="M786.714,3356.464,767.5,3344.393v-19.928l19.672,9.107,19.953-10.072v19.928L787.911,3357.5" transform="translate(-564.5 -3013.107)" fill="none" stroke="#e2e2e2" stroke-linecap="round" stroke-linejoin="round" stroke-width="5"/>
    <path id="Path_143" data-name="Path 143" d="M785.314,3180.357l-22.908,26.678L748.5,3220.464l-21,49-5.5,50.071v33.929l6.5,9,58.953,9.786-.281.036,58.953-10.786,6.5-9v-33.928l-5.5-50.072-21-49-13.906-13.428-22.908-26.679Z" transform="translate(-564.5 -3013.107)" fill="none" stroke="#e2e2e2" stroke-linecap="round" stroke-linejoin="round" stroke-width="5"/>
    <path id="Path_144" data-name="Path 144" d="M943.125,3109.464l-32-4-19,30,10.321,44.893,37.679,24.107,43,6,27-3" transform="translate(-892.125 -3013.107)" fill="none" stroke="#e2e2e2" stroke-linecap="round" stroke-linejoin="round" stroke-width="5"/>
    <path id="Path_145" data-name="Path 145" d="M959.084,3134.169l-8.245-2.2-18-1-9.214,14.5,5,25,23,16,24,3h12.5" transform="translate(-901.625 -3013.107)" fill="none" stroke="#e2e2e2" stroke-linecap="round" stroke-linejoin="round" stroke-width="3" opacity="0.5"/>
    <path id="Path_146" data-name="Path 146" d="M821.982,3119.464l50.5-23.214,14.5,2.214,16.071,9.393,8.143,21.107-5.571,31.25-8.643,10.25-32,13.214-24-8.214-23-23-4.071-20.5Z" transform="translate(-714.982 -3013.107)" fill="none" stroke="#e2e2e2" stroke-linecap="round" stroke-linejoin="round" stroke-width="5"/>
    <path id="Path_147" data-name="Path 147" d="M737.893,3140.069l20.678-11.1,27.742-9.572,29.74,8.607,20.678,11.1" transform="translate(-564.5 -3013.107)" fill="none" stroke="#e2e2e2" stroke-linecap="round" stroke-linejoin="round" stroke-width="3" opacity="0.5"/>
    <path id="Path_148" data-name="Path 148" d="M877.666,3177.25l-54.742-20.864-35.753-32.222" transform="translate(-654.713 -3013.107)" fill="none" stroke="#e2e2e2" stroke-miterlimit="10" stroke-width="3" opacity="0.5"/>
    <path id="Path_149" data-name="Path 149" d="M800.5,3123.35l21.1-15.493,21.556-15.554" transform="translate(-633.528 -3013.107)" fill="none" stroke="#e2e2e2" stroke-miterlimit="10" stroke-width="3" opacity="0.5"/>
    <path id="Path_150" data-name="Path 150" d="M850,3116.071l6.9-19.821,2.628-54.447" transform="translate(-699.393 -3013.107)" fill="none" stroke="#e2e2e2" stroke-miterlimit="10" stroke-width="3" opacity="0.5"/>
    <path id="Path_151" data-name="Path 151" d="M923.625,3123.35l-23.643-3.886-20.5-23.214" transform="translate(-792.982 -3013.107)" fill="none" stroke="#e2e2e2" stroke-miterlimit="10" stroke-width="3" opacity="0.5"/>
    <path id="Path_152" data-name="Path 152" d="M949.426,3138.86l-27.678-6.9-38.23-26.661" transform="translate(-822.819 -3013.107)" fill="none" stroke="#e2e2e2" stroke-miterlimit="10" stroke-width="3" opacity="0.5"/>
    <path id="Path_153" data-name="Path 153" d="M941.069,3155.578l-30.031-3.114-33.944,4.857" transform="translate(-808.038 -3013.107)" fill="none" stroke="#e2e2e2" stroke-miterlimit="10" stroke-width="3" opacity="0.5"/>
    <line id="Line_72" data-name="Line 72" x2="43.837" y2="8.411" transform="translate(140.163 198.946)" fill="none" stroke="#e2e2e2" stroke-linecap="round" stroke-linejoin="round" stroke-width="3" opacity="0.5"/>
    <path id="Path_154" data-name="Path 154" d="M868.5,3162.858l1.462,17.5-10.694,31.7" transform="translate(-719.104 -3013.107)" fill="none" stroke="#e2e2e2" stroke-linecap="round" stroke-linejoin="round" stroke-width="3" opacity="0.5"/>
    <line id="Line_73" data-name="Line 73" x1="12.214" y1="25.5" transform="translate(19 92.357)" fill="none" stroke="#e2e2e2" stroke-linecap="round" stroke-linejoin="round" stroke-width="3" opacity="0.5"/>
    <line id="Line_74" data-name="Line 74" x1="22" y1="10" transform="translate(0 122.357)" fill="none" stroke="#e2e2e2" stroke-linecap="round" stroke-linejoin="round" stroke-width="3" opacity="0.5"/>
    <line id="Line_75" data-name="Line 75" x1="16.679" y2="9.893" transform="translate(10.321 157.357)" fill="none" stroke="#e2e2e2" stroke-linecap="round" stroke-linejoin="round" stroke-width="3" opacity="0.5"/>
    <line id="Line_76" data-name="Line 76" x1="2" y2="18" transform="translate(48 173.357)" fill="none" stroke="#e2e2e2" stroke-linecap="round" stroke-linejoin="round" stroke-width="3" opacity="0.5"/>
    <line id="Line_77" data-name="Line 77" x2="9.643" y2="19" transform="translate(76.857 176.357)" fill="none" stroke="#e2e2e2" stroke-linecap="round" stroke-linejoin="round" stroke-width="3" opacity="0.5"/>
    <line id="Line_78" data-name="Line 78" y1="23.414" transform="translate(105.888 48.857)" fill="none" stroke="#e2e2e2" stroke-linecap="round" stroke-linejoin="round" stroke-width="3" opacity="0.5"/>
    <line id="Line_79" data-name="Line 79" y1="26.414" transform="translate(139.888 20.857)" fill="none" stroke="#e2e2e2" stroke-linecap="round" stroke-linejoin="round" stroke-width="3" opacity="0.5"/>
    <path id="Path_155" data-name="Path 155" d="M800.5,3243.3l6.628,30.59-6.628,50.572" transform="translate(-597.497 -3013.107)" fill="none" stroke="#e2e2e2" stroke-linecap="round" stroke-linejoin="round" stroke-width="3" opacity="0.5"/>
    <line id="Line_80" data-name="Line 80" x2="46.628" y2="4.429" transform="translate(163 256.357)" fill="none" stroke="#e2e2e2" stroke-linecap="round" stroke-linejoin="round" stroke-width="3" opacity="0.5"/>
    <line id="Line_81" data-name="Line 81" x2="45.5" transform="translate(157.5 306.429)" fill="none" stroke="#e2e2e2" stroke-linecap="round" stroke-linejoin="round" stroke-width="3" opacity="0.5"/>
    <line id="Line_82" data-name="Line 82" y1="6" x2="45.5" transform="translate(157.5 331.286)" fill="none" stroke="#e2e2e2" stroke-linecap="round" stroke-linejoin="round" stroke-width="3" opacity="0.5"/>
  </g>
</svg>
