<svg xmlns="http://www.w3.org/2000/svg" width="338.927" height="458" viewBox="0 0 338.927 458">
  <g id="Group_139" data-name="Group 139" transform="translate(-2078.75 -2108.5)">
    <path id="Path_66" data-name="Path 66" d="M2285.143,2445.784H2261.86q-7.193.042-14.386.041" fill="none" stroke="#e2e2e2" stroke-linecap="round" stroke-linejoin="round" stroke-width="4"/>
    <line id="Line_40" data-name="Line 40" x1="26.787" y1="0.001" transform="translate(2285.143 2445.784)" fill="none" stroke="#e2e2e2" stroke-linecap="round" stroke-linejoin="round" stroke-width="4"/>
    <path id="Path_67" data-name="Path 67" d="M2247.555,2275.32q51.864,0,103.727-.03c1.328,0,1.736.261,1.735,1.678-.041,50.207-.1,92.414.013,142.62a25.914,25.914,0,0,1-17.519,24.951,23.859,23.859,0,0,1-7.383,1.261c-5.4.022-10.8.046-16.2-.015" fill="none" stroke="#e2e2e2" stroke-linecap="round" stroke-linejoin="round" stroke-width="4"/>
    <path id="Path_68" data-name="Path 68" d="M2247.474,2445.824q-7.229,0-14.458-.039c-1.168-.006-1.4.367-1.393,1.444q.045,25.292.007,50.585a23.44,23.44,0,0,1-15.113,22.287,23.681,23.681,0,0,1-31.922-18.814,30.677,30.677,0,0,1-.23-4.105c0-16.531-.025-33.061.039-49.591.006-1.545-.464-1.834-1.882-1.81-4.972.084-9.946.046-14.919.03a25.5,25.5,0,0,1-25.505-22.3,28.442,28.442,0,0,1-.153-3.83c-.007-50.255,0-92.509-.035-142.763,0-1.3.336-1.632,1.635-1.63q52.005.055,104.01.029" fill="none" stroke="#e2e2e2" stroke-linecap="round" stroke-linejoin="round" stroke-width="4"/>
    <path id="Path_69" data-name="Path 69" d="M2304.9,2177.359a99.79,99.79,0,0,1,35.356,35.274,90.108,90.108,0,0,1,12.443,38.991c.174,2.129.181,4.256.3,6.383.041.754-.218,1.051-.956,1-.377-.028-.757,0-1.136,0H2247.313" fill="none" stroke="#e2e2e2" stroke-linecap="round" stroke-linejoin="round" stroke-width="4"/>
    <path id="Path_70" data-name="Path 70" d="M2247.474,2161.666a111.062,111.062,0,0,1,36.928,6.149" fill="none" stroke="#e2e2e2" stroke-linecap="round" stroke-linejoin="round" stroke-width="4"/>
    <path id="Path_71" data-name="Path 71" d="M2198.7,2202.748a8.672,8.672,0,0,0-8.73,8.748,8.838,8.838,0,0,0,8.819,8.866,8.952,8.952,0,0,0,8.793-8.812A8.83,8.83,0,0,0,2198.7,2202.748Z" fill="none" stroke="#e2e2e2" stroke-linecap="round" stroke-linejoin="round" stroke-width="4"/>
    <path id="Path_72" data-name="Path 72" d="M2128.044,2337.259c0,16.293.048,32.586-.019,48.879-.041,9.982-4.61,17.376-13.549,21.731-14.4,7.016-31.5-2.453-33.508-18.356a25.921,25.921,0,0,1-.218-3.255q0-49.022.006-98.043a23.6,23.6,0,0,1,18.736-23.442c13.823-3.136,27.777,7.331,28.454,21.478.24,5.009.092,10.038.1,15.058Q2128.056,2319.283,2128.044,2337.259Z" fill="none" stroke="#e2e2e2" stroke-linecap="round" stroke-linejoin="round" stroke-width="4"/>
    <line id="Line_41" data-name="Line 41" y2="458" transform="translate(2247 2108.5)" fill="none" stroke="#e2e2e2" stroke-miterlimit="10" stroke-width="3" stroke-dasharray="20"/>
    <path id="Path_73" data-name="Path 73" d="M2296.242,2206a5.593,5.593,0,0,0-5.655,5.5,5.67,5.67,0,0,0,5.591,5.608,5.566,5.566,0,0,0,5.522-5.544A5.468,5.468,0,0,0,2296.242,2206Zm20.465,5.5-10.1,17.5H2286.4l-10.1-17.5,10.1-17.5H2306.6Z" fill="none" stroke="#e2e2e2" stroke-linecap="round" stroke-linejoin="round" stroke-width="3"/>
    <g id="Group_25" data-name="Group 25">
      <path id="Path_74" data-name="Path 74" d="M2293.052,2170.329l11.994-4.613-1.8-12.727,11.994-4.613-1.794-12.73,12-4.619" fill="none" stroke="#e2e2e2" stroke-linecap="round" stroke-linejoin="round" stroke-width="4"/>
    </g>
    <path id="Path_75" data-name="Path 75" d="M2247.555,2296.518h65.758a13.294,13.294,0,0,1,13.294,13.295v99.321a13.3,13.3,0,0,1-13.294,13.295H2247" fill="none" stroke="#e2e2e2" stroke-linecap="round" stroke-linejoin="round" stroke-width="4"/>
    <path id="Path_76" data-name="Path 76" d="M2310.506,2393.466c-1.411-.07-2.727-.128-4.041-.2a5.823,5.823,0,0,0-5.882,5.515c-.02,5.367.889,3.909-4.007,5.847-3.579,1.416-2.884,1.874-5.231-1.334-1.914-2.617-4.385-2.3-6.884-2.251-.643.013-1.323.867-1.892,1.43-3.671,3.64-2.356,3.283-6.888,1.312-3.681-1.6-3.392-.915-2.813-4.8.481-3.229-1.5-4.732-3.324-6.4-.6-.548-1.988-.288-3.016-.3-4.2-.058-3.4.607-4.885-3.32-1.682-4.449-2.063-3.2,1.642-6.51a5.692,5.692,0,0,0,.2-8.38c-3.528-3.528-3.162-2.209-1.292-6.444,1.81-4.1.859-3.678,5.091-3.084,3.2.448,4.528-1.686,6.266-3.357.421-.4.3-1.456.294-2.21-.027-5.276-.707-4.1,3.957-5.939,3.48-1.375,3.032-1.724,5.26,1.388,1.894,2.645,4.375,2.365,6.871,2.285.735-.024,1.5-1,2.145-1.645,2.863-2.821,2.857-2.85,6.469-1.208,3.874,1.76,3.582.867,3,5.175-.429,3.186,1.625,4.641,3.448,6.154.809.671,2.559.409,3.845.258,1.979-.231,2.924.47,3.588,2.383,1.642,4.732,1.719,4.665-1.978,8.141a4.744,4.744,0,0,0-1.037,2.237c-.8,3.09.692,5.235,3.056,6.959a2.113,2.113,0,0,1,.635,3.134c-.692,1.252-1.172,2.618-1.783,3.917A10.676,10.676,0,0,1,2310.506,2393.466Zm-26.759-22.673a8.811,8.811,0,1,0,6.166,16.508,8.745,8.745,0,0,0,5.132-11.35A8.645,8.645,0,0,0,2283.747,2370.793Z" fill="none" stroke="#e2e2e2" stroke-miterlimit="10" stroke-width="3"/>
    <circle id="Ellipse_19" data-name="Ellipse 19" cx="21.231" cy="21.231" r="21.231" transform="translate(2370.98 2331.365)" fill="none" stroke="#e2e2e2" stroke-miterlimit="10" stroke-width="3"/>
    <line id="Line_42" data-name="Line 42" y2="34.962" transform="translate(2403.013 2299.242)" fill="none" stroke="#e2e2e2" stroke-linecap="round" stroke-linejoin="round" stroke-width="4"/>
    <line id="Line_43" data-name="Line 43" y1="35.541" transform="translate(2380.664 2299.242)" fill="none" stroke="#e2e2e2" stroke-linecap="round" stroke-linejoin="round" stroke-width="4"/>
    <path id="Path_77" data-name="Path 77" d="M2391.093,2263.112a19.288,19.288,0,0,0-8.086,1.77,19.378,19.378,0,0,1-10.646,22.534,19.37,19.37,0,1,0,18.732-24.3Z" fill="none" stroke="#e2e2e2" stroke-linecap="round" stroke-linejoin="round" stroke-width="4"/>
    <line id="Line_44" data-name="Line 44" y2="35.004" transform="translate(2402.813 2370.774)" fill="none" stroke="#e2e2e2" stroke-linejoin="round" stroke-width="4"/>
    <line id="Line_45" data-name="Line 45" y1="34.119" transform="translate(2380.465 2370.428)" fill="none" stroke="#e2e2e2" stroke-linejoin="round" stroke-width="4"/>
    <line id="Line_46" data-name="Line 46" x1="21.604" transform="translate(2381.582 2386.58)" fill="none" stroke="#e2e2e2" stroke-miterlimit="10" stroke-width="4"/>
    <path id="Path_78" data-name="Path 78" d="M2391.838,2402.738c-13.165,0-23.838,9.006-23.838,20.114,0,9.144,7.233,16.857,17.134,19.3v-17.439a7.077,7.077,0,1,1,14.154,0v17.244c9.516-2.64,16.389-10.193,16.389-19.106C2415.677,2411.744,2406.99,2402.738,2391.838,2402.738Z" fill="none" stroke="#e2e2e2" stroke-linejoin="round" stroke-width="4"/>
    <line id="Line_47" data-name="Line 47" x1="21.604" transform="translate(2380.292 2317.239)" fill="none" stroke="#e2e2e2" stroke-miterlimit="10" stroke-width="4"/>
    <path id="Path_79" data-name="Path 79" d="M2270.355,2525l8.26-37.527,23.24-.039,7.962,37.567Z" fill="none" stroke="#e2e2e2" stroke-linecap="round" stroke-linejoin="round" stroke-width="3"/>
    <g id="Group_26" data-name="Group 26">
      <path id="Path_80" data-name="Path 80" d="M2282.349,2487.433l16-8.327-16-8.33,16-8.327-16-8.333,16-8.333" fill="none" stroke="#e2e2e2" stroke-linecap="round" stroke-linejoin="round" stroke-width="3"/>
    </g>
    <rect id="Rectangle_29" data-name="Rectangle 29" width="36" height="20" transform="translate(2275.5 2314.5)" fill="none" stroke="#e2e2e2" stroke-miterlimit="10" stroke-width="3"/>
    <line id="Line_48" data-name="Line 48" y2="9.218" transform="translate(2272.5 2319.5)" fill="none" stroke="#e2e2e2" stroke-linecap="round" stroke-miterlimit="10" stroke-width="4"/>
    <rect id="Rectangle_30" data-name="Rectangle 30" width="19" height="20" transform="translate(2292 2314)" fill="#e2e2e2" opacity="0.5"/>
    <path id="Path_81" data-name="Path 81" d="M2247.313,2259H2143.869c-1.938,0-1.952,0-1.906-1.853.581-23.123,9-43.1,24.292-60.286a100.605,100.605,0,0,1,28.052-21.926l.841-.8c-5.723-10.241-10.388-19.514-16.073-29.776a6.712,6.712,0,0,1-.989-2.316,4.316,4.316,0,0,1,2.742-4.786,4.248,4.248,0,0,1,5.265,2.086c2.416,4.257,4.77,8.55,7.143,12.832,3.586,6.467,6.189,11.924,9.747,18.407l.086.11a110.076,110.076,0,0,1,34.528-8.6q4.971-.422,9.877-.433" fill="none" stroke="#e2e2e2" stroke-linecap="round" stroke-linejoin="round" stroke-width="4"/>
  </g>
</svg>
