<svg xmlns="http://www.w3.org/2000/svg" width="289.091" height="344.854" viewBox="0 0 289.091 344.854">
  <g id="Group_137" data-name="Group 137" transform="translate(-1399.739 -1321.607)">
    <path id="Path_21" data-name="Path 21" d="M1651.57,1516.4l8.109,39.875v89.786l-8.5,17.9h-11.472V1516.132Z" fill="none" stroke="#e2e2e2" stroke-miterlimit="10" stroke-width="5"/>
    <path id="Path_22" data-name="Path 22" d="M1628.036,1516.132v147.829s-9.357-2.971-9.357-15.328V1540.276C1618.679,1529.276,1622.466,1516.132,1628.036,1516.132Z" fill="#e2e2e2"/>
    <line id="Line_19" data-name="Line 19" y2="143.357" transform="translate(1681.07 1504.75)" fill="#e2e2e2" stroke="#e2e2e2" stroke-linecap="round" stroke-miterlimit="10" stroke-width="12"/>
    <path id="Path_23" data-name="Path 23" d="M1435.339,1516.271l-8.109,39.875v89.786l8.5,17.9H1447.2V1516Z" fill="none" stroke="#e2e2e2" stroke-miterlimit="10" stroke-width="5"/>
    <path id="Path_24" data-name="Path 24" d="M1458.873,1516v147.828s9.357-2.97,9.357-15.328V1540.146C1468.23,1529.146,1464.443,1516,1458.873,1516Z" fill="#e2e2e2"/>
    <line id="Line_20" data-name="Line 20" y2="143.357" transform="translate(1405.839 1504.621)" fill="#e2e2e2" stroke="#e2e2e2" stroke-linecap="round" stroke-miterlimit="10" stroke-width="12"/>
    <path id="Path_25" data-name="Path 25" d="M1542.409,1346.953" fill="#e2e2e2"/>
    <path id="Path_26" data-name="Path 26" d="M1402.286,1477.5s-3.133-153.393,139.041-153.393,144.994,134.925,144.994,153.159c0,0,.32,11.091-5.251,11.091s-5.57-10.857-5.57-10.857c0-44-32.5-130.547-133.091-130.547S1413.5,1450,1413.5,1477c0,0-.714,11.357-5.357,11.357C1401.5,1488.357,1402.286,1477.5,1402.286,1477.5Z" fill="none" stroke="#e2e2e2" stroke-miterlimit="10" stroke-width="5"/>
    <line id="Line_21" data-name="Line 21" y2="18" transform="translate(1479.5 1577)" fill="none" stroke="#e2e2e2" stroke-linecap="round" stroke-miterlimit="10" stroke-width="3"/>
    <line id="Line_22" data-name="Line 22" y2="55" transform="translate(1495.5 1559)" fill="none" stroke="#e2e2e2" stroke-linecap="round" stroke-miterlimit="10" stroke-width="5"/>
    <line id="Line_23" data-name="Line 23" y2="42" transform="translate(1511.5 1565)" fill="none" stroke="#e2e2e2" stroke-linecap="round" stroke-miterlimit="10" stroke-width="5"/>
    <line id="Line_24" data-name="Line 24" y2="55" transform="translate(1527.5 1559)" fill="none" stroke="#e2e2e2" stroke-linecap="round" stroke-miterlimit="10" stroke-width="5"/>
    <line id="Line_25" data-name="Line 25" y2="30" transform="translate(1543.5 1571)" fill="none" stroke="#e2e2e2" stroke-linecap="round" stroke-miterlimit="10" stroke-width="5"/>
    <line id="Line_26" data-name="Line 26" y2="55" transform="translate(1559.5 1559)" fill="none" stroke="#e2e2e2" stroke-linecap="round" stroke-miterlimit="10" stroke-width="5"/>
    <line id="Line_27" data-name="Line 27" y2="18" transform="translate(1575.5 1577)" fill="none" stroke="#e2e2e2" stroke-linecap="round" stroke-miterlimit="10" stroke-width="5"/>
    <line id="Line_28" data-name="Line 28" y2="55" transform="translate(1591.5 1559)" fill="none" stroke="#e2e2e2" stroke-linecap="round" stroke-miterlimit="10" stroke-width="5"/>
    <line id="Line_29" data-name="Line 29" y2="18" transform="translate(1607.5 1577.5)" fill="none" stroke="#e2e2e2" stroke-linecap="round" stroke-miterlimit="10" stroke-width="5"/>
  </g>
</svg>
