<?xml version="1.0" standalone="no"?>
<!DOCTYPE svg PUBLIC "-//W3C//DTD SVG 20010904//EN"
 "http://www.w3.org/TR/2001/REC-SVG-20010904/DTD/svg10.dtd">
<svg version="1.0" xmlns="http://www.w3.org/2000/svg"
 width="1920.000000pt" height="1080.000000pt" viewBox="0 0 1920.000000 1080.000000"
 preserveAspectRatio="xMidYMid meet">

<g transform="translate(0.000000,1080.000000) scale(0.100000,-0.100000)"
fill="#000000" stroke="none">
<path d="M9100 6400 c-270 -96 -449 -165 -457 -176 -9 -12 -13 -54 -13 -133
l0 -116 223 -79 c122 -44 235 -86 250 -93 42 -21 57 -68 57 -178 0 -52 2 -95
3 -95 2 0 80 27 172 60 92 33 176 60 185 60 13 0 262 -86 363 -126 17 -6 18 1
16 107 -3 120 4 149 41 169 18 10 518 190 527 190 1 0 3 51 3 113 0 75 -4 119
-12 130 -14 19 -859 327 -893 326 -11 0 -220 -72 -465 -159z"/>
<path d="M10401 5934 c-239 -85 -443 -162 -453 -171 -16 -15 -18 -31 -16 -137
l3 -120 225 -81 c252 -91 265 -96 282 -128 8 -16 14 -155 18 -480 4 -252 10
-460 12 -463 3 -2 88 -34 189 -70 l183 -66 450 159 c247 87 458 165 469 173
18 15 19 30 18 235 -1 345 -12 938 -17 962 -2 13 -17 29 -32 37 -60 31 -842
306 -869 305 -15 0 -223 -70 -462 -155z"/>
<path d="M7775 5931 c-492 -175 -474 -168 -486 -198 -12 -32 -11 -64 1 -60 6
1 100 -149 210 -333 110 -184 204 -336 209 -338 4 -1 94 86 200 194 141 145
195 194 203 186 8 -8 -41 -65 -186 -213 -127 -130 -195 -207 -192 -216 4 -8
94 -162 201 -342 107 -180 195 -333 195 -340 0 -36 -39 23 -223 332 l-201 338
-192 -192 c-112 -112 -196 -189 -203 -185 -21 14 -11 -13 13 -31 13 -11 216
-88 450 -172 l426 -153 181 63 181 64 -7 472 -8 473 29 26 c20 18 112 56 289
118 l260 92 0 112 c-1 98 -3 115 -20 132 -26 25 -848 320 -889 319 -17 -1
-215 -67 -441 -148z"/>
<path d="M7288 5297 c2 -194 7 -432 10 -530 l7 -177 191 192 191 193 -201 337
-202 337 4 -352z"/>
<path d="M9063 5461 c-243 -86 -451 -165 -462 -175 -21 -19 -31 -94 -12 -82 5
3 100 -147 212 -335 l202 -340 199 198 c157 157 200 195 210 185 10 -10 -29
-54 -189 -215 l-201 -202 205 -343 c142 -236 202 -347 195 -354 -7 -7 -71 93
-206 318 -108 181 -200 336 -206 344 -8 12 -48 -23 -203 -178 -106 -106 -196
-190 -200 -186 -4 4 -7 3 -7 -3 0 -5 8 -17 18 -26 22 -20 846 -317 880 -317
45 0 905 309 925 332 17 20 18 45 12 387 -11 711 -15 811 -35 828 -18 16 -864
324 -884 322 -6 0 -210 -71 -453 -158z"/>
<path d="M8585 4755 c3 -236 8 -476 11 -533 l6 -103 186 192 c103 105 188 194
189 198 2 3 -87 157 -197 341 l-200 335 5 -430z"/>
<path d="M10470 4290 c0 -22 4 -28 15 -24 8 4 15 14 15 24 0 10 -7 20 -15 24
-11 4 -15 -2 -15 -24z"/>
<path d="M10991 4237 l-145 -51 -125 43 -126 44 -63 -23 -62 -23 0 -68 c0
-105 -8 -111 -280 -207 l-225 -79 0 -43 0 -42 239 -87 c198 -71 243 -91 260
-114 20 -27 21 -43 27 -435 4 -224 7 -432 8 -463 l1 -56 188 -67 188 -67 454
160 c250 89 461 168 470 176 17 17 17 42 4 813 -6 333 -9 385 -23 402 -13 15
-618 242 -640 239 -3 0 -71 -24 -150 -52z"/>
<path d="M8348 4227 l-147 -52 -108 39 c-59 21 -119 41 -133 43 -29 5 -601
-195 -631 -220 -18 -16 -29 -94 -11 -83 4 2 99 -149 211 -336 l203 -341 197
197 c108 108 200 196 204 196 29 0 -18 -57 -188 -229 l-194 -196 205 -344
c130 -219 201 -348 195 -354 -11 -11 -6 -19 -236 368 -98 165 -180 302 -182
304 -7 9 -399 -389 -393 -399 8 -14 34 -23 470 -180 217 -79 406 -142 420
-142 14 1 99 28 190 60 l165 60 -3 457 c-4 482 -2 500 42 528 11 7 135 53 274
102 225 79 253 92 250 110 -3 16 -48 36 -270 116 -147 53 -274 102 -283 109
-21 18 -35 76 -35 151 0 61 -2 67 -25 77 -14 7 -29 12 -33 11 -4 0 -73 -24
-154 -52z"/>
<path d="M7314 3600 c3 -179 6 -417 6 -530 l0 -205 196 196 195 195 -192 325
c-106 178 -197 329 -202 334 -6 6 -7 -105 -3 -315z"/>
<path d="M9888 3847 c-37 -14 -35 -21 7 -34 34 -11 35 -11 35 18 0 32 -2 32
-42 16z"/>
<path d="M9750 3798 c-14 -5 -76 -28 -138 -49 l-113 -40 -116 41 c-65 22 -124
40 -133 40 -8 0 -145 -45 -305 -101 -309 -108 -335 -122 -335 -180 0 -17 4
-28 9 -24 6 3 101 -148 213 -335 l203 -340 197 197 c157 157 200 195 210 185
10 -10 -28 -53 -186 -211 -139 -139 -197 -204 -193 -215 3 -8 92 -159 196
-335 105 -175 193 -326 197 -334 3 -8 1 -18 -4 -21 -6 -3 -101 147 -212 334
-111 187 -205 340 -209 340 -3 0 -91 -85 -195 -189 -105 -105 -193 -188 -198
-185 -15 10 -8 -13 10 -28 21 -20 849 -318 881 -318 13 0 224 71 469 158 338
119 448 162 459 179 12 18 13 104 5 601 -6 373 -13 586 -20 599 -8 14 -95 50
-322 131 -170 62 -318 112 -328 111 -9 0 -28 -5 -42 -11z"/>
<path d="M8616 3094 c2 -203 7 -443 10 -533 l6 -164 187 193 c102 107 185 200
185 207 -1 10 -338 584 -381 647 -10 16 -11 -47 -7 -350z"/>
</g>
</svg>
