<svg xmlns="http://www.w3.org/2000/svg" width="477" height="278.25" viewBox="0 0 477 278.25">
  <g id="Group_138" data-name="Group 138" transform="translate(-2018 -1359.25)">
    <path id="Path_11" data-name="Path 11" d="M2083.72,1413.962h-29.946v22.972" fill="none" stroke="#e2e2e2" stroke-linecap="round" stroke-linejoin="round" stroke-width="5"/>
    <path id="Path_12" data-name="Path 12" d="M2356.208,1413.958h29.946v22.972" fill="none" stroke="#e2e2e2" stroke-linecap="round" stroke-linejoin="round" stroke-width="5"/>
    <path id="Path_13" data-name="Path 13" d="M2083.519,1590.229h-29.946v-22.972" fill="none" stroke="#e2e2e2" stroke-linecap="round" stroke-linejoin="round" stroke-width="5"/>
    <path id="Path_14" data-name="Path 14" d="M2356.007,1590.233h29.946v-22.972" fill="none" stroke="#e2e2e2" stroke-linecap="round" stroke-linejoin="round" stroke-width="5"/>
    <circle id="Ellipse_5" data-name="Ellipse 5" cx="5.036" cy="5.036" r="5.036" transform="translate(2063.072 1421.113)" fill="#e2e2e2"/>
    <text id="REC" transform="translate(2078.223 1417.576)" fill="#e2e2e2" font-size="11.079" font-family="SegoeUI, Segoe UI"><tspan x="0" y="12">REC</tspan></text>
    <line id="Line_13" data-name="Line 13" y2="18.734" transform="translate(2217.536 1488.007)" fill="none" stroke="#e2e2e2" stroke-linecap="round" stroke-miterlimit="10" stroke-width="5"/>
    <line id="Line_14" data-name="Line 14" x1="18.734" transform="translate(2208.213 1496.933)" fill="none" stroke="#e2e2e2" stroke-linecap="round" stroke-miterlimit="10" stroke-width="5"/>
    <path id="Path_15" data-name="Path 15" d="M2343.83,1427.364h24.89v9.95h-24.89" fill="none" stroke="#e2e2e2" stroke-linecap="round" stroke-miterlimit="10" stroke-width="3"/>
    <line id="Line_15" data-name="Line 15" y2="6.218" transform="translate(2341.827 1429.227)" fill="none" stroke="#e2e2e2" stroke-linecap="round" stroke-miterlimit="10" stroke-width="3"/>
    <rect id="Rectangle_16" data-name="Rectangle 16" width="16.704" height="9.877" transform="translate(2351.964 1427.364)" fill="#e2e2e2"/>
    <rect id="Rectangle_17" data-name="Rectangle 17" width="362" height="212.279" rx="7.429" transform="translate(2039 1398.111)" fill="none" stroke="#e2e2e2" stroke-miterlimit="10" stroke-width="5"/>
    <rect id="Rectangle_18" data-name="Rectangle 18" width="472" height="261.5" rx="7.429" transform="translate(2020.5 1373.5)" fill="none" stroke="#e2e2e2" stroke-miterlimit="10" stroke-width="5"/>
    <circle id="Ellipse_6" data-name="Ellipse 6" cx="25.5" cy="25.5" r="25.5" transform="translate(2423 1473)" fill="none" stroke="#e2e2e2" stroke-miterlimit="10" stroke-width="5"/>
    <circle id="Ellipse_7" data-name="Ellipse 7" cx="10.5" cy="10.5" r="10.5" transform="translate(2438.5 1440.5)" fill="#e2e2e2"/>
    <circle id="Ellipse_8" data-name="Ellipse 8" cx="10.5" cy="10.5" r="10.5" transform="translate(2439 1539)" fill="#e2e2e2"/>
    <line id="Line_16" data-name="Line 16" x2="25.032" transform="translate(2437.305 1365.25)" fill="#e2e2e2" stroke="#e2e2e2" stroke-linecap="round" stroke-miterlimit="10" stroke-width="12"/>
    <path id="Path_16" data-name="Path 16" d="M2231.8,1490.121a21.983,21.983,0,0,0,3.189-5.334c2.561-5.959,7.2-29.932,12.664-42.8s27.323-22.77,27.323-22.77v22.77c21.453,0,27.323,25.152,27.323,25.152h17.653s8.028,25.659-20.307,25.659c-16.143,0-17.383.555-17.383.555s-8.343,26.043-8.7,47.69,0,68.625,0,68.625H2221.25v-37.532" fill="none" stroke="#e2e2e2" stroke-linecap="round" stroke-linejoin="round" stroke-width="5" opacity="0.8"/>
    <path id="Path_17" data-name="Path 17" d="M2187.371,1573.04v35.611h-52.655v-62.809c0-16.686,2-30.539,10.35-34.645s13.374-8.8,46.747-8.8q3.263,0,6.2-.144" fill="none" stroke="#e2e2e2" stroke-linecap="round" stroke-linejoin="round" stroke-width="5" opacity="0.8"/>
    <line id="Line_17" data-name="Line 17" y1="65.373" transform="translate(2247.954 1544.29)" fill="none" stroke="#e2e2e2" stroke-linecap="round" stroke-linejoin="round" stroke-width="5" opacity="0.8"/>
    <line id="Line_18" data-name="Line 18" y1="65.373" transform="translate(2161.69 1544.29)" fill="none" stroke="#e2e2e2" stroke-linecap="round" stroke-linejoin="round" stroke-width="5" opacity="0.8"/>
    <path id="Path_18" data-name="Path 18" d="M2247.954,1557.041s-13.279,9.426-42.5,9.426-43.762-9.426-43.762-9.426" fill="none" stroke="#e2e2e2" stroke-linecap="round" stroke-linejoin="round" stroke-width="5" opacity="0.8"/>
    <path id="Path_19" data-name="Path 19" d="M2285.6,1513.69s-32.866-18.694-47.978-28.453-25.837-37.555-30.864-45.381-20.275-26.624-50.678-34.587c-13.223-3.463-41.243-2.2-41.243-2.2" fill="none" stroke="#e2e2e2" stroke-linecap="round" stroke-linejoin="round" stroke-width="5" opacity="0.8"/>
    <path id="Path_20" data-name="Path 20" d="M2137.716,1514.437c-13.178,0-19.88-12.829-19.88-21.089a21.6,21.6,0,0,1,5.616-14.5s-23.952,9.656-16.095,27.9c7.941,18.435,30.359,12.9,30.359,12.9" fill="none" stroke="#e2e2e2" stroke-linecap="round" stroke-linejoin="round" stroke-width="5" opacity="0.8"/>
  </g>
</svg>
