<svg xmlns="http://www.w3.org/2000/svg" width="373.005" height="469.097" viewBox="0 0 373.005 469.097">
  <g id="Group_141" data-name="Group 141" transform="translate(-1333 -2972)">
    <rect id="Rectangle_36" data-name="Rectangle 36" width="174" height="167" rx="15.232" transform="translate(1335.5 2974.5)" fill="none" stroke="#e2e2e2" stroke-linecap="round" stroke-linejoin="round" stroke-width="5"/>
    <rect id="Rectangle_37" data-name="Rectangle 37" width="144" height="138.207" rx="15.232" transform="translate(1350.5 2986.896)" fill="none" stroke="#e2e2e2" stroke-linecap="round" stroke-linejoin="round" stroke-width="4"/>
    <circle id="Ellipse_20" data-name="Ellipse 20" cx="4" cy="4" r="4" transform="translate(1470.5 3101.5)" fill="#e2e2e2"/>
    <ellipse id="Ellipse_21" data-name="Ellipse 21" cx="3" cy="6" rx="3" ry="6" transform="matrix(0.807, -0.591, 0.591, 0.807, 1670.033, 3350.934)" fill="#e2e2e2"/>
    <ellipse id="Ellipse_22" data-name="Ellipse 22" cx="3" cy="6" rx="3" ry="6" transform="matrix(0.807, -0.591, 0.591, 0.807, 1680.033, 3338.934)" fill="#e2e2e2"/>
    <circle id="Ellipse_23" data-name="Ellipse 23" cx="4" cy="4" r="4" transform="translate(1471 3001)" fill="#e2e2e2"/>
    <circle id="Ellipse_24" data-name="Ellipse 24" cx="4" cy="4" r="4" transform="translate(1367.5 3101.5)" fill="#e2e2e2"/>
    <circle id="Ellipse_25" data-name="Ellipse 25" cx="4" cy="4" r="4" transform="translate(1368 3001)" fill="#e2e2e2"/>
    <line id="Line_50" data-name="Line 50" y1="22.705" transform="translate(1567.821 3189.291)" fill="none" stroke="#e2e2e2" stroke-linecap="round" stroke-linejoin="round" stroke-width="4"/>
    <path id="Path_104" data-name="Path 104" d="M1575.5,3255.5h-25.536a21.464,21.464,0,0,1-21.464-21.464v-2.447a17.089,17.089,0,0,1,17.089-17.089H1575.5" fill="none" stroke="#e2e2e2" stroke-linecap="round" stroke-linejoin="round" stroke-width="4"/>
    <path id="Path_105" data-name="Path 105" d="M1582.826,3255.135h11.031c4.643,0,14.979,1.861,15.811,16.613h-35.691l-3.263-7.179-2.893,7.179h-33.865s-1.059-9.4,2.535-13" fill="none" stroke="#e2e2e2" stroke-linecap="round" stroke-linejoin="round" stroke-width="4"/>
    <path id="Path_106" data-name="Path 106" d="M1552.468,3274.2s-6.124,22.954,22.954,22.954,36.833.176,36.833.176" fill="none" stroke="#e2e2e2" stroke-linecap="round" stroke-linejoin="round" stroke-width="4"/>
    <path id="Path_107" data-name="Path 107" d="M1644.452,3251.736l-3.848,5.121a5.562,5.562,0,0,1-7.787,1.1l-4.7-3.531a5.561,5.561,0,0,1-1.1-7.787l3.935-5.235" fill="none" stroke="#e2e2e2" stroke-linecap="round" stroke-linejoin="round" stroke-width="4"/>
    <path id="Path_108" data-name="Path 108" d="M1573.219,3166.807l-15.483-8.373a15.942,15.942,0,0,0-21.606,6.438l-.89,1.647,115.822,78.363" fill="none" stroke="#e2e2e2" stroke-linecap="round" stroke-linejoin="round" stroke-width="4"/>
    <path id="Path_109" data-name="Path 109" d="M1656.856,3251.07A17.5,17.5,0,0,1,1671,3268.241v.544a20.466,20.466,0,0,1-20.465,20.465h-4.509a13.526,13.526,0,0,1-13.526-13.526" fill="none" stroke="#e2e2e2" stroke-linecap="round" stroke-linejoin="round" stroke-width="4"/>
    <rect id="Rectangle_38" data-name="Rectangle 38" width="8" height="20.397" rx="4" transform="matrix(0.859, 0.511, -0.511, 0.859, 1597.356, 3213.049)" fill="#e2e2e2"/>
    <path id="Path_110" data-name="Path 110" d="M1645.862,3347.081a7.955,7.955,0,0,1-11.24.489h0a7.956,7.956,0,0,1-.488-11.24l23.037-25.132a7.956,7.956,0,0,1,11.24-.488h0a7.955,7.955,0,0,1,.489,11.239" fill="none" stroke="#e2e2e2" stroke-linecap="round" stroke-linejoin="round" stroke-width="4"/>
    <path id="Path_111" data-name="Path 111" d="M1645.1,3363.126" fill="none" stroke="#e2e2e2" stroke-linecap="round" stroke-linejoin="round" stroke-width="4"/>
    <path id="Path_112" data-name="Path 112" d="M1666.049,3379.715l2.387,2.152a11.228,11.228,0,0,0,15.857-.821l12.479-13.842a28.1,28.1,0,0,0-2.055-39.679l-6.678-6.021a14.1,14.1,0,0,0-19.912,1.031l-26.268,29.459c-3.951,5.356-2.653,9.386,4.136,17.772l.995,1.306c7.353,8.191,8.634,11.562,15.779,5.53s6.081-7.679,3.671-10.731-3.884-4.689-3.884-4.689" fill="none" stroke="#e2e2e2" stroke-linecap="round" stroke-linejoin="round" stroke-width="4"/>
    <path id="Path_113" data-name="Path 113" d="M1680.37,3268l3.407-4.826a22.157,22.157,0,0,0-5.321-30.88l-8.469-5.979-1.932-1.5,7.342-13.382a18.118,18.118,0,0,0-4.583-25.21l-58.763-40.682a18.117,18.117,0,0,0-25.209,4.583L1575.5,3166.5" fill="none" stroke="#e2e2e2" stroke-linecap="round" stroke-linejoin="round" stroke-width="4"/>
    <path id="Path_114" data-name="Path 114" d="M1641.809,3233.037" fill="none" stroke="#e2e2e2" stroke-linecap="round" stroke-linejoin="round" stroke-width="4"/>
    <path id="Path_115" data-name="Path 115" d="M1544.933,3309.326a34.312,34.312,0,0,1,18.847-9.075" fill="none" stroke="#e2e2e2" stroke-linecap="round" stroke-linejoin="round" stroke-width="4"/>
    <path id="Path_116" data-name="Path 116" d="M1663.375,3390.623l-14.419,40.017a10.046,10.046,0,0,1-12.843,6.074l-4.662-1.669A17.243,17.243,0,0,1,1621.026,3413l4.434-12.389" fill="none" stroke="#e2e2e2" stroke-linecap="round" stroke-linejoin="round" stroke-width="4"/>
    <path id="Path_117" data-name="Path 117" d="M1625.807,3398.769l-5.556-1.977c-2.529-.9-3.629-4.3-2.458-7.588l6.221-19.485c1.139-3.2,4.054-5.084,6.513-4.21l5.683,2.023" fill="none" stroke="#e2e2e2" stroke-linecap="round" stroke-linejoin="round" stroke-width="4"/>
    <path id="Path_118" data-name="Path 118" d="M1531.627,3368.267c-2.808.843-6.215,1.807-10.3,2.876-12.827,3.357-13.555-12.719-13.555-12.719l-7.721-43.78a10.045,10.045,0,0,1,8.149-11.638l4.875-.86a17.247,17.247,0,0,1,17.325,7.383" fill="none" stroke="#e2e2e2" stroke-linecap="round" stroke-linejoin="round" stroke-width="4"/>
    <path id="Path_119" data-name="Path 119" d="M1630.25,3344.5a32.75,32.75,0,0,1-32.75-32.75v-7.46" fill="none" stroke="#e2e2e2" stroke-linecap="round" stroke-linejoin="round" stroke-width="4"/>
    <line id="Line_51" data-name="Line 51" x1="9.768" y1="52.416" transform="translate(1488.129 3317.244)" fill="none" stroke="#e2e2e2" stroke-linecap="round" stroke-linejoin="round" stroke-width="5"/>
    <line id="Line_52" data-name="Line 52" x1="16.23" y2="43.841" transform="translate(1656.981 3394.044)" fill="none" stroke="#e2e2e2" stroke-linecap="round" stroke-linejoin="round" stroke-width="5"/>
    <rect id="Rectangle_39" data-name="Rectangle 39" width="17.334" height="23" rx="7.544" transform="translate(1568.547 3323.065) rotate(6.818)" fill="none" stroke="#e2e2e2" stroke-linecap="round" stroke-linejoin="round" stroke-width="4"/>
    <path id="Path_120" data-name="Path 120" d="M1630.25,3328.291l-13.385-10.533a8.114,8.114,0,0,1-1.359-11.394l4.188-5.322a8.115,8.115,0,0,1,11.394-1.359l14.011,11.025" fill="none" stroke="#e2e2e2" stroke-linecap="round" stroke-linejoin="round" stroke-width="4"/>
    <line id="Line_53" data-name="Line 53" x1="3.499" y1="5.639" transform="translate(1520.814 3253.438)" fill="none" stroke="#e2e2e2" stroke-linecap="round" stroke-linejoin="round" stroke-width="4"/>
    <line id="Line_54" data-name="Line 54" x1="11.591" y1="18.682" transform="translate(1536.838 3279.263)" fill="none" stroke="#e2e2e2" stroke-linecap="round" stroke-linejoin="round" stroke-width="4"/>
    <path id="Path_121" data-name="Path 121" d="M1522.849,3241.868l-5.764,5.372a8.723,8.723,0,0,1-12.329-.434h0a8.724,8.724,0,0,1,.434-12.33" fill="none" stroke="#e2e2e2" stroke-linecap="round" stroke-linejoin="round" stroke-width="4"/>
    <path id="Path_122" data-name="Path 122" d="M1532.541,3208.986a8.724,8.724,0,0,1,10.658-.963" fill="none" stroke="#e2e2e2" stroke-linecap="round" stroke-linejoin="round" stroke-width="4"/>
    <path id="Path_123" data-name="Path 123" d="M1522.849,3191.786s-1.778,1.353-9.563,6.533-9.786,3.181-11.781.813a64.4,64.4,0,0,1-3.842-5.461c-.807-1.206-.073-4.276,2.122-6.149,4.715-4.022,11.318-8.321,16.815-12.266,8.332-5.979,9.441-2.183,16.774,7.4l.976,1.514c6.7,9.752,7.771,14.27,2.99,19.785l-31.255,29.942a15.461,15.461,0,0,1-21.857-.588l-10.166-10.728a25.891,25.891,0,0,1,.986-36.6l21.975-20.823a7.394,7.394,0,0,1,10.453.281l4.448,4.694" fill="none" stroke="#e2e2e2" stroke-linecap="round" stroke-linejoin="round" stroke-width="4"/>
    <rect id="Rectangle_40" data-name="Rectangle 40" width="12.832" height="23" rx="6.24" transform="translate(1533.702 3315.326) rotate(11.147)" fill="none" stroke="#e2e2e2" stroke-linecap="round" stroke-linejoin="round" stroke-width="4"/>
    <path id="Path_124" data-name="Path 124" d="M1533.833,3346.394c.06,6.65,2.483,22.722,23.667,28.606a409.748,409.748,0,0,0,50.2,10.138" fill="none" stroke="#e2e2e2" stroke-linecap="round" stroke-linejoin="round" stroke-width="4"/>
    <path id="Path_125" data-name="Path 125" d="M1451.646,3073.311c-1.789-.088-3.456-.162-5.122-.255a7.381,7.381,0,0,0-7.456,6.99c-.025,6.8,1.127,4.954-5.079,7.411-4.536,1.795-3.655,2.375-6.63-1.691-2.426-3.317-5.559-2.919-8.726-2.854-.815.017-1.677,1.1-2.4,1.814-4.653,4.613-2.987,4.16-8.731,1.662-4.666-2.03-4.3-1.159-3.566-6.085.61-4.092-1.907-6-4.213-8.106-.76-.694-2.519-.364-3.823-.383-5.317-.074-4.311.769-6.192-4.208-2.131-5.639-2.615-4.051,2.082-8.251a7.217,7.217,0,0,0,.249-10.623c-4.473-4.472-4.009-2.8-1.638-8.167,2.293-5.2,1.088-4.662,6.452-3.91,4.054.569,5.74-2.136,7.944-4.254.533-.513.376-1.846.371-2.8-.034-6.687-.9-5.194,5.016-7.528,4.411-1.742,3.843-2.186,6.668,1.76,2.4,3.353,5.545,3,8.709,2.9.932-.03,1.9-1.272,2.719-2.085,3.628-3.575,3.621-3.613,8.2-1.532,4.91,2.232,4.54,1.1,3.8,6.56-.543,4.039,2.061,5.882,4.372,7.8,1.024.85,3.242.518,4.873.327,2.509-.294,3.706.595,4.548,3.02,2.081,6,2.179,5.913-2.508,10.319a6.024,6.024,0,0,0-1.314,2.836c-1.009,3.917.877,6.635,3.874,8.82,1.5,1.094,1.715,2.325.8,3.973-.876,1.587-1.485,3.319-2.259,4.965A13.536,13.536,0,0,1,1451.646,3073.311Zm-33.918-28.738a11.168,11.168,0,1,0,7.816,20.924,11.084,11.084,0,0,0,6.505-14.387A10.957,10.957,0,0,0,1417.728,3044.573Z" fill="none" stroke="#e2e2e2" stroke-miterlimit="10" stroke-width="4"/>
    <path id="Path_156" data-name="Path 156" d="M1570.769,3301.881s-12.769,11.119.052,11.237c14.054.13,14.322-8.828,14.322-8.828" fill="none" stroke="#e2e2e2" stroke-linecap="round" stroke-linejoin="round" stroke-width="4"/>
  </g>
</svg>
