<svg xmlns="http://www.w3.org/2000/svg" width="440.586" height="347.357" viewBox="0 0 440.586 347.357">
  <g id="Group_142" data-name="Group 142" transform="translate(-2047 -3026.5)">
    <path id="Path_82" data-name="Path 82" d="M2304.515,3190.61v-41.179c0-2.808-1.9-5.616-4.679-5.616a5.447,5.447,0,0,0-5.081,5.08c0,6.151,7.686,5.282,7.686,5.282h9l-.438.029h9s7.686.869,7.686-5.282a5.446,5.446,0,0,0-5.081-5.079c-2.784,0-4.679,2.807-4.679,5.615v41.179" fill="none" stroke="#e2e2e2" stroke-miterlimit="10" stroke-width="3"/>
    <path id="Rectangle_31" data-name="Rectangle 31" d="M0,0H35.564a0,0,0,0,1,0,0V18.6a2.929,2.929,0,0,1-2.929,2.929H2.929A2.929,2.929,0,0,1,0,18.6V0A0,0,0,0,1,0,0Z" transform="translate(2293.124 3191.107)" fill="none" stroke="#e2e2e2" stroke-miterlimit="10" stroke-width="3"/>
    <path id="Path_83" data-name="Path 83" d="M2292.948,3190.439c0-27.609-21.526-23.866-21.526-52.878a39.308,39.308,0,0,1,39.308-39.308l.176.2a39.306,39.306,0,0,1,39.307,39.307c0,29.013-21.525,25.269-21.525,52.878Z" fill="none" stroke="#e2e2e2" stroke-miterlimit="10" stroke-width="3"/>
    <path id="Rectangle_32" data-name="Rectangle 32" d="M0,0H20.941a0,0,0,0,1,0,0V4.184a2.429,2.429,0,0,1-2.429,2.429H2.429A2.429,2.429,0,0,1,0,4.184V0A0,0,0,0,1,0,0Z" transform="translate(2299.845 3212.133)" fill="none" stroke="#e2e2e2" stroke-miterlimit="10" stroke-width="3"/>
    <g id="Group_28" data-name="Group 28">
      <g id="Group_27" data-name="Group 27">
        <path id="Path_84" data-name="Path 84" d="M2258.655,3112.588l-6.173-3.039a2.612,2.612,0,0,0-2.307,4.686l6.173,3.039a2.612,2.612,0,0,0,2.307-4.686Z" fill="#e2e2e2"/>
      </g>
    </g>
    <g id="Group_30" data-name="Group 30">
      <g id="Group_29" data-name="Group 29">
        <path id="Path_85" data-name="Path 85" d="M2264.908,3164.152a2.611,2.611,0,0,0-3.693,0l-4.865,4.865a2.611,2.611,0,1,0,3.693,3.693l4.865-4.865A2.611,2.611,0,0,0,2264.908,3164.152Z" fill="#e2e2e2"/>
      </g>
    </g>
    <g id="Group_32" data-name="Group 32">
      <g id="Group_31" data-name="Group 31">
        <path id="Path_86" data-name="Path 86" d="M2253.419,3140.108h-6.881a2.612,2.612,0,0,0,0,5.223h6.881a2.612,2.612,0,1,0,0-5.223Z" fill="#e2e2e2"/>
      </g>
    </g>
    <g id="Group_34" data-name="Group 34">
      <g id="Group_33" data-name="Group 33">
        <path id="Path_87" data-name="Path 87" d="M2278.379,3097.008a2.611,2.611,0,0,0,.178-3.689l-4.625-5.094a2.612,2.612,0,1,0-3.867,3.511l4.625,5.094A2.611,2.611,0,0,0,2278.379,3097.008Z" fill="#e2e2e2"/>
      </g>
    </g>
    <g id="Group_36" data-name="Group 36">
      <g id="Group_35" data-name="Group 35">
        <path id="Path_88" data-name="Path 88" d="M2359.727,3115.567a2.612,2.612,0,0,0,3.5,1.19l6.173-3.04a2.612,2.612,0,1,0-2.307-4.686l-6.172,3.04A2.611,2.611,0,0,0,2359.727,3115.567Z" fill="#e2e2e2"/>
      </g>
    </g>
    <g id="Group_38" data-name="Group 38">
      <g id="Group_37" data-name="Group 37">
        <path id="Path_89" data-name="Path 89" d="M2354.663,3167.328l4.866,4.865a2.611,2.611,0,0,0,3.693-3.693l-4.866-4.866a2.612,2.612,0,0,0-3.693,3.694Z" fill="#e2e2e2"/>
      </g>
    </g>
    <g id="Group_40" data-name="Group 40">
      <g id="Group_39" data-name="Group 39">
        <path id="Path_90" data-name="Path 90" d="M2363.541,3142.2a2.612,2.612,0,0,0,2.611,2.612h6.881a2.611,2.611,0,0,0,0-5.223h-6.881A2.611,2.611,0,0,0,2363.541,3142.2Z" fill="#e2e2e2"/>
      </g>
    </g>
    <g id="Group_42" data-name="Group 42">
      <g id="Group_41" data-name="Group 41">
        <path id="Path_91" data-name="Path 91" d="M2344.881,3096.313l4.625-5.094a2.611,2.611,0,0,0-3.866-3.511l-4.626,5.094a2.612,2.612,0,0,0,3.867,3.511Z" fill="#e2e2e2"/>
      </g>
    </g>
    <g id="Group_44" data-name="Group 44">
      <g id="Group_43" data-name="Group 43">
        <path id="Path_92" data-name="Path 92" d="M2309.776,3088.858a2.611,2.611,0,0,0,2.612-2.611v-6.881a2.611,2.611,0,1,0-5.223,0v6.881A2.611,2.611,0,0,0,2309.776,3088.858Z" fill="#e2e2e2"/>
      </g>
    </g>
    <rect id="Rectangle_33" data-name="Rectangle 33" width="356.086" height="25.61" rx="6.036" transform="translate(2129 3029)" fill="none" stroke="#e2e2e2" stroke-miterlimit="10" stroke-width="5"/>
    <path id="Path_93" data-name="Path 93" d="M2231.893,3297.5h199.964" fill="none" stroke="#e2e2e2" stroke-miterlimit="10" stroke-width="5"/>
    <path id="Path_94" data-name="Path 94" d="M2456.071,3054.61v205.28s2.429,37.61-12.571,37.61c-10,0-9.714-23.431-9.714-23.431H2231.893" fill="none" stroke="#e2e2e2" stroke-miterlimit="10" stroke-width="5"/>
    <line id="Line_49" data-name="Line 49" y2="32.242" transform="translate(2163.072 3054.61)" fill="none" stroke="#e2e2e2" stroke-miterlimit="10" stroke-width="5"/>
    <g id="Group_45" data-name="Group 45">
      <path id="Path_95" data-name="Path 95" d="M2191.939,3181.14v29.549c0,13.412-8.41,26.014-22.584,33.391a73.443,73.443,0,0,1-69.009-1.405c-9.583-5.542-15.982-13.729-18.306-22.775" fill="none" stroke="#e2e2e2" stroke-linecap="round" stroke-linejoin="round" stroke-width="5"/>
      <path id="Path_96" data-name="Path 96" d="M2099.217,3152.165s9.313,32.669,92.733,28.975q4.152-.183,8.55-.49v-44.327c0-31.417-28.073-41.552-50.641-41.552s-54.754-4.371-54.754,20.043v3.562" fill="none" stroke="#e2e2e2" stroke-linecap="round" stroke-linejoin="round" stroke-width="5"/>
      <path id="Path_97" data-name="Path 97" d="M2071.48,3162.519c-1.643-12.3-4.542-47.64,16.4-47.64l5.862-.065" fill="none" stroke="#e2e2e2" stroke-linecap="round" stroke-linejoin="round" stroke-width="5"/>
      <path id="Path_98" data-name="Path 98" d="M2103.649,3159.316s-3.848.6-13.983,10.738a26.907,26.907,0,0,0-2.889,3.42" fill="none" stroke="#e2e2e2" stroke-linecap="round" stroke-linejoin="round" stroke-width="5"/>
      <path id="Path_99" data-name="Path 99" d="M2082,3205.107a9.5,9.5,0,0,1-9.5,9.5h0a9.5,9.5,0,0,1-9.5-9.5v-26.784a9.5,9.5,0,0,1,9.5-9.5h0a9.5,9.5,0,0,1,9.5,9.5" fill="none" stroke="#e2e2e2" stroke-linecap="round" stroke-linejoin="round" stroke-width="4"/>
      <path id="Path_100" data-name="Path 100" d="M2110,3325.5h-51.393a9.106,9.106,0,0,1-9.107-9.107v-33.107a36.786,36.786,0,0,1,36.786-36.786h5.357" fill="none" stroke="#e2e2e2" stroke-linecap="round" stroke-linejoin="round" stroke-width="5"/>
      <path id="Path_101" data-name="Path 101" d="M2179.714,3246.5h3a36.786,36.786,0,0,1,36.786,36.786v35.25a6.964,6.964,0,0,1-6.964,6.964h-58.107" fill="none" stroke="#e2e2e2" stroke-linecap="round" stroke-linejoin="round" stroke-width="5"/>
      <path id="Path_102" data-name="Path 102" d="M2121.5,3260.5l7,19h12.143l7.16-19Z" fill="none" stroke="#e2e2e2" stroke-linecap="round" stroke-linejoin="round" stroke-width="4"/>
      <path id="Path_103" data-name="Path 103" d="M2128.75,3290h11.572l4.178,37.5,3.3,31.214-14.3,13.143L2118,3359Z" fill="none" stroke="#e2e2e2" stroke-linecap="round" stroke-linejoin="round" stroke-width="4"/>
    </g>
  </g>
</svg>
