<svg xmlns="http://www.w3.org/2000/svg" width="518.919" height="423.311" viewBox="0 0 518.919 423.311">
  <g id="Group_145" data-name="Group 145" transform="translate(-1981.985 -4759.636)">
    <path id="Path_176" data-name="Path 176" d="M2394.8,4910.643l13.152-27.527a7.008,7.008,0,0,0-3.255-9.359L2232.653,4790.5l-11.54-5.585c-9.092-4.4-11.675-2.629-21.693,2.019s-29.692,14.98-29.692,14.98l-76.236-36.893c-10.491-5.077-15-4.671-21.772,9.317l-11.508,23.78-14.688-7.108c-4.2-2.03-6.249.429-10.311,8.822l-6.938,14.337c-2.539,5.246.6,5.9,6.892,8.947,1.378.666,17.48,8.574,41.86,20.552a40.4,40.4,0,0,1,72.514,35.632l112.991,55.526a40.394,40.394,0,0,1,72.5,35.624c4.928,2.42,13.008,6.362,18.944,9.26a6.751,6.751,0,0,0,9.044-3.139Z" fill="none" stroke="#e2e2e2" stroke-miterlimit="10" stroke-width="5"/>
    <path id="Path_177" data-name="Path 177" d="M2375.91,4971.366c5.24,2.572,8.383,4.113,8.958,4.391,6.294,3.046,8.753,5.1,11.292-.146l11.6-23.977,15.643-32.325c4.062-8.393,4.716-11.529.52-13.56l-14.688-7.108" fill="none" stroke="#e2e2e2" stroke-linecap="round" stroke-miterlimit="10" stroke-width="5"/>
    <path id="Path_178" data-name="Path 178" d="M2216.88,4796.248l96.652,46.772a6.5,6.5,0,0,1,3.018,8.676l-10.926,22.578a6.5,6.5,0,0,1-8.676,3.017l-111.857-54.131a6.5,6.5,0,0,1-.44-11.459l26.131-15.219A6.492,6.492,0,0,1,2216.88,4796.248Z" fill="none" stroke="#e2e2e2" stroke-miterlimit="10" stroke-width="5"/>
    <rect id="Rectangle_60" data-name="Rectangle 60" width="53.613" height="38.073" rx="8.518" transform="translate(2334.067 4852.958) rotate(25.824)" fill="none" stroke="#e2e2e2" stroke-miterlimit="10" stroke-width="5"/>
    <circle id="Ellipse_58" data-name="Ellipse 58" cx="29.526" cy="29.526" r="29.526" transform="translate(2269.34 4922.928)" fill="none" stroke="#e2e2e2" stroke-miterlimit="10" stroke-width="4"/>
    <circle id="Ellipse_59" data-name="Ellipse 59" cx="29.526" cy="29.526" r="29.526" transform="translate(2083.975 4831.499)" fill="none" stroke="#e2e2e2" stroke-miterlimit="10" stroke-width="4"/>
    <path id="Rectangle_61" data-name="Rectangle 61" d="M0,0H25a3.75,3.75,0,0,1,3.75,3.75V17.229A3.75,3.75,0,0,1,25,20.979H0a0,0,0,0,1,0,0V0A0,0,0,0,1,0,0Z" transform="translate(2073.412 4770.842) rotate(25.824)" fill="none" stroke="#e2e2e2" stroke-miterlimit="10" stroke-width="5"/>
    <circle id="Ellipse_60" data-name="Ellipse 60" cx="14.763" cy="14.763" r="14.763" transform="translate(2284.103 4937.691)" fill="none" stroke="#e2e2e2" stroke-miterlimit="10" stroke-width="5" opacity="0.8"/>
    <circle id="Ellipse_61" data-name="Ellipse 61" cx="14.763" cy="14.763" r="14.763" transform="translate(2098.738 4846.261)" fill="none" stroke="#e2e2e2" stroke-miterlimit="10" stroke-width="5" opacity="0.8"/>
    <line id="Line_145" data-name="Line 145" x1="12.862" y2="26.577" transform="translate(2292.435 4939.166)" fill="none" stroke="#e2e2e2" stroke-miterlimit="10" stroke-width="3" opacity="0.8"/>
    <line id="Line_146" data-name="Line 146" x2="26.577" y2="12.862" transform="translate(2285.227 4945.854)" fill="none" stroke="#e2e2e2" stroke-miterlimit="10" stroke-width="3" opacity="0.8"/>
    <line id="Line_147" data-name="Line 147" x1="12.862" y2="26.577" transform="translate(2107.07 4847.736)" fill="none" stroke="#e2e2e2" stroke-miterlimit="10" stroke-width="3" opacity="0.8"/>
    <line id="Line_148" data-name="Line 148" x2="26.577" y2="12.862" transform="translate(2099.862 4854.424)" fill="none" stroke="#e2e2e2" stroke-miterlimit="10" stroke-width="3" opacity="0.8"/>
    <line id="Line_149" data-name="Line 149" x2="62.559" y2="27.196" transform="translate(2436.371 4937.398)" fill="none" stroke="#e2e2e2" stroke-linecap="round" stroke-miterlimit="10" stroke-width="3"/>
    <line id="Line_150" data-name="Line 150" x2="62.559" y2="27.196" transform="translate(2414.204 4984.252)" fill="none" stroke="#e2e2e2" stroke-linecap="round" stroke-miterlimit="10" stroke-width="3"/>
    <line id="Line_151" data-name="Line 151" x2="31.742" y2="13.641" transform="translate(2427.733 4952.45)" fill="none" stroke="#e2e2e2" stroke-linecap="round" stroke-miterlimit="10" stroke-width="3"/>
    <path id="Path_179" data-name="Path 179" d="M2493,5073.369c-29.19-13.555-69.648-32.435-75.6-35.7-9.461-5.19-6.11-14.552-14.076-18.2-9.3-4.256-17.13,4.633-35.853-2.76s-178.136-85.849-187.6-91.039-6.111-14.552-14.077-18.2c-9.3-4.255-17.13,4.633-35.853-2.759S1984,4833.073,1984,4833.073" fill="none" stroke="#e2e2e2" stroke-linecap="round" stroke-miterlimit="10" stroke-width="3"/>
    <line id="Line_152" data-name="Line 152" x2="343" transform="translate(2069.5 5159.5)" fill="none" stroke="#e2e2e2" stroke-linecap="round" stroke-linejoin="round" stroke-width="10" opacity="0.3"/>
    <path id="Path_180" data-name="Path 180" d="M2114,5136.441v24.709l-.167.291-12.141,21.505L2089,5161.441v-25Z" fill="#e2e2e2"/>
  </g>
</svg>
