<svg xmlns="http://www.w3.org/2000/svg" width="491.714" height="392.5" viewBox="0 0 491.714 392.5">
  <g id="Group_143" data-name="Group 143" transform="translate(-2003.786 -3858.5)">
    <path id="Path_162" data-name="Path 162" d="M2407.719,4164.229h76.9c4.63,0,8.384-3.168,8.384-7.076V3868.076c0-3.908-3.754-7.076-8.384-7.076H2014.67c-4.631,0-8.384,3.168-8.384,7.076v289.077c0,3.908,3.753,7.076,8.384,7.076h356.08" fill="none" stroke="#e2e2e2" stroke-miterlimit="10" stroke-width="5"/>
    <path id="Path_163" data-name="Path 163" d="M2212.714,3891.147H2042.7c-7.473,0-13.528,5.3-13.528,11.832V4002.3" fill="none" stroke="#e2e2e2" stroke-linecap="round" stroke-miterlimit="10" stroke-width="5"/>
    <path id="Path_164" data-name="Path 164" d="M2380.739,4130.9h75.831c7.465,0,13.529-5.295,13.529-11.832V3902.979c0-6.528-6.064-11.832-13.529-11.832H2301.235" fill="none" stroke="#e2e2e2" stroke-linecap="round" stroke-miterlimit="10" stroke-width="5"/>
    <line id="Line_137" data-name="Line 137" x2="49.449" transform="translate(2292.156 4130.9)" fill="none" stroke="#e2e2e2" stroke-miterlimit="10" stroke-width="5"/>
    <path id="Path_165" data-name="Path 165" d="M2029.169,3992.092v126.976c0,6.537,6.055,11.832,13.528,11.832h175.046" fill="none" stroke="#e2e2e2" stroke-miterlimit="10" stroke-width="5"/>
    <line id="Line_138" data-name="Line 138" x2="74.546" transform="translate(2207.987 3876.867)" fill="none" stroke="#e2e2e2" stroke-miterlimit="10" stroke-width="5"/>
    <circle id="Ellipse_55" data-name="Ellipse 55" cx="3.295" cy="3.295" r="3.295" transform="translate(2293.896 3873.686)" fill="#e2e2e2"/>
    <path id="Path_166" data-name="Path 166" d="M2225.066,4222.357v-58.188h50.6v58.188" fill="none" stroke="#e2e2e2" stroke-miterlimit="10" stroke-width="5"/>
    <rect id="Rectangle_59" data-name="Rectangle 59" width="230.582" height="26.143" rx="13.071" transform="translate(2130.918 4222.357)" fill="none" stroke="#e2e2e2" stroke-miterlimit="10" stroke-width="5"/>
    <path id="Path_167" data-name="Path 167" d="M2067.188,3941.942l-7.042-4.065a1.875,1.875,0,0,0-2.813,1.623v8.132a1.875,1.875,0,0,0,2.813,1.623l7.042-4.065A1.875,1.875,0,0,0,2067.188,3941.942Z" fill="#e2e2e2"/>
    <path id="Path_168" data-name="Path 168" d="M2067.188,3973.942l-7.042-4.065a1.875,1.875,0,0,0-2.813,1.623v8.132a1.875,1.875,0,0,0,2.813,1.623l7.042-4.065A1.875,1.875,0,0,0,2067.188,3973.942Z" fill="#e2e2e2"/>
    <path id="Path_169" data-name="Path 169" d="M2067.188,4005.942l-7.042-4.065a1.875,1.875,0,0,0-2.813,1.623v8.132a1.875,1.875,0,0,0,2.813,1.623l7.042-4.065A1.875,1.875,0,0,0,2067.188,4005.942Z" fill="#e2e2e2"/>
    <path id="Path_170" data-name="Path 170" d="M2067.188,4037.942l-7.042-4.065a1.875,1.875,0,0,0-2.813,1.623v8.132a1.875,1.875,0,0,0,2.813,1.623l7.042-4.065A1.875,1.875,0,0,0,2067.188,4037.942Z" fill="#e2e2e2"/>
    <path id="Path_171" data-name="Path 171" d="M2067.188,4069.942l-7.042-4.065a1.875,1.875,0,0,0-2.813,1.623v8.132a1.875,1.875,0,0,0,2.813,1.623l7.042-4.065A1.875,1.875,0,0,0,2067.188,4069.942Z" fill="#e2e2e2"/>
    <circle id="Ellipse_56" data-name="Ellipse 56" cx="99.667" cy="99.667" r="99.667" transform="translate(2157.472 3910.472)" fill="none" stroke="#e2e2e2" stroke-miterlimit="10" stroke-width="5"/>
    <circle id="Ellipse_57" data-name="Ellipse 57" cx="126.5" cy="126.5" r="126.5" transform="translate(2130 3883)" fill="none" stroke="#e2e2e2" stroke-miterlimit="10" stroke-width="5"/>
    <path id="Path_172" data-name="Path 172" d="M2322.655,4097.039" fill="none" stroke="#e2e2e2" stroke-miterlimit="10" stroke-width="5"/>
    <path id="Path_173" data-name="Path 173" d="M2346.6,4094.94l98.083,112.6a14,14,0,0,1-1.361,19.752h0a14,14,0,0,1-19.752-1.36l-96.886-111.223" fill="none" stroke="#e2e2e2" stroke-miterlimit="10" stroke-width="5"/>
    <line id="Line_139" data-name="Line 139" x2="62" transform="translate(2087.5 3943.5)" fill="none" stroke="#e2e2e2" stroke-linecap="round" stroke-miterlimit="10" stroke-width="5"/>
    <line id="Line_140" data-name="Line 140" x2="27" transform="translate(2087.5 3975.5)" fill="none" stroke="#e2e2e2" stroke-linecap="round" stroke-miterlimit="10" stroke-width="5"/>
    <line id="Line_141" data-name="Line 141" x2="43" transform="translate(2087.5 4007.5)" fill="none" stroke="#e2e2e2" stroke-linecap="round" stroke-miterlimit="10" stroke-width="5"/>
    <line id="Line_142" data-name="Line 142" x2="43" transform="translate(2087.5 4039.5)" fill="none" stroke="#e2e2e2" stroke-linecap="round" stroke-miterlimit="10" stroke-width="5"/>
    <line id="Line_143" data-name="Line 143" x2="58" transform="translate(2087.5 4071.5)" fill="none" stroke="#e2e2e2" stroke-linecap="round" stroke-miterlimit="10" stroke-width="5"/>
    <path id="Path_174" data-name="Path 174" d="M2232.665,3981.693l-29.843,29.843,28.938,28.938" fill="none" stroke="#e2e2e2" stroke-linecap="round" stroke-miterlimit="10" stroke-width="5"/>
    <path id="Path_175" data-name="Path 175" d="M2280.657,3981.806l29.843,29.843-28.938,28.938" fill="none" stroke="#e2e2e2" stroke-linecap="round" stroke-miterlimit="10" stroke-width="5"/>
    <line id="Line_144" data-name="Line 144" x1="31.845" y2="69" transform="translate(2239.46 3976.518)" fill="none" stroke="#e2e2e2" stroke-linecap="round" stroke-miterlimit="10" stroke-width="5"/>
  </g>
</svg>
