<svg xmlns="http://www.w3.org/2000/svg" width="307.1" height="470.048" viewBox="0 0 307.1 470.048">
  <g id="Group_132" data-name="Group 132" transform="translate(-602.417 -2116.711)">
    <path id="Path_27" data-name="Path 27" d="M785.048,2132.053s15.156-17.1,32.313-11.789,17.837,22.293,17.837,22.293,20.257-4.852,33.221,9.8a30.484,30.484,0,0,1,6.488,30.5s21.593,10.005,19.649,32.787c-1.965,23.022-10.514,27.971-10.514,27.971s26.661,14.748,22.522,45.039c-3.874,28.348-23.88,33.952-23.88,33.952s.4,37.639-31.864,43.413c0,0-7.853,27.8-31.6,27.8s-34.167-23.142-34.167-23.142Z" fill="none" stroke="#e2e2e2" stroke-linecap="round" stroke-linejoin="round" stroke-width="5"/>
    <path id="Path_28" data-name="Path 28" d="M687.581,2187.385l5.91-3.837a30.485,30.485,0,0,1,6.488-30.5c12.965-14.652,33.222-9.8,33.222-9.8s.679-16.98,17.836-22.293,32.313,11.789,32.313,11.789v238.622s-10.415,23.142-34.167,23.142-31.6-27.8-31.6-27.8c-32.263-5.773-31.864-43.413-31.864-43.413s-20.006-5.6-23.88-33.952c-4.139-30.29,22.521-45.039,22.521-45.039s-4.925-5.3-6.284-10.055" fill="none" stroke="#e2e2e2" stroke-linecap="round" stroke-linejoin="round" stroke-width="5"/>
    <circle id="Ellipse_9" data-name="Ellipse 9" cx="7.418" cy="7.418" r="7.418" transform="translate(673.64 2206.417)" fill="#e2e2e2"/>
    <circle id="Ellipse_10" data-name="Ellipse 10" cx="12.905" cy="12.905" r="12.905" transform="translate(811.198 2169.725)" fill="none" stroke="#e2e2e2" stroke-linecap="round" stroke-linejoin="round" stroke-width="5"/>
    <circle id="Ellipse_11" data-name="Ellipse 11" cx="12.905" cy="12.905" r="12.905" transform="translate(729.692 2259.381)" fill="none" stroke="#e2e2e2" stroke-linecap="round" stroke-linejoin="round" stroke-width="5"/>
    <circle id="Ellipse_12" data-name="Ellipse 12" cx="12.226" cy="12.226" r="12.226" transform="translate(683.506 2270.928)" fill="none" stroke="#e2e2e2" stroke-linecap="round" stroke-linejoin="round" stroke-width="5"/>
    <circle id="Ellipse_13" data-name="Ellipse 13" cx="13.584" cy="13.584" r="13.584" transform="translate(737.164 2338.17)" fill="none" stroke="#e2e2e2" stroke-linecap="round" stroke-linejoin="round" stroke-width="5"/>
    <circle id="Ellipse_14" data-name="Ellipse 14" cx="13.584" cy="13.584" r="13.584" transform="translate(805.085 2303.53)" fill="none" stroke="#e2e2e2" stroke-linecap="round" stroke-linejoin="round" stroke-width="5"/>
    <line id="Line_30" data-name="Line 30" x2="19.56" transform="translate(783.059 2317.04)" fill="none" stroke="#e2e2e2" stroke-linecap="round" stroke-linejoin="round" stroke-width="5"/>
    <path id="Path_29" data-name="Path 29" d="M884.485,2244.438H860.1l-9.789,15.732" fill="none" stroke="#e2e2e2" stroke-linecap="round" stroke-linejoin="round" stroke-width="5"/>
    <circle id="Ellipse_15" data-name="Ellipse 15" cx="12.226" cy="12.226" r="12.226" transform="translate(831.574 2260.06)" fill="none" stroke="#e2e2e2" stroke-linecap="round" stroke-linejoin="round" stroke-width="5"/>
    <circle id="Ellipse_16" data-name="Ellipse 16" cx="12.226" cy="12.226" r="12.226" transform="translate(742.597 2157.499)" fill="none" stroke="#e2e2e2" stroke-linecap="round" stroke-linejoin="round" stroke-width="5"/>
    <g id="Group_6" data-name="Group 6" opacity="0.7">
      <path id="Path_30" data-name="Path 30" d="M785.048,2154.1h22.074l9.412,15.722" fill="none" stroke="#e2e2e2" stroke-linecap="round" stroke-linejoin="round" stroke-width="5"/>
      <path id="Path_31" data-name="Path 31" d="M894.651,2211.443H841.277l-11.522-19.789" fill="none" stroke="#e2e2e2" stroke-linecap="round" stroke-linejoin="round" stroke-width="5"/>
      <path id="Path_32" data-name="Path 32" d="M785.727,2242.5h19.358l9-16.037-10.119-15.7H743.31" fill="none" stroke="#e2e2e2" stroke-linecap="round" stroke-linejoin="round" stroke-width="5"/>
      <path id="Path_33" data-name="Path 33" d="M722.374,2199.513l-9.9-16.883h-19" fill="none" stroke="#e2e2e2" stroke-linecap="round" stroke-linejoin="round" stroke-width="5"/>
      <path id="Path_34" data-name="Path 34" d="M734.955,2261.516l-10.017-17.077H684.379" fill="none" stroke="#e2e2e2" stroke-linecap="round" stroke-linejoin="round" stroke-width="5"/>
      <path id="Path_35" data-name="Path 35" d="M749,2283.074l9.9,16.381h24.164" fill="none" stroke="#e2e2e2" stroke-linecap="round" stroke-linejoin="round" stroke-width="5"/>
      <line id="Line_31" data-name="Line 31" x2="21.541" transform="translate(661.965 2283.074)" fill="none" stroke="#e2e2e2" stroke-linecap="round" stroke-linejoin="round" stroke-width="5"/>
      <path id="Path_36" data-name="Path 36" d="M685.733,2323.227h48.714l9.509,16.3" fill="none" stroke="#e2e2e2" stroke-linecap="round" stroke-linejoin="round" stroke-width="5"/>
      <path id="Path_37" data-name="Path 37" d="M830.216,2326.623l19,20.473v21.834" fill="none" stroke="#e2e2e2" stroke-linecap="round" stroke-linejoin="round" stroke-width="5"/>
      <line id="Line_32" data-name="Line 32" x2="43.207" transform="translate(786.701 2272.122)" fill="none" stroke="#e2e2e2" stroke-linecap="round" stroke-linejoin="round" stroke-width="5"/>
      <line id="Line_33" data-name="Line 33" x1="18.192" transform="translate(767.599 2169.725)" fill="none" stroke="#e2e2e2" stroke-linecap="round" stroke-linejoin="round" stroke-width="5"/>
    </g>
    <circle id="Ellipse_17" data-name="Ellipse 17" cx="12.905" cy="12.905" r="12.905" transform="translate(716.787 2196.894)" fill="none" stroke="#e2e2e2" stroke-linecap="round" stroke-linejoin="round" stroke-width="5"/>
    <path id="Path_38" data-name="Path 38" d="M681.058,2213.835H604.917v370.424H792.965l-.468-13.1" fill="none" stroke="#e2e2e2" stroke-miterlimit="10" stroke-width="5"/>
    <path id="Path_39" data-name="Path 39" d="M786.575,2541.647v-41.18c0-2.807-1.9-5.615-4.68-5.615a5.445,5.445,0,0,0-5.08,5.08c0,6.151,7.685,5.282,7.685,5.282h9l-.437.029h9s7.686.869,7.686-5.282a5.446,5.446,0,0,0-5.081-5.08c-2.784,0-4.68,2.808-4.68,5.616v41.179" fill="none" stroke="#e2e2e2" stroke-miterlimit="10" stroke-width="3"/>
    <path id="Rectangle_27" data-name="Rectangle 27" d="M0,0H35.564a0,0,0,0,1,0,0V18.6a2.929,2.929,0,0,1-2.929,2.929H2.929A2.929,2.929,0,0,1,0,18.6V0A0,0,0,0,1,0,0Z" transform="translate(775.183 2542.144)" fill="none" stroke="#e2e2e2" stroke-miterlimit="10" stroke-width="3"/>
    <path id="Path_40" data-name="Path 40" d="M775.007,2541.476c0-27.609-21.525-23.866-21.525-52.879a39.307,39.307,0,0,1,39.308-39.307l.175.2a39.308,39.308,0,0,1,39.308,39.308c0,29.013-21.526,25.269-21.526,52.878Z" fill="none" stroke="#e2e2e2" stroke-miterlimit="10" stroke-width="3"/>
    <path id="Rectangle_28" data-name="Rectangle 28" d="M0,0H20.941a0,0,0,0,1,0,0V4.184a2.429,2.429,0,0,1-2.429,2.429H2.429A2.429,2.429,0,0,1,0,4.184V0A0,0,0,0,1,0,0Z" transform="translate(781.905 2563.169)" fill="none" stroke="#e2e2e2" stroke-miterlimit="10" stroke-width="3"/>
    <g id="Group_8" data-name="Group 8">
      <g id="Group_7" data-name="Group 7">
        <path id="Path_41" data-name="Path 41" d="M740.715,2463.625l-6.173-3.04a2.612,2.612,0,1,0-2.307,4.686l6.173,3.04a2.612,2.612,0,0,0,2.307-4.686Z" fill="#e2e2e2"/>
      </g>
    </g>
    <g id="Group_10" data-name="Group 10">
      <g id="Group_9" data-name="Group 9">
        <path id="Path_42" data-name="Path 42" d="M746.968,2515.188a2.611,2.611,0,0,0-3.693,0l-4.866,4.866a2.611,2.611,0,1,0,3.693,3.693l4.866-4.865A2.614,2.614,0,0,0,746.968,2515.188Z" fill="#e2e2e2"/>
      </g>
    </g>
    <g id="Group_12" data-name="Group 12">
      <g id="Group_11" data-name="Group 11">
        <path id="Path_43" data-name="Path 43" d="M735.479,2491.145H728.6a2.611,2.611,0,0,0,0,5.223h6.881a2.611,2.611,0,0,0,0-5.223Z" fill="#e2e2e2"/>
      </g>
    </g>
    <g id="Group_14" data-name="Group 14">
      <g id="Group_13" data-name="Group 13">
        <path id="Path_44" data-name="Path 44" d="M760.439,2448.045a2.611,2.611,0,0,0,.178-3.689l-4.626-5.094a2.611,2.611,0,0,0-3.866,3.511l4.625,5.094A2.612,2.612,0,0,0,760.439,2448.045Z" fill="#e2e2e2"/>
      </g>
    </g>
    <g id="Group_16" data-name="Group 16">
      <g id="Group_15" data-name="Group 15">
        <path id="Path_45" data-name="Path 45" d="M841.787,2466.6a2.61,2.61,0,0,0,3.5,1.189l6.173-3.039a2.611,2.611,0,1,0-2.307-4.686l-6.173,3.039A2.612,2.612,0,0,0,841.787,2466.6Z" fill="#e2e2e2"/>
      </g>
    </g>
    <g id="Group_18" data-name="Group 18">
      <g id="Group_17" data-name="Group 17">
        <path id="Path_46" data-name="Path 46" d="M836.723,2518.365l4.865,4.865a2.611,2.611,0,1,0,3.693-3.693l-4.865-4.866a2.612,2.612,0,1,0-3.693,3.694Z" fill="#e2e2e2"/>
      </g>
    </g>
    <g id="Group_20" data-name="Group 20">
      <g id="Group_19" data-name="Group 19">
        <path id="Path_47" data-name="Path 47" d="M845.6,2493.239a2.612,2.612,0,0,0,2.612,2.611h6.881a2.612,2.612,0,0,0,0-5.223h-6.881A2.613,2.613,0,0,0,845.6,2493.239Z" fill="#e2e2e2"/>
      </g>
    </g>
    <g id="Group_22" data-name="Group 22">
      <g id="Group_21" data-name="Group 21">
        <path id="Path_48" data-name="Path 48" d="M826.941,2447.35l4.625-5.094a2.612,2.612,0,1,0-3.867-3.511l-4.625,5.094a2.612,2.612,0,0,0,3.867,3.511Z" fill="#e2e2e2"/>
      </g>
    </g>
    <g id="Group_24" data-name="Group 24">
      <g id="Group_23" data-name="Group 23">
        <path id="Path_49" data-name="Path 49" d="M791.836,2439.9a2.612,2.612,0,0,0,2.611-2.612V2430.4a2.611,2.611,0,1,0-5.222,0v6.881A2.612,2.612,0,0,0,791.836,2439.9Z" fill="#e2e2e2"/>
      </g>
    </g>
  </g>
</svg>
