<svg xmlns="http://www.w3.org/2000/svg" width="316" height="425.617" viewBox="0 0 316 425.617">
  <g id="Group_140" data-name="Group 140" transform="translate(-1344.5 -2135.883)">
    <path id="Path_50" data-name="Path 50" d="M1437.12,2222.56c1.876-43.425,38.512-80.113,86.415-84.239,45.982-3.96,85.865,21.416,97.272,61.177,0,0-66.307-9-178.664,23.062l-5.023,1.083Z" fill="none" stroke="#e2e2e2" stroke-linecap="round" stroke-linejoin="round" stroke-width="4"/>
    <path id="Path_51" data-name="Path 51" d="M1462.735,2413.473,1473.5,2461.5l13,1,21,24c43-8,128-22,128-22l11-23,12-8-29-191-4-24c-60.416-7.062-131.532,9.931-159.363,17.578" fill="none" stroke="#e2e2e2" stroke-linecap="round" stroke-linejoin="round" stroke-width="4"/>
    <path id="Path_52" data-name="Path 52" d="M1460.5,2368.929l18-18.429s5-21,9.5-56.983-27.5-47.017-27.5-47.017h-23.38c-16.379,0-24.62,25.357-24.62,25.357l-9,71.643,15,18,11-60s-4.288-8.765-2.324-18.1c1.471-6.992,7.329-15.617,16.324-13.9,9.9,1.885,12.556,13.527,10.443,21.14A39.5,39.5,0,0,1,1446.5,2305l-11.214,59.313Z" fill="none" stroke="#e2e2e2" stroke-linecap="round" stroke-linejoin="round" stroke-width="4"/>
    <path id="Path_53" data-name="Path 53" d="M1648.5,2311.5l7-44s4-20-19-32" fill="none" stroke="#e2e2e2" stroke-linecap="round" stroke-linejoin="round" stroke-width="4"/>
    <path id="Path_54" data-name="Path 54" d="M1531.151,2149.117l-31.817,5.861a3.994,3.994,0,0,0-3.232,3.376l-4.819,34.532a3.994,3.994,0,0,0,4.767,4.463l47.467-9.848a3.993,3.993,0,0,0,2.953-5.245l-10.832-30.546A4,4,0,0,0,1531.151,2149.117Zm-15.6,31.189c-7.132,1.357-13.833-2.382-14.969-8.35s3.727-11.906,10.859-13.262,13.833,2.382,14.969,8.35S1522.687,2178.95,1515.555,2180.306Z" fill="#e2e2e2" opacity="0.7"/>
    <path id="Path_55" data-name="Path 55" d="M1545,2251.071s42-8.071,68-6.071" fill="none" stroke="#e2e2e2" stroke-linecap="round" stroke-linejoin="round" stroke-width="4"/>
    <path id="Path_56" data-name="Path 56" d="M1549.5,2275.5a566.061,566.061,0,0,1,68.307-6" fill="none" stroke="#e2e2e2" stroke-linecap="round" stroke-linejoin="round" stroke-width="4"/>
    <path id="Path_57" data-name="Path 57" d="M1503.5,2460.5a991.922,991.922,0,0,1,127-22" fill="none" stroke="#e2e2e2" stroke-linecap="round" stroke-linejoin="round" stroke-width="4"/>
    <line id="Line_34" data-name="Line 34" x2="9.904" y2="49.491" transform="translate(1538.096 2400.01)" fill="none" stroke="#e2e2e2" stroke-linecap="round" stroke-linejoin="round" stroke-width="4"/>
    <line id="Line_35" data-name="Line 35" x2="23.476" y2="117.304" transform="translate(1503.5 2227.143)" fill="none" stroke="#e2e2e2" stroke-linecap="round" stroke-linejoin="round" stroke-width="4"/>
    <circle id="Ellipse_18" data-name="Ellipse 18" cx="4" cy="4" r="4" transform="translate(1528.5 2367.5)" fill="#e2e2e2"/>
    <path id="Path_58" data-name="Path 58" d="M1620.807,2378.572,1593,2382l-14-81.928,27-2.072Z" fill="none" stroke="#e2e2e2" stroke-linecap="round" stroke-linejoin="round" stroke-width="4"/>
    <path id="Path_59" data-name="Path 59" d="M1475.5,2379l7,31.5,21-4.928-12.256-58.072" fill="none" stroke="#e2e2e2" stroke-linecap="round" stroke-linejoin="round" stroke-width="4"/>
    <path id="Path_60" data-name="Path 60" d="M1597.5,2411.5s18-3,27-3" fill="none" stroke="#e2e2e2" stroke-linecap="round" stroke-linejoin="round" stroke-width="4"/>
    <path id="Path_61" data-name="Path 61" d="M1602.5,2480.5s-6,21-29,23-31.452-11.5-31.452-11.5" fill="none" stroke="#e2e2e2" stroke-linecap="round" stroke-linejoin="round" stroke-width="4"/>
    <path id="Path_62" data-name="Path 62" d="M1599.9,2505l27.6,26.5-3,9.5-42,8.5-54-5.5-4-7.5,21-30" fill="none" stroke="#e2e2e2" stroke-linecap="round" stroke-linejoin="round" stroke-width="4"/>
    <line id="Line_36" data-name="Line 36" x1="13.071" y2="57.571" transform="translate(1399.5 2368.928)" fill="none" stroke="#e2e2e2" stroke-linecap="round" stroke-linejoin="round" stroke-width="4"/>
    <line id="Line_37" data-name="Line 37" x1="11.533" y2="56.786" transform="translate(1448.967 2379.5)" fill="none" stroke="#e2e2e2" stroke-linecap="round" stroke-linejoin="round" stroke-width="4"/>
    <path id="Path_63" data-name="Path 63" d="M1392.857,2438.5s27.884,20.429,61.263,8.214c0,0,5.38,41.786-37.191,35.786C1375.893,2476.717,1392.857,2438.5,1392.857,2438.5Z" fill="none" stroke="#e2e2e2" stroke-linecap="round" stroke-linejoin="round" stroke-width="4"/>
    <path id="Path_64" data-name="Path 64" d="M1384.5,2483.089l-12.857,5.411-25.143,42,6,14,63,15,60-10,3-13-21.38-38.4" fill="none" stroke="#e2e2e2" stroke-linecap="round" stroke-linejoin="round" stroke-width="4"/>
    <line id="Line_38" data-name="Line 38" x1="2.5" y1="40.798" transform="translate(1416 2503.702)" fill="none" stroke="#e2e2e2" stroke-linecap="round" stroke-linejoin="round" stroke-width="4"/>
    <line id="Line_39" data-name="Line 39" x1="3" y1="19.286" transform="translate(1576 2515.5)" fill="none" stroke="#e2e2e2" stroke-linecap="round" stroke-linejoin="round" stroke-width="4"/>
    <path id="Path_65" data-name="Path 65" d="M1634.5,2478.5l18.929,26.5-2.929,12.5-21,1.928" fill="none" stroke="#e2e2e2" stroke-linecap="round" stroke-linejoin="round" stroke-width="4"/>
  </g>
</svg>
