<svg xmlns="http://www.w3.org/2000/svg" width="445.009" height="360.412" viewBox="0 0 445.009 360.412">
  <g id="Group_141" data-name="Group 141" transform="translate(-580.228 -4723)">
    <path id="Path_337" data-name="Path 337" d="M681.025,4949.973c23.268-40.829,45.947-84.344,45.947-99.79v-45.419H713.5" fill="none" stroke="#e2e2e2" stroke-linecap="round" stroke-linejoin="round" stroke-width="4"/>
    <path id="Path_338" data-name="Path 338" d="M860.6,4955.053c18.306,31.9,36.433,61.377,43.638,73.482,16.733,28.112-2.677,52.877-34.805,52.877s-167.9-.215-200.026-.215-51.539-24.765-34.8-52.877c7.57-12.718,27.2-44.616,46.42-78.347" fill="none" stroke="#e2e2e2" stroke-linecap="round" stroke-linejoin="round" stroke-width="4"/>
    <path id="Path_339" data-name="Path 339" d="M835.914,4910.269c7.538,14.438,16.133,29.876,24.689,44.784" fill="none" stroke="#e2e2e2" stroke-linecap="round" stroke-linejoin="round" stroke-width="4"/>
    <path id="Path_340" data-name="Path 340" d="M824.357,4804.979H811.873v47.878" fill="none" stroke="#e2e2e2" stroke-linecap="round" stroke-linejoin="round" stroke-width="4"/>
    <path id="Path_341" data-name="Path 341" d="M685.143,4943.976c17.429,0,17.429,10,34.858,10s17.43-10,34.86-10,17.429,10,34.859,10,17.431-10,34.863-10,17.432,10,34.863,10" fill="none" stroke="#e2e2e2" stroke-linecap="round" stroke-linejoin="round" stroke-width="4"/>
    <circle id="Ellipse_136" data-name="Ellipse 136" cx="6.383" cy="6.383" r="6.383" transform="translate(755.815 4878.197)" fill="none" stroke="#e2e2e2" stroke-linecap="round" stroke-linejoin="round" stroke-width="4"/>
    <circle id="Ellipse_137" data-name="Ellipse 137" cx="4.802" cy="4.802" r="4.802" transform="translate(803.396 4975.779)" fill="#e2e2e2"/>
    <circle id="Ellipse_138" data-name="Ellipse 138" cx="3.802" cy="3.802" r="3.802" transform="translate(848.396 5003.779)" fill="#e2e2e2"/>
    <circle id="Ellipse_139" data-name="Ellipse 139" cx="4.691" cy="4.691" r="4.691" transform="translate(822.617 5050)" fill="#e2e2e2"/>
    <circle id="Ellipse_140" data-name="Ellipse 140" cx="6.383" cy="6.383" r="6.383" transform="translate(776.815 5032.197)" fill="#e2e2e2"/>
    <circle id="Ellipse_141" data-name="Ellipse 141" cx="2.802" cy="2.802" r="2.802" transform="translate(725.396 5054.779)" fill="#e2e2e2"/>
    <circle id="Ellipse_142" data-name="Ellipse 142" cx="2.802" cy="2.802" r="2.802" transform="translate(877.396 5043.779)" fill="#e2e2e2"/>
    <circle id="Ellipse_143" data-name="Ellipse 143" cx="6.383" cy="6.383" r="6.383" transform="translate(791.379 4725)" fill="none" stroke="#e2e2e2" stroke-linecap="round" stroke-linejoin="round" stroke-width="4"/>
    <circle id="Ellipse_144" data-name="Ellipse 144" cx="11.855" cy="11.855" r="11.855" transform="translate(772.229 4823.484)" fill="none" stroke="#e2e2e2" stroke-linecap="round" stroke-linejoin="round" stroke-width="4"/>
    <circle id="Ellipse_145" data-name="Ellipse 145" cx="17.326" cy="17.326" r="17.326" transform="translate(733.018 4754.181)" fill="none" stroke="#e2e2e2" stroke-linecap="round" stroke-linejoin="round" stroke-width="4"/>
    <g id="Group_74" data-name="Group 74">
      <path id="Path_342" data-name="Path 342" d="M647.235,4934.913c3.554.313,6.865.587,10.174.9,7.546.713,15.057-5.879,15.37-13.34.568-13.535-1.864-9.945,10.673-14.36,9.164-3.227,7.454-4.447,13.063,3.871,4.576,6.786,10.84,6.232,17.148,6.344,1.623.029,3.421-2.059,4.909-3.425,9.612-8.825,6.261-8.052,17.5-2.642,9.131,4.4,8.468,2.634,6.632,12.38-1.526,8.1,3.337,12.083,7.766,16.453,1.459,1.439,4.984.918,7.577,1.053,10.575.553,8.637-1.2,12,8.847,3.811,11.384,4.895,8.262-4.773,16.26a14.37,14.37,0,0,0-1.3,21.12c8.559,9.24,7.762,5.878,2.636,16.378-4.961,10.164-2.522,9.194-13.139,7.288-8.023-1.441-11.585,3.812-16.131,7.859-1.1.981-.89,3.645-.954,5.546-.443,13.311,1.386,10.405-10.555,14.6-8.911,3.13-7.815,4.055-13.134-4.011-4.521-6.855-10.807-6.387-17.111-6.427-1.856-.012-3.867,2.386-5.57,3.94-7.492,6.838-7.481,6.913-16.433,2.422-9.6-4.815-8.951-2.533-7.072-13.343,1.39-8-3.651-11.863-8.1-15.857-1.974-1.771-6.413-1.278-9.672-1.023-5.015.393-7.331-1.467-8.82-6.357-3.684-12.094-3.885-11.934,5.778-20.343,1.459-1.27,2.242-3.568,2.832-5.542,2.307-7.718-1.24-13.271-7.036-17.848-2.9-2.292-3.236-4.758-1.3-7.968,1.866-3.09,3.21-6.49,4.876-9.707A26.917,26.917,0,0,1,647.235,4934.913Zm65.3,59.777a22.241,22.241,0,1,0-13.956-42.235,22.074,22.074,0,0,0-14.042,28.133A21.821,21.821,0,0,0,712.536,4994.69Z" fill="#2e2f2e" stroke="#fff" stroke-linejoin="round" stroke-width="4"/>
      <path id="Path_343" data-name="Path 343" d="M595.18,4859.677c2.185.642,4.223,1.23,6.254,1.842a9.385,9.385,0,0,0,11.3-6.418c2.057-8.4.083-6.459,8.485-7.647,6.142-.867,5.225-1.846,7.69,4.066,2.011,4.823,6,5.264,9.936,6.127,1.013.222,2.4-.859,3.5-1.527,7.126-4.316,4.932-4.253,11.287.546,5.163,3.9,4.97,2.714,2.6,8.584-1.973,4.876.57,7.982,2.792,11.274.733,1.085,3.005,1.2,4.611,1.612,6.549,1.676,5.557.334,6.4,7.046.954,7.6,2.025,5.787-5.032,9.578a9.176,9.176,0,0,0-3.472,13.056c4.2,6.86,4.12,4.654-.409,10.583-4.383,5.738-2.734,5.437-9.14,2.909-4.841-1.91-7.731.93-11.085,2.892-.813.475-1.016,2.169-1.294,3.351-1.951,8.276-.441,6.687-8.443,7.811-5.971.839-5.4,1.556-7.717-4.162-1.968-4.859-5.961-5.356-9.9-6.174-1.16-.241-2.72,1.007-3.981,1.766-5.55,3.338-5.552,3.387-10.591-.55-5.4-4.221-5.285-2.711-2.749-9.241,1.875-4.83-.794-7.884-3.079-10.944-1.013-1.357-3.854-1.606-5.925-1.856-3.189-.385-4.4-1.84-4.722-5.089-.785-8.032-.932-7.958,6.174-12.007a7.651,7.651,0,0,0,2.469-3.112c2.415-4.541.893-8.463-2.16-12.056-1.529-1.8-1.427-3.386.19-5.151,1.556-1.7,2.825-3.659,4.272-5.463A17.225,17.225,0,0,1,595.18,4859.677Zm33.358,45.626a14.2,14.2,0,1,0-3.425-28.191,14.094,14.094,0,0,0-12.327,15.844A13.932,13.932,0,0,0,628.538,4905.3Z" fill="#2e2f2e" stroke="#fff" stroke-linejoin="round" stroke-width="4"/>
    </g>
    <g id="Group_75" data-name="Group 75">
      <text id="x_-_y" data-name="x  - y" transform="translate(843.997 4863.14)" fill="#e2e2e2" font-size="35.902" font-family="Helvetica"><tspan x="0" y="28" xml:space="preserve">x  - </tspan></text>
      <text id="_42" data-name="= 42" transform="translate(949.237 4865.163)" fill="#e2e2e2" font-size="35.902" font-family="Helvetica"><tspan x="0" y="28">= </tspan><tspan y="28" font-size="26.31">42</tspan></text>
      <path id="Path_344" data-name="Path 344" d="M805,4880.667h8.461l4.259,16.694,12.873-38.985H947.681" fill="none" stroke="#e2e2e2" stroke-linecap="round" stroke-miterlimit="10" stroke-width="3"/>
    </g>
  </g>
</svg>
