<svg xmlns="http://www.w3.org/2000/svg" width="515.955" height="382.176" viewBox="0 0 515.955 382.176">
  <g id="Group_144" data-name="Group 144" transform="translate(-1285.545 -3855.208)">
    <rect id="Rectangle_54" data-name="Rectangle 54" width="510.955" height="377.176" rx="8.802" transform="translate(1288.045 3857.708)" fill="none" stroke="#e2e2e2" stroke-miterlimit="10" stroke-width="5"/>
    <path id="Path_160" data-name="Path 160" d="M1312.068,4020.768v157.941a14.464,14.464,0,0,0,14.2,14.718h434.486a14.469,14.469,0,0,0,14.2-14.718V3909.924a14.476,14.476,0,0,0-14.2-14.717H1326.27a14.47,14.47,0,0,0-14.2,14.717v123.548" fill="none" stroke="#e2e2e2" stroke-miterlimit="10" stroke-width="5"/>
    <line id="Line_126" data-name="Line 126" x2="92.725" transform="translate(1491.708 3877.445)" fill="none" stroke="#e2e2e2" stroke-miterlimit="10" stroke-width="5"/>
    <circle id="Ellipse_54" data-name="Ellipse 54" cx="4.099" cy="4.099" r="4.099" transform="translate(1598.568 3873.487)" fill="#e2e2e2"/>
    <g id="Group_47" data-name="Group 47">
      <line id="Line_127" data-name="Line 127" x2="133.998" transform="translate(1371.522 4042.564)" fill="none" stroke="#e2e2e2" stroke-miterlimit="10" stroke-width="5"/>
      <line id="Line_128" data-name="Line 128" x2="133.998" transform="translate(1371.522 4063.947)" fill="none" stroke="#e2e2e2" stroke-miterlimit="10" stroke-width="5"/>
      <line id="Line_129" data-name="Line 129" x2="133.998" transform="translate(1371.522 4085.978)" fill="none" stroke="#e2e2e2" stroke-miterlimit="10" stroke-width="5"/>
      <line id="Line_130" data-name="Line 130" x2="133.998" transform="translate(1371.522 4107.361)" fill="none" stroke="#e2e2e2" stroke-miterlimit="10" stroke-width="5"/>
    </g>
    <rect id="Rectangle_55" data-name="Rectangle 55" width="20.24" height="20.24" transform="translate(1377.087 3996.161)" fill="none" stroke="#e2e2e2" stroke-miterlimit="10" stroke-width="5"/>
    <rect id="Rectangle_56" data-name="Rectangle 56" width="80.962" height="20.24" transform="translate(1422.628 3996.161)" fill="none" stroke="#e2e2e2" stroke-miterlimit="10" stroke-width="5"/>
    <rect id="Rectangle_57" data-name="Rectangle 57" width="116.301" height="116.301" rx="15.214" transform="translate(1608.158 3995.651)" fill="none" stroke="#e2e2e2" stroke-miterlimit="10" stroke-width="5"/>
    <path id="Path_161" data-name="Path 161" d="M1771.533,3930.144H1439.792c-19.4,0-25.695.215-25.695-15.96v-17.636" fill="none" stroke="#e2e2e2" stroke-miterlimit="10" stroke-width="5"/>
    <line id="Line_131" data-name="Line 131" y2="33.596" transform="translate(1500.675 3896.548)" fill="none" stroke="#e2e2e2" stroke-miterlimit="10" stroke-width="5" opacity="0.6"/>
    <line id="Line_132" data-name="Line 132" y2="33.596" transform="translate(1565.967 3896.548)" fill="none" stroke="#e2e2e2" stroke-miterlimit="10" stroke-width="5" opacity="0.6"/>
    <rect id="Rectangle_58" data-name="Rectangle 58" width="14.283" height="14.283" transform="translate(1698.955 3904.855)" fill="none" stroke="#e2e2e2" stroke-miterlimit="10" stroke-width="3"/>
    <line id="Line_133" data-name="Line 133" x2="19.383" transform="translate(1654.067 3911.996)" fill="none" stroke="#e2e2e2" stroke-miterlimit="10" stroke-width="3"/>
    <line id="Line_134" data-name="Line 134" x2="12.66" y2="12.66" transform="translate(1737.15 3905.767)" fill="none" stroke="#e2e2e2" stroke-miterlimit="10" stroke-width="3"/>
    <line id="Line_135" data-name="Line 135" x1="12.242" y2="13.262" transform="translate(1737.366 3905.365)" fill="none" stroke="#e2e2e2" stroke-miterlimit="10" stroke-width="3"/>
    <line id="Line_136" data-name="Line 136" x2="49.989" transform="translate(1338.83 3916.077)" fill="none" stroke="#e2e2e2" stroke-miterlimit="10" stroke-width="5"/>
  </g>
</svg>
