<svg xmlns="http://www.w3.org/2000/svg" width="451.625" height="365.179" viewBox="0 0 451.625 365.179">
  <g id="Group_155" data-name="Group 155" transform="translate(-578.685 -3012.903)">
    <circle id="Ellipse_87" data-name="Ellipse 87" cx="7.5" cy="7.5" r="7.5" transform="translate(724.185 3133.796)" fill="#2f2f2f"/>
    <line id="Line_221" data-name="Line 221" x1="32.5" y2="35.5" transform="translate(715.685 3123.796)" fill="none" stroke="#2f2f2f" stroke-miterlimit="10" stroke-width="3" opacity="0.5"/>
    <line id="Line_222" data-name="Line 222" y2="48.13" transform="translate(732.542 3116.946)" fill="none" stroke="#2f2f2f" stroke-miterlimit="10" stroke-width="3" opacity="0.5"/>
    <line id="Line_223" data-name="Line 223" y1="0.376" x2="48.129" transform="translate(707.416 3141.316)" fill="none" stroke="#2f2f2f" stroke-miterlimit="10" stroke-width="3" opacity="0.5"/>
    <path id="Path_331" data-name="Path 331" d="M4162.654,3125.182l-16.365-7.279-16.718,6.424-7.279,16.365,6.424,16.719,16.364,7.279,16.719-6.424,7.279-16.365Z" transform="translate(-3414)" fill="none" stroke="#2f2f2f" stroke-miterlimit="10" stroke-width="3" opacity="0.5"/>
    <path id="Path_332" data-name="Path 332" d="M4046.685,3111.3l-32-4-19,30,10.321,44.893,37.679,24.107,43,6,27-3" transform="translate(-3414)" fill="none" stroke="#2f2f2f" stroke-linecap="round" stroke-linejoin="round" stroke-width="6"/>
    <path id="Path_333" data-name="Path 333" d="M4053.145,3136l-8.245-2.2-18-1-9.214,14.5,5,25,23,16,24,3h12.5" transform="translate(-3414)" fill="none" stroke="#2f2f2f" stroke-linecap="round" stroke-linejoin="round" stroke-width="3" opacity="0.5"/>
    <path id="Path_334" data-name="Path 334" d="M4102.685,3121.3l50.5-23.214,14.5,2.214,16.072,9.393,8.143,21.107-5.571,31.25-8.643,10.25-32,13.214-24-8.214-23-23-4.071-20.5Z" transform="translate(-3414)" fill="none" stroke="#2f2f2f" stroke-linecap="round" stroke-linejoin="round" stroke-width="6"/>
    <path id="Path_335" data-name="Path 335" d="M4218.638,3179.082l-54.742-20.864L4128.144,3126" transform="translate(-3414)" fill="none" stroke="#2f2f2f" stroke-miterlimit="10" stroke-width="3" opacity="0.5"/>
    <path id="Path_336" data-name="Path 336" d="M4162.654,3125.182l21.1-15.493,21.556-15.554" transform="translate(-3414)" fill="none" stroke="#2f2f2f" stroke-miterlimit="10" stroke-width="3" opacity="0.5"/>
    <path id="Path_337" data-name="Path 337" d="M4146.29,3117.9l6.9-19.821,2.628-54.447" transform="translate(-3414)" fill="none" stroke="#2f2f2f" stroke-miterlimit="10" stroke-width="3" opacity="0.5"/>
    <path id="Path_338" data-name="Path 338" d="M4126.328,3125.182l-23.643-3.886-20.5-23.214" transform="translate(-3414)" fill="none" stroke="#2f2f2f" stroke-miterlimit="10" stroke-width="3" opacity="0.5"/>
    <path id="Path_339" data-name="Path 339" d="M4122.292,3140.692l-27.678-6.9-38.229-26.661" transform="translate(-3414)" fill="none" stroke="#2f2f2f" stroke-miterlimit="10" stroke-width="3" opacity="0.5"/>
    <path id="Path_340" data-name="Path 340" d="M4128.716,3157.41l-30.031-3.114-33.944,4.857" transform="translate(-3414)" fill="none" stroke="#2f2f2f" stroke-miterlimit="10" stroke-width="3" opacity="0.5"/>
    <line id="Line_224" data-name="Line 224" x2="43.837" y2="8.411" transform="translate(721.849 3213.885)" fill="none" stroke="#2f2f2f" stroke-linecap="round" stroke-linejoin="round" stroke-width="3" opacity="0.5"/>
    <path id="Path_341" data-name="Path 341" d="M4145.081,3164.69l1.462,17.5-10.694,31.7" transform="translate(-3414)" fill="none" stroke="#2f2f2f" stroke-linecap="round" stroke-linejoin="round" stroke-width="3" opacity="0.5"/>
    <line id="Line_225" data-name="Line 225" x1="12.214" y1="25.5" transform="translate(600.685 3107.296)" fill="none" stroke="#2f2f2f" stroke-linecap="round" stroke-linejoin="round" stroke-width="3" opacity="0.5"/>
    <line id="Line_226" data-name="Line 226" x1="22" y1="10" transform="translate(581.685 3137.296)" fill="none" stroke="#2f2f2f" stroke-miterlimit="10" stroke-width="3" opacity="0.5"/>
    <line id="Line_227" data-name="Line 227" x1="16.679" y2="9.893" transform="translate(592.007 3172.296)" fill="none" stroke="#2f2f2f" stroke-linecap="round" stroke-linejoin="round" stroke-width="3" opacity="0.5"/>
    <line id="Line_228" data-name="Line 228" x1="2" y2="18" transform="translate(629.685 3188.296)" fill="none" stroke="#2f2f2f" stroke-linecap="round" stroke-linejoin="round" stroke-width="3" opacity="0.5"/>
    <line id="Line_229" data-name="Line 229" x2="9.643" y2="19" transform="translate(658.542 3191.296)" fill="none" stroke="#2f2f2f" stroke-linecap="round" stroke-linejoin="round" stroke-width="3" opacity="0.5"/>
    <line id="Line_230" data-name="Line 230" y1="23.414" transform="translate(687.573 3063.796)" fill="none" stroke="#2f2f2f" stroke-linecap="round" stroke-linejoin="round" stroke-width="3" opacity="0.5"/>
    <line id="Line_231" data-name="Line 231" y1="26.414" transform="translate(721.573 3035.796)" fill="none" stroke="#2f2f2f" stroke-linecap="round" stroke-linejoin="round" stroke-width="3" opacity="0.5"/>
    <path id="Path_342" data-name="Path 342" d="M4198.685,3245.135l6.628,30.59-6.628,50.572" transform="translate(-3414)" fill="none" stroke="#2f2f2f" stroke-linecap="round" stroke-linejoin="round" stroke-width="3" opacity="0.5"/>
    <line id="Line_232" data-name="Line 232" x2="46.628" y2="4.429" transform="translate(744.685 3271.296)" fill="none" stroke="#2f2f2f" stroke-linecap="round" stroke-linejoin="round" stroke-width="3" opacity="0.5"/>
    <line id="Line_233" data-name="Line 233" x2="45.5" transform="translate(739.185 3321.368)" fill="none" stroke="#2f2f2f" stroke-linecap="round" stroke-linejoin="round" stroke-width="3" opacity="0.5"/>
    <line id="Line_234" data-name="Line 234" y1="6" x2="45.5" transform="translate(739.185 3346.225)" fill="none" stroke="#2f2f2f" stroke-linecap="round" stroke-linejoin="round" stroke-width="3" opacity="0.5"/>
    <circle id="Ellipse_88" data-name="Ellipse 88" cx="7.5" cy="7.5" r="7.5" transform="translate(869.81 3134.76)" fill="#2f2f2f"/>
    <line id="Line_235" data-name="Line 235" x2="32.5" y2="35.5" transform="translate(860.81 3124.76)" fill="none" stroke="#2f2f2f" stroke-miterlimit="10" stroke-width="3" opacity="0.5"/>
    <line id="Line_236" data-name="Line 236" y2="48.13" transform="translate(876.453 3117.91)" fill="none" stroke="#2f2f2f" stroke-miterlimit="10" stroke-width="3" opacity="0.5"/>
    <line id="Line_237" data-name="Line 237" x1="48.129" y1="0.376" transform="translate(853.451 3142.28)" fill="none" stroke="#2f2f2f" stroke-miterlimit="10" stroke-width="3" opacity="0.5"/>
    <path id="Path_343" data-name="Path 343" d="M4274.341,3126.146l16.364-7.279,16.719,6.424,7.279,16.365-6.424,16.719-16.365,7.279-16.718-6.424-7.279-16.365Z" transform="translate(-3414)" fill="none" stroke="#2f2f2f" stroke-miterlimit="10" stroke-width="3" opacity="0.5"/>
    <path id="Path_344" data-name="Path 344" d="M4267.683,3246.1l33.464-31.25,38.536-19.75,32.571-34.981,8.357-52.019-27.929-10-40-23-31.5-30.5-31.5,7.5-18,43-12,12-14.37-12.964-18-43-31.5-7.5-31.5,30.5-40,23-27.928,10,8.357,52.019,32.572,34.981,38.536,19.75,33.464,31.25" transform="translate(-3414)" fill="none" stroke="#2f2f2f" stroke-linecap="round" stroke-linejoin="round" stroke-width="6"/>
    <path id="Path_345" data-name="Path 345" d="M4361.139,3090.318l-2.589-8.494s-56-41.286-59.5-51.143L4220.5,3015.9l-82.551,13.814c-3.5,9.857-59.5,51.143-59.5,51.143l-2.589,8.494" transform="translate(-3414)" fill="none" stroke="#2f2f2f" stroke-linecap="round" stroke-linejoin="round" stroke-width="6"/>
    <path id="Path_346" data-name="Path 346" d="M4224.4,3215.26H4237.8l5.607,17-7,11-17.719,8.679h-.094l-18-9.643-7-11,5.607-17h13.393l6,12Z" transform="translate(-3414)" fill="none" stroke="#2f2f2f" stroke-linecap="round" stroke-linejoin="round" stroke-width="6"/>
    <path id="Path_347" data-name="Path 347" d="M4219.1,3359.26l19.214-12.071V3327.26l-19.672,9.107-19.953-10.071v19.928L4217.9,3360.3" transform="translate(-3414)" fill="none" stroke="#2f2f2f" stroke-linecap="round" stroke-linejoin="round" stroke-width="6"/>
    <path id="Path_348" data-name="Path 348" d="M4220.5,3183.153l22.908,26.679,13.906,13.428,21,49,5.5,50.072v33.928l-6.5,9-58.953,9.786.281.036-58.953-10.786-6.5-9v-33.929l5.5-50.071,21-49,13.906-13.429,22.908-26.678Z" transform="translate(-3414)" fill="none" stroke="#2f2f2f" stroke-linecap="round" stroke-linejoin="round" stroke-width="6"/>
    <path id="Path_349" data-name="Path 349" d="M4390.31,3112.26l32-4,19,30-10.321,44.893-37.679,24.107-43,6-27-3" transform="translate(-3414)" fill="none" stroke="#2f2f2f" stroke-linecap="round" stroke-linejoin="round" stroke-width="6"/>
    <path id="Path_350" data-name="Path 350" d="M4383.851,3136.966l8.245-2.205,18-1,9.214,14.5-5,25-23,16-24,3h-12.5" transform="translate(-3414)" fill="none" stroke="#2f2f2f" stroke-linecap="round" stroke-linejoin="round" stroke-width="3" opacity="0.5"/>
    <path id="Path_351" data-name="Path 351" d="M4334.31,3122.26l-50.5-23.214-14.5,2.214-16.071,9.393-8.143,21.107,5.572,31.25,8.643,10.25,32,13.214,24-8.214,23-23,4.072-20.5Z" transform="translate(-3414)" fill="none" stroke="#2f2f2f" stroke-linecap="round" stroke-linejoin="round" stroke-width="6"/>
    <path id="Path_352" data-name="Path 352" d="M4267.917,3142.865l-20.678-11.1-27.742-9.571-29.74,8.607-20.678,11.1" transform="translate(-3414)" fill="none" stroke="#2f2f2f" stroke-linecap="round" stroke-linejoin="round" stroke-width="3" opacity="0.5"/>
    <path id="Path_353" data-name="Path 353" d="M4218.357,3180.046l54.742-20.864,35.752-32.222" transform="translate(-3414)" fill="none" stroke="#2f2f2f" stroke-miterlimit="10" stroke-width="3" opacity="0.5"/>
    <path id="Path_354" data-name="Path 354" d="M4274.341,3126.146l-21.1-15.493-21.556-15.554" transform="translate(-3414)" fill="none" stroke="#2f2f2f" stroke-miterlimit="10" stroke-width="3" opacity="0.5"/>
    <path id="Path_355" data-name="Path 355" d="M4290.706,3118.867l-6.9-19.821-2.627-54.447" transform="translate(-3414)" fill="none" stroke="#2f2f2f" stroke-miterlimit="10" stroke-width="3" opacity="0.5"/>
    <path id="Path_356" data-name="Path 356" d="M4310.667,3126.146l23.643-3.886,20.5-23.214" transform="translate(-3414)" fill="none" stroke="#2f2f2f" stroke-miterlimit="10" stroke-width="3" opacity="0.5"/>
    <path id="Path_357" data-name="Path 357" d="M4314.7,3141.656l27.678-6.9,38.229-26.661" transform="translate(-3414)" fill="none" stroke="#2f2f2f" stroke-miterlimit="10" stroke-width="3" opacity="0.5"/>
    <path id="Path_358" data-name="Path 358" d="M4308.279,3158.375l30.031-3.114,33.944,4.857" transform="translate(-3414)" fill="none" stroke="#2f2f2f" stroke-miterlimit="10" stroke-width="3" opacity="0.5"/>
    <line id="Line_238" data-name="Line 238" x1="43.837" y2="8.411" transform="translate(843.31 3214.849)" fill="none" stroke="#2f2f2f" stroke-linecap="round" stroke-linejoin="round" stroke-width="3" opacity="0.5"/>
    <path id="Path_359" data-name="Path 359" d="M4291.915,3165.654l-1.461,17.5,10.694,31.7" transform="translate(-3414)" fill="none" stroke="#2f2f2f" stroke-linecap="round" stroke-linejoin="round" stroke-width="3" opacity="0.5"/>
    <line id="Line_239" data-name="Line 239" y1="25.5" x2="12.214" transform="translate(996.096 3108.26)" fill="none" stroke="#2f2f2f" stroke-linecap="round" stroke-linejoin="round" stroke-width="3" opacity="0.5"/>
    <line id="Line_240" data-name="Line 240" y1="10" x2="22" transform="translate(1005.31 3138.26)" fill="none" stroke="#2f2f2f" stroke-linecap="round" stroke-linejoin="round" stroke-width="3" opacity="0.5"/>
    <line id="Line_241" data-name="Line 241" x2="16.679" y2="9.893" transform="translate(1000.31 3173.26)" fill="none" stroke="#2f2f2f" stroke-linecap="round" stroke-linejoin="round" stroke-width="3" opacity="0.5"/>
    <line id="Line_242" data-name="Line 242" x2="2" y2="18" transform="translate(977.31 3189.26)" fill="none" stroke="#2f2f2f" stroke-linecap="round" stroke-linejoin="round" stroke-width="3" opacity="0.5"/>
    <line id="Line_243" data-name="Line 243" x1="9.643" y2="19" transform="translate(940.81 3192.26)" fill="none" stroke="#2f2f2f" stroke-linecap="round" stroke-linejoin="round" stroke-width="3" opacity="0.5"/>
    <line id="Line_244" data-name="Line 244" y1="23.414" transform="translate(921.422 3064.76)" fill="none" stroke="#2f2f2f" stroke-linecap="round" stroke-linejoin="round" stroke-width="3" opacity="0.5"/>
    <line id="Line_245" data-name="Line 245" y1="26.414" transform="translate(887.422 3036.76)" fill="none" stroke="#2f2f2f" stroke-linecap="round" stroke-linejoin="round" stroke-width="3" opacity="0.5"/>
    <path id="Path_360" data-name="Path 360" d="M4238.31,3246.1l-6.627,30.59,6.627,50.571" transform="translate(-3414)" fill="none" stroke="#2f2f2f" stroke-linecap="round" stroke-linejoin="round" stroke-width="3" opacity="0.5"/>
    <line id="Line_246" data-name="Line 246" x1="46.628" y2="4.429" transform="translate(817.683 3272.26)" fill="none" stroke="#2f2f2f" stroke-linecap="round" stroke-linejoin="round" stroke-width="3" opacity="0.5"/>
    <line id="Line_247" data-name="Line 247" x1="45.5" transform="translate(824.31 3322.332)" fill="none" stroke="#2f2f2f" stroke-linecap="round" stroke-linejoin="round" stroke-width="3" opacity="0.5"/>
    <line id="Line_248" data-name="Line 248" x1="45.5" y1="6" transform="translate(824.31 3347.189)" fill="none" stroke="#2f2f2f" stroke-linecap="round" stroke-linejoin="round" stroke-width="3" opacity="0.5"/>
    <line id="Line_249" data-name="Line 249" x1="0.654" y1="15.786" transform="translate(803.703 3359.26)" fill="none" stroke="#2f2f2f" stroke-linecap="round" stroke-linejoin="round" stroke-width="3" opacity="0.5"/>
  </g>
</svg>
