<svg xmlns="http://www.w3.org/2000/svg" width="339.927" height="458" viewBox="0 0 339.927 458">
  <g id="Group_156" data-name="Group 156" transform="translate(-2095.435 -2111.296)">
    <path id="Path_271" data-name="Path 271" d="M5716.328,2448.58h-23.283q-7.192.042-14.386.041" transform="translate(-3414)" fill="none" stroke="#2f2f2f" stroke-linecap="round" stroke-linejoin="round" stroke-width="4"/>
    <line id="Line_206" data-name="Line 206" x1="26.787" y1="0.001" transform="translate(2302.328 2448.58)" fill="none" stroke="#2f2f2f" stroke-linecap="round" stroke-linejoin="round" stroke-width="4"/>
    <path id="Path_272" data-name="Path 272" d="M5678.741,2278.116q51.862,0,103.726-.03c1.328,0,1.737.261,1.736,1.678-.042,50.207-.1,92.414.012,142.621a25.915,25.915,0,0,1-17.519,24.951,23.846,23.846,0,0,1-7.383,1.26c-5.4.022-10.8.046-16.2-.015" transform="translate(-3414)" fill="none" stroke="#2f2f2f" stroke-linecap="round" stroke-linejoin="round" stroke-width="5"/>
    <path id="Path_273" data-name="Path 273" d="M5678.659,2448.62q-7.229,0-14.458-.039c-1.168-.006-1.394.367-1.393,1.444q.045,25.293.007,50.585A23.438,23.438,0,0,1,5647.7,2522.9a23.682,23.682,0,0,1-31.922-18.814,30.919,30.919,0,0,1-.23-4.1c0-16.53-.025-33.061.039-49.591.006-1.544-.464-1.834-1.882-1.81-4.972.084-9.946.046-14.919.03a25.5,25.5,0,0,1-25.5-22.3,28.364,28.364,0,0,1-.153-3.83c-.007-50.254,0-92.509-.035-142.763,0-1.3.336-1.631,1.635-1.63q52,.056,104.011.029" transform="translate(-3414)" fill="none" stroke="#2f2f2f" stroke-linecap="round" stroke-linejoin="round" stroke-width="5"/>
    <path id="Path_274" data-name="Path 274" d="M5736.082,2180.155a99.781,99.781,0,0,1,35.356,35.274,90.107,90.107,0,0,1,12.443,38.992c.174,2.128.181,4.256.3,6.382.041.754-.218,1.051-.956,1-.377-.028-.757,0-1.136,0H5678.5" transform="translate(-3414)" fill="none" stroke="#2f2f2f" stroke-linecap="round" stroke-linejoin="round" stroke-width="5"/>
    <path id="Path_275" data-name="Path 275" d="M5678.659,2164.463a111.042,111.042,0,0,1,36.928,6.148" transform="translate(-3414)" fill="none" stroke="#2f2f2f" stroke-linecap="round" stroke-linejoin="round" stroke-width="4"/>
    <path id="Path_276" data-name="Path 276" d="M5629.886,2205.544a8.675,8.675,0,0,0-8.73,8.749,8.838,8.838,0,0,0,8.819,8.865,8.951,8.951,0,0,0,8.793-8.812A8.831,8.831,0,0,0,5629.886,2205.544Z" transform="translate(-3414)" fill="none" stroke="#2f2f2f" stroke-linecap="round" stroke-linejoin="round" stroke-width="5"/>
    <path id="Path_277" data-name="Path 277" d="M5559.229,2340.055c0,16.293.048,32.587-.018,48.88-.041,9.981-4.611,17.376-13.549,21.73-14.4,7.016-31.5-2.453-33.509-18.356a25.965,25.965,0,0,1-.218-3.254q0-49.023.006-98.044a23.6,23.6,0,0,1,18.736-23.441c13.823-3.137,27.777,7.33,28.454,21.477.24,5.01.092,10.038.1,15.059Q5559.24,2322.081,5559.229,2340.055Z" transform="translate(-3414)" fill="none" stroke="#2f2f2f" stroke-linecap="round" stroke-linejoin="round" stroke-width="5"/>
    <line id="Line_207" data-name="Line 207" y2="458" transform="translate(2264.185 2111.296)" fill="none" stroke="#2f2f2f" stroke-miterlimit="10" stroke-width="5" stroke-dasharray="20"/>
    <path id="Path_278" data-name="Path 278" d="M5727.427,2208.8a5.59,5.59,0,0,0-5.654,5.5,5.668,5.668,0,0,0,5.59,5.608,5.566,5.566,0,0,0,5.522-5.545A5.465,5.465,0,0,0,5727.427,2208.8Zm20.465,5.5-10.1,17.5h-20.207l-10.1-17.5,10.1-17.5h20.207Z" transform="translate(-3414)" fill="none" stroke="#2f2f2f" stroke-linecap="round" stroke-linejoin="round" stroke-width="5"/>
    <g id="Group_90" data-name="Group 90" transform="translate(-3414)">
      <path id="Path_279" data-name="Path 279" d="M5724.237,2173.125l11.994-4.613-1.8-12.727,11.994-4.613-1.794-12.73,12-4.619" fill="none" stroke="#2f2f2f" stroke-linecap="round" stroke-linejoin="round" stroke-width="5"/>
    </g>
    <path id="Path_280" data-name="Path 280" d="M5678.741,2299.314H5744.5a13.294,13.294,0,0,1,13.294,13.295v99.321a13.3,13.3,0,0,1-13.294,13.3h-66.313" transform="translate(-3414)" fill="none" stroke="#2f2f2f" stroke-linecap="round" stroke-linejoin="round" stroke-width="5"/>
    <path id="Path_281" data-name="Path 281" d="M5741.691,2396.262c-1.411-.07-2.727-.128-4.041-.2a5.821,5.821,0,0,0-5.882,5.514c-.019,5.367.889,3.909-4.007,5.847-3.579,1.417-2.884,1.874-5.23-1.334-1.915-2.617-4.386-2.3-6.885-2.251-.643.013-1.323.867-1.891,1.43-3.672,3.64-2.357,3.283-6.889,1.312-3.681-1.6-3.392-.914-2.813-4.8.481-3.229-1.505-4.733-3.324-6.4-.6-.547-1.987-.287-3.016-.3-4.195-.058-3.4.607-4.885-3.32-1.682-4.449-2.063-3.2,1.643-6.509a5.694,5.694,0,0,0,.2-8.381c-3.529-3.528-3.163-2.209-1.293-6.444,1.81-4.1.859-3.677,5.091-3.084,3.2.448,4.528-1.685,6.267-3.356.421-.405.3-1.457.293-2.21-.027-5.277-.707-4.1,3.957-5.94,3.48-1.374,3.032-1.724,5.26,1.389,1.894,2.645,4.375,2.364,6.871,2.284.735-.023,1.5-1,2.146-1.644,2.862-2.821,2.856-2.851,6.468-1.209,3.874,1.761,3.583.867,3,5.175-.429,3.187,1.625,4.641,3.449,6.155.808.671,2.558.408,3.844.258,1.979-.232,2.924.469,3.588,2.382,1.642,4.732,1.719,4.665-1.978,8.141A4.752,4.752,0,0,0,5740.6,2381c-.8,3.091.692,5.235,3.056,6.959a2.113,2.113,0,0,1,.635,3.135c-.692,1.251-1.172,2.618-1.783,3.916A10.593,10.593,0,0,1,5741.691,2396.262Zm-26.759-22.672a8.842,8.842,0,0,0-5.234,11.345,8.931,8.931,0,0,0,11.4,5.162,8.744,8.744,0,0,0,5.131-11.35A8.643,8.643,0,0,0,5714.932,2373.59Z" transform="translate(-3414)" fill="none" stroke="#2f2f2f" stroke-miterlimit="10" stroke-width="5"/>
    <circle id="Ellipse_80" data-name="Ellipse 80" cx="21.231" cy="21.231" r="21.231" transform="translate(2388.165 2334.161)" fill="none" stroke="#2f2f2f" stroke-miterlimit="10" stroke-width="5"/>
    <line id="Line_208" data-name="Line 208" y2="34.962" transform="translate(2420.198 2302.039)" fill="none" stroke="#2f2f2f" stroke-linecap="round" stroke-linejoin="round" stroke-width="5"/>
    <line id="Line_209" data-name="Line 209" y1="35.541" transform="translate(2397.849 2302.039)" fill="none" stroke="#2f2f2f" stroke-linecap="round" stroke-linejoin="round" stroke-width="5"/>
    <path id="Path_282" data-name="Path 282" d="M5822.279,2265.909a19.281,19.281,0,0,0-8.086,1.769,19.382,19.382,0,0,1-10.647,22.534,19.37,19.37,0,1,0,18.733-24.3Z" transform="translate(-3414)" fill="none" stroke="#2f2f2f" stroke-linecap="round" stroke-linejoin="round" stroke-width="5"/>
    <line id="Line_210" data-name="Line 210" y2="35.004" transform="translate(2419.998 2373.57)" fill="none" stroke="#2f2f2f" stroke-linejoin="round" stroke-width="5"/>
    <line id="Line_211" data-name="Line 211" y1="34.119" transform="translate(2397.65 2373.225)" fill="none" stroke="#2f2f2f" stroke-linejoin="round" stroke-width="5"/>
    <line id="Line_212" data-name="Line 212" x1="21.604" transform="translate(2398.767 2389.377)" fill="none" stroke="#2f2f2f" stroke-miterlimit="10" stroke-width="5"/>
    <path id="Path_283" data-name="Path 283" d="M5823.024,2405.535c-13.166,0-23.839,9.005-23.839,20.113,0,9.144,7.234,16.857,17.134,19.3v-17.439a7.077,7.077,0,0,1,14.154,0v17.244c9.516-2.64,16.389-10.194,16.389-19.107C5846.862,2414.54,5838.175,2405.535,5823.024,2405.535Z" transform="translate(-3414)" fill="none" stroke="#2f2f2f" stroke-linejoin="round" stroke-width="5"/>
    <line id="Line_213" data-name="Line 213" x1="21.604" transform="translate(2397.477 2320.035)" fill="none" stroke="#2f2f2f" stroke-miterlimit="10" stroke-width="5"/>
    <path id="Path_284" data-name="Path 284" d="M5701.54,2527.8l8.26-37.528,23.24-.039L5741,2527.8Z" transform="translate(-3414)" fill="none" stroke="#2f2f2f" stroke-linecap="round" stroke-linejoin="round" stroke-width="5"/>
    <g id="Group_91" data-name="Group 91" transform="translate(-3414)">
      <path id="Path_285" data-name="Path 285" d="M5713.534,2490.23l16-8.327-16-8.33,16-8.327-16-8.333,16-8.333" fill="none" stroke="#2f2f2f" stroke-linecap="round" stroke-linejoin="round" stroke-width="5"/>
    </g>
    <rect id="Rectangle_94" data-name="Rectangle 94" width="36" height="20" transform="translate(2292.685 2317.296)" fill="none" stroke="#2f2f2f" stroke-miterlimit="10" stroke-width="4"/>
    <line id="Line_214" data-name="Line 214" y2="9.218" transform="translate(2289.685 2322.296)" fill="none" stroke="#2f2f2f" stroke-linecap="round" stroke-miterlimit="10" stroke-width="4"/>
    <rect id="Rectangle_95" data-name="Rectangle 95" width="19" height="20" transform="translate(2309.185 2316.796)" fill="#2f2f2f" opacity="0.8"/>
    <path id="Path_286" data-name="Path 286" d="M5678.5,2261.8H5575.054c-1.938,0-1.952,0-1.906-1.853.581-23.123,9-43.1,24.292-60.286a100.662,100.662,0,0,1,28.052-21.926l.841-.795c-5.723-10.24-10.388-19.514-16.072-29.776a6.687,6.687,0,0,1-.99-2.316,4.317,4.317,0,0,1,2.742-4.786,4.248,4.248,0,0,1,5.265,2.086c2.416,4.258,4.77,8.551,7.144,12.832,3.585,6.467,6.188,11.925,9.746,18.407l.086.11a110.085,110.085,0,0,1,34.529-8.6q4.971-.42,9.876-.432" transform="translate(-3414)" fill="none" stroke="#2f2f2f" stroke-linecap="round" stroke-linejoin="round" stroke-width="5"/>
  </g>
</svg>
