<svg xmlns="http://www.w3.org/2000/svg" width="289.092" height="344.854" viewBox="0 0 289.092 344.854">
  <g id="Group_160" data-name="Group 160" transform="translate(-1416.924 -1324.403)">
    <path id="Path_226" data-name="Path 226" d="M5082.755,1519.2l8.109,39.875v89.786l-8.5,17.9h-11.472V1518.928Z" transform="translate(-3414)" fill="none" stroke="#2f2f2f" stroke-miterlimit="10" stroke-width="5"/>
    <path id="Path_227" data-name="Path 227" d="M5059.221,1518.928v147.829s-9.357-2.971-9.357-15.328V1543.072C5049.864,1532.072,5053.651,1518.928,5059.221,1518.928Z" transform="translate(-3414)" fill="#2f2f2f"/>
    <line id="Line_185" data-name="Line 185" y2="143.357" transform="translate(1698.255 1507.546)" fill="none" stroke="#2f2f2f" stroke-linecap="round" stroke-miterlimit="10" stroke-width="12"/>
    <path id="Path_228" data-name="Path 228" d="M4866.524,1519.067l-8.109,39.875v89.786l8.5,17.9h11.472V1518.8Z" transform="translate(-3414)" fill="none" stroke="#2f2f2f" stroke-miterlimit="10" stroke-width="5"/>
    <path id="Path_229" data-name="Path 229" d="M4890.058,1518.8v147.829s9.358-2.971,9.358-15.328V1542.943C4899.416,1531.943,4895.628,1518.8,4890.058,1518.8Z" transform="translate(-3414)" fill="#2f2f2f"/>
    <line id="Line_186" data-name="Line 186" y2="143.357" transform="translate(1423.024 1507.417)" fill="none" stroke="#2f2f2f" stroke-linecap="round" stroke-miterlimit="10" stroke-width="12"/>
    <path id="Path_230" data-name="Path 230" d="M4973.594,1349.75" transform="translate(-3414)" fill="#2f2f2f"/>
    <path id="Path_231" data-name="Path 231" d="M4833.471,1480.3s-3.133-153.393,139.041-153.393,144.995,134.925,144.995,153.159c0,0,.319,11.091-5.251,11.091s-5.571-10.857-5.571-10.857c0-44-32.5-130.546-133.091-130.546S4844.685,1452.8,4844.685,1479.8c0,0-.714,11.357-5.357,11.357C4832.685,1491.153,4833.471,1480.3,4833.471,1480.3Z" transform="translate(-3414)" fill="none" stroke="#2f2f2f" stroke-miterlimit="10" stroke-width="5"/>
    <line id="Line_187" data-name="Line 187" y2="18" transform="translate(1496.685 1579.796)" fill="none" stroke="#2f2f2f" stroke-linecap="round" stroke-miterlimit="10" stroke-width="3"/>
    <line id="Line_188" data-name="Line 188" y2="55" transform="translate(1512.685 1561.796)" fill="none" stroke="#2f2f2f" stroke-linecap="round" stroke-miterlimit="10" stroke-width="5"/>
    <line id="Line_189" data-name="Line 189" y2="42" transform="translate(1528.685 1567.796)" fill="none" stroke="#2f2f2f" stroke-linecap="round" stroke-miterlimit="10" stroke-width="5"/>
    <line id="Line_190" data-name="Line 190" y2="55" transform="translate(1544.685 1561.796)" fill="none" stroke="#2f2f2f" stroke-linecap="round" stroke-miterlimit="10" stroke-width="5"/>
    <line id="Line_191" data-name="Line 191" y2="30" transform="translate(1560.685 1573.796)" fill="none" stroke="#2f2f2f" stroke-linecap="round" stroke-miterlimit="10" stroke-width="5"/>
    <line id="Line_192" data-name="Line 192" y2="55" transform="translate(1576.685 1561.796)" fill="none" stroke="#2f2f2f" stroke-linecap="round" stroke-miterlimit="10" stroke-width="5"/>
    <line id="Line_193" data-name="Line 193" y2="18" transform="translate(1592.685 1579.796)" fill="none" stroke="#2f2f2f" stroke-linecap="round" stroke-miterlimit="10" stroke-width="5"/>
    <line id="Line_194" data-name="Line 194" y2="55" transform="translate(1608.685 1561.796)" fill="none" stroke="#2f2f2f" stroke-linecap="round" stroke-miterlimit="10" stroke-width="5"/>
    <line id="Line_195" data-name="Line 195" y2="18" transform="translate(1624.685 1580.296)" fill="none" stroke="#2f2f2f" stroke-linecap="round" stroke-miterlimit="10" stroke-width="5"/>
  </g>
</svg>
