<svg xmlns="http://www.w3.org/2000/svg" width="388.821" height="459.475" viewBox="0 0 388.821 459.475">
  <g id="Group_152" data-name="Group 152" transform="translate(-600.864 -3830.613)">
    <rect id="Rectangle_106" data-name="Rectangle 106" width="138.339" height="19.331" rx="3.018" transform="translate(676.135 4131.234)" fill="none" stroke="#2f2f2f" stroke-miterlimit="10" stroke-width="5"/>
    <rect id="Rectangle_107" data-name="Rectangle 107" width="138.339" height="19.331" rx="3.018" transform="translate(676.615 4174.125)" fill="none" stroke="#2f2f2f" stroke-miterlimit="10" stroke-width="5"/>
    <rect id="Rectangle_108" data-name="Rectangle 108" width="138.339" height="19.331" rx="3.018" transform="translate(676.615 4215.203)" fill="none" stroke="#2f2f2f" stroke-miterlimit="10" stroke-width="5"/>
    <line id="Line_250" data-name="Line 250" x2="58.351" transform="translate(690.252 4014.654)" fill="none" stroke="#2f2f2f" stroke-miterlimit="10" stroke-width="7"/>
    <line id="Line_251" data-name="Line 251" x2="58.351" transform="translate(690.723 4031.83)" fill="none" stroke="#2f2f2f" stroke-miterlimit="10" stroke-width="7"/>
    <line id="Line_252" data-name="Line 252" x2="58.351" transform="translate(690.723 4049.006)" fill="none" stroke="#2f2f2f" stroke-miterlimit="10" stroke-width="7"/>
    <line id="Line_253" data-name="Line 253" x2="58.351" transform="translate(690.252 4066.182)" fill="none" stroke="#2f2f2f" stroke-miterlimit="10" stroke-width="7"/>
    <line id="Line_254" data-name="Line 254" x2="58.351" transform="translate(690.723 4083.358)" fill="none" stroke="#2f2f2f" stroke-miterlimit="10" stroke-width="7"/>
    <rect id="Rectangle_109" data-name="Rectangle 109" width="43.293" height="31.058" rx="4.321" transform="translate(609.784 4048.535)" fill="none" stroke="#2f2f2f" stroke-miterlimit="10" stroke-width="5"/>
    <rect id="Rectangle_110" data-name="Rectangle 110" width="31.999" height="17.882" rx="4.321" transform="translate(609.784 4087.122)" fill="none" stroke="#2f2f2f" stroke-miterlimit="10" stroke-width="5"/>
    <circle id="Ellipse_89" data-name="Ellipse 89" cx="17.882" cy="17.882" r="17.882" transform="translate(840.366 4204.766)" fill="none" stroke="#2f2f2f" stroke-miterlimit="10" stroke-width="5"/>
    <path id="Path_362" data-name="Path 362" d="M4289.585,4218.642h5.385c2.7,0,3.622.132,3.622,4.422s.4,5.231-4.5,5.231h-4.9" transform="translate(-3414)" fill="#2f2f2f"/>
    <path id="Path_363" data-name="Path 363" d="M4293.894,4222.647h43.7V4113.475" transform="translate(-3414)" fill="none" stroke="#2f2f2f" stroke-miterlimit="10" stroke-width="5"/>
    <path id="Rectangle_111" data-name="Rectangle 111" d="M4.107,0H17.882a0,0,0,0,1,0,0V91.291a0,0,0,0,1,0,0H4.107A4.107,4.107,0,0,1,0,87.184V4.107A4.107,4.107,0,0,1,4.107,0Z" transform="translate(912.834 4022.183)" fill="none" stroke="#2f2f2f" stroke-miterlimit="10" stroke-width="5"/>
    <path id="Rectangle_112" data-name="Rectangle 112" d="M0,0H13.775a4.107,4.107,0,0,1,4.107,4.107V87.184a4.107,4.107,0,0,1-4.107,4.107H0a0,0,0,0,1,0,0V0A0,0,0,0,1,0,0Z" transform="translate(930.716 4022.183)" fill="none" stroke="#2f2f2f" stroke-miterlimit="10" stroke-width="5"/>
    <rect id="Rectangle_113" data-name="Rectangle 113" width="36.705" height="36.705" rx="3.964" transform="translate(857.306 4145.474)" fill="none" stroke="#2f2f2f" stroke-miterlimit="10" stroke-width="5"/>
    <rect id="Rectangle_114" data-name="Rectangle 114" width="87.527" height="87.527" rx="3.964" transform="translate(733.075 3889.481)" fill="none" stroke="#2f2f2f" stroke-miterlimit="10" stroke-width="5"/>
    <circle id="Ellipse_90" data-name="Ellipse 90" cx="7.529" cy="7.529" r="7.529" transform="translate(789.543 3902.657)" fill="#2f2f2f"/>
    <circle id="Ellipse_91" data-name="Ellipse 91" cx="7.529" cy="7.529" r="7.529" transform="translate(789.543 3949.714)" fill="#2f2f2f"/>
    <circle id="Ellipse_92" data-name="Ellipse 92" cx="7.529" cy="7.529" r="7.529" transform="translate(747.192 3949.714)" fill="#2f2f2f"/>
    <circle id="Ellipse_93" data-name="Ellipse 93" cx="7.529" cy="7.529" r="7.529" transform="translate(747.192 3902.657)" fill="#2f2f2f"/>
    <circle id="Ellipse_94" data-name="Ellipse 94" cx="7.529" cy="7.529" r="7.529" transform="translate(692.605 3879.128)" fill="none" stroke="#2f2f2f" stroke-miterlimit="10" stroke-width="5"/>
    <circle id="Ellipse_95" data-name="Ellipse 95" cx="7.529" cy="7.529" r="7.529" transform="translate(692.605 3898.892)" fill="none" stroke="#2f2f2f" stroke-miterlimit="10" stroke-width="5"/>
    <circle id="Ellipse_96" data-name="Ellipse 96" cx="7.529" cy="7.529" r="7.529" transform="translate(692.605 3918.656)" fill="none" stroke="#2f2f2f" stroke-miterlimit="10" stroke-width="5"/>
    <circle id="Ellipse_97" data-name="Ellipse 97" cx="7.529" cy="7.529" r="7.529" transform="translate(692.605 3938.421)" fill="none" stroke="#2f2f2f" stroke-miterlimit="10" stroke-width="5"/>
    <circle id="Ellipse_98" data-name="Ellipse 98" cx="7.529" cy="7.529" r="7.529" transform="translate(692.605 3958.185)" fill="none" stroke="#2f2f2f" stroke-miterlimit="10" stroke-width="5"/>
    <g id="Group_111" data-name="Group 111" transform="translate(-3414)">
      <path id="Path_364" data-name="Path 364" d="M4040.254,4105.945v70.61c9.657-.689,17.411,7.2,17.411,16.917a17.87,17.87,0,0,1-17.411,17.858V4250.8a10.907,10.907,0,0,0,10.908,10.907h316.057a10.907,10.907,0,0,0,10.908-10.907V4211.33a17.864,17.864,0,0,1,0-35.716V3957.22a17.864,17.864,0,0,1,0-35.716v-54.527a10.907,10.907,0,0,0-10.908-10.907H4051.162a10.908,10.908,0,0,0-10.908,10.907v55.468a17.864,17.864,0,0,1,0,35.716v89.9" fill="none" stroke="#2f2f2f" stroke-linecap="round" stroke-linejoin="round" stroke-width="5"/>
      <line id="Line_255" data-name="Line 255" y2="6.134" transform="translate(4040.254 4080.467)" fill="none" stroke="#2f2f2f" stroke-linecap="round" stroke-linejoin="round" stroke-width="5"/>
    </g>
    <circle id="Ellipse_99" data-name="Ellipse 99" cx="3.765" cy="3.765" r="3.765" transform="translate(779.662 4005.713)" fill="#2f2f2f"/>
    <circle id="Ellipse_100" data-name="Ellipse 100" cx="3.765" cy="3.765" r="3.765" transform="translate(798.955 4006.183)" fill="#2f2f2f"/>
    <circle id="Ellipse_101" data-name="Ellipse 101" cx="3.765" cy="3.765" r="3.765" transform="translate(818.719 4006.183)" fill="#2f2f2f"/>
    <circle id="Ellipse_102" data-name="Ellipse 102" cx="3.765" cy="3.765" r="3.765" transform="translate(839.424 4006.183)" fill="#2f2f2f"/>
    <circle id="Ellipse_103" data-name="Ellipse 103" cx="3.765" cy="3.765" r="3.765" transform="translate(779.662 4024.536)" fill="#2f2f2f"/>
    <circle id="Ellipse_104" data-name="Ellipse 104" cx="3.765" cy="3.765" r="3.765" transform="translate(798.955 4025.006)" fill="#2f2f2f"/>
    <circle id="Ellipse_105" data-name="Ellipse 105" cx="3.765" cy="3.765" r="3.765" transform="translate(818.719 4025.006)" fill="#2f2f2f"/>
    <circle id="Ellipse_106" data-name="Ellipse 106" cx="3.765" cy="3.765" r="3.765" transform="translate(839.424 4025.006)" fill="#2f2f2f"/>
    <circle id="Ellipse_107" data-name="Ellipse 107" cx="3.765" cy="3.765" r="3.765" transform="translate(779.662 4041.477)" fill="#2f2f2f"/>
    <circle id="Ellipse_108" data-name="Ellipse 108" cx="3.765" cy="3.765" r="3.765" transform="translate(798.955 4041.947)" fill="#2f2f2f"/>
    <circle id="Ellipse_109" data-name="Ellipse 109" cx="3.765" cy="3.765" r="3.765" transform="translate(818.719 4041.947)" fill="#2f2f2f"/>
    <circle id="Ellipse_110" data-name="Ellipse 110" cx="3.765" cy="3.765" r="3.765" transform="translate(839.424 4041.947)" fill="#2f2f2f"/>
    <circle id="Ellipse_111" data-name="Ellipse 111" cx="3.765" cy="3.765" r="3.765" transform="translate(779.662 4061.241)" fill="#2f2f2f"/>
    <circle id="Ellipse_112" data-name="Ellipse 112" cx="3.765" cy="3.765" r="3.765" transform="translate(798.955 4061.711)" fill="#2f2f2f"/>
    <circle id="Ellipse_113" data-name="Ellipse 113" cx="3.765" cy="3.765" r="3.765" transform="translate(818.719 4061.711)" fill="#2f2f2f"/>
    <circle id="Ellipse_114" data-name="Ellipse 114" cx="3.765" cy="3.765" r="3.765" transform="translate(839.424 4061.711)" fill="#2f2f2f"/>
    <line id="Line_256" data-name="Line 256" y2="159.995" transform="translate(884.6 3898.892)" fill="none" stroke="#2f2f2f" stroke-linecap="round" stroke-miterlimit="10" stroke-width="10"/>
    <line id="Line_257" data-name="Line 257" y2="23.188" transform="translate(930.716 4264.059)" fill="none" stroke="#2f2f2f" stroke-linecap="round" stroke-miterlimit="10" stroke-width="5"/>
    <line id="Line_258" data-name="Line 258" y2="23.188" transform="translate(902.011 4264.4)" fill="none" stroke="#2f2f2f" stroke-linecap="round" stroke-miterlimit="10" stroke-width="5"/>
    <line id="Line_259" data-name="Line 259" y2="23.188" transform="translate(876.129 4264.059)" fill="none" stroke="#2f2f2f" stroke-linecap="round" stroke-miterlimit="10" stroke-width="5"/>
    <line id="Line_260" data-name="Line 260" y2="23.188" transform="translate(847.424 4264.4)" fill="none" stroke="#2f2f2f" stroke-linecap="round" stroke-miterlimit="10" stroke-width="5"/>
    <line id="Line_261" data-name="Line 261" y2="23.188" transform="translate(819.661 4264.059)" fill="none" stroke="#2f2f2f" stroke-linecap="round" stroke-miterlimit="10" stroke-width="5"/>
    <line id="Line_262" data-name="Line 262" y2="23.188" transform="translate(790.956 4264.4)" fill="none" stroke="#2f2f2f" stroke-linecap="round" stroke-miterlimit="10" stroke-width="5"/>
    <line id="Line_263" data-name="Line 263" y2="23.188" transform="translate(765.074 4264.059)" fill="none" stroke="#2f2f2f" stroke-linecap="round" stroke-miterlimit="10" stroke-width="5"/>
    <line id="Line_264" data-name="Line 264" y2="23.188" transform="translate(736.369 4264.4)" fill="none" stroke="#2f2f2f" stroke-linecap="round" stroke-miterlimit="10" stroke-width="5"/>
    <line id="Line_265" data-name="Line 265" y2="23.188" transform="translate(709.076 4264.4)" fill="none" stroke="#2f2f2f" stroke-linecap="round" stroke-miterlimit="10" stroke-width="5"/>
    <line id="Line_266" data-name="Line 266" y2="23.188" transform="translate(683.194 4264.059)" fill="none" stroke="#2f2f2f" stroke-linecap="round" stroke-miterlimit="10" stroke-width="5"/>
    <line id="Line_267" data-name="Line 267" y2="23.188" transform="translate(654.489 4264.4)" fill="none" stroke="#2f2f2f" stroke-linecap="round" stroke-miterlimit="10" stroke-width="5"/>
    <line id="Line_268" data-name="Line 268" x1="22.326" transform="translate(964.53 4161.81)" fill="none" stroke="#2f2f2f" stroke-linecap="round" stroke-miterlimit="10" stroke-width="5"/>
    <line id="Line_269" data-name="Line 269" x1="22.326" transform="translate(964.859 4134.046)" fill="none" stroke="#2f2f2f" stroke-linecap="round" stroke-miterlimit="10" stroke-width="5"/>
    <line id="Line_270" data-name="Line 270" x1="22.326" transform="translate(964.53 4105.341)" fill="none" stroke="#2f2f2f" stroke-linecap="round" stroke-miterlimit="10" stroke-width="5"/>
    <line id="Line_271" data-name="Line 271" x1="22.326" transform="translate(964.859 4079.459)" fill="none" stroke="#2f2f2f" stroke-linecap="round" stroke-miterlimit="10" stroke-width="5"/>
    <line id="Line_272" data-name="Line 272" x1="22.326" transform="translate(964.53 4050.754)" fill="none" stroke="#2f2f2f" stroke-linecap="round" stroke-miterlimit="10" stroke-width="5"/>
    <line id="Line_273" data-name="Line 273" x1="22.326" transform="translate(964.53 4023.461)" fill="none" stroke="#2f2f2f" stroke-linecap="round" stroke-miterlimit="10" stroke-width="5"/>
    <line id="Line_274" data-name="Line 274" x1="22.326" transform="translate(964.859 3997.579)" fill="none" stroke="#2f2f2f" stroke-linecap="round" stroke-miterlimit="10" stroke-width="5"/>
    <line id="Line_275" data-name="Line 275" x1="22.326" transform="translate(964.53 3968.874)" fill="none" stroke="#2f2f2f" stroke-linecap="round" stroke-miterlimit="10" stroke-width="5"/>
    <line id="Line_276" data-name="Line 276" y1="22.326" transform="translate(661.48 3833.113)" fill="none" stroke="#2f2f2f" stroke-linecap="round" stroke-miterlimit="10" stroke-width="5"/>
    <line id="Line_277" data-name="Line 277" y1="22.326" transform="translate(689.244 3833.441)" fill="none" stroke="#2f2f2f" stroke-linecap="round" stroke-miterlimit="10" stroke-width="5"/>
    <line id="Line_278" data-name="Line 278" y1="22.326" transform="translate(717.949 3833.113)" fill="none" stroke="#2f2f2f" stroke-linecap="round" stroke-miterlimit="10" stroke-width="5"/>
    <line id="Line_279" data-name="Line 279" y1="22.326" transform="translate(743.831 3833.441)" fill="none" stroke="#2f2f2f" stroke-linecap="round" stroke-miterlimit="10" stroke-width="5"/>
    <line id="Line_280" data-name="Line 280" y1="22.326" transform="translate(772.536 3833.113)" fill="none" stroke="#2f2f2f" stroke-linecap="round" stroke-miterlimit="10" stroke-width="5"/>
    <line id="Line_281" data-name="Line 281" y1="22.326" transform="translate(799.829 3833.113)" fill="none" stroke="#2f2f2f" stroke-linecap="round" stroke-miterlimit="10" stroke-width="5"/>
    <line id="Line_282" data-name="Line 282" y1="22.326" transform="translate(825.71 3833.441)" fill="none" stroke="#2f2f2f" stroke-linecap="round" stroke-miterlimit="10" stroke-width="5"/>
    <line id="Line_283" data-name="Line 283" y1="22.326" transform="translate(854.416 3833.113)" fill="none" stroke="#2f2f2f" stroke-linecap="round" stroke-miterlimit="10" stroke-width="5"/>
    <line id="Line_284" data-name="Line 284" y1="22.326" transform="translate(877.81 3833.18)" fill="none" stroke="#2f2f2f" stroke-linecap="round" stroke-miterlimit="10" stroke-width="5"/>
    <line id="Line_285" data-name="Line 285" y1="22.326" transform="translate(903.691 3833.508)" fill="none" stroke="#2f2f2f" stroke-linecap="round" stroke-miterlimit="10" stroke-width="5"/>
    <line id="Line_286" data-name="Line 286" y1="22.326" transform="translate(932.396 3833.18)" fill="none" stroke="#2f2f2f" stroke-linecap="round" stroke-miterlimit="10" stroke-width="5"/>
    <line id="Line_287" data-name="Line 287" x2="22.326" transform="translate(603.692 3975.865)" fill="none" stroke="#2f2f2f" stroke-linecap="round" stroke-miterlimit="10" stroke-width="5"/>
    <line id="Line_288" data-name="Line 288" x2="22.326" transform="translate(603.364 4001.747)" fill="none" stroke="#2f2f2f" stroke-linecap="round" stroke-miterlimit="10" stroke-width="5"/>
    <line id="Line_289" data-name="Line 289" x2="22.326" transform="translate(603.692 4030.452)" fill="none" stroke="#2f2f2f" stroke-linecap="round" stroke-miterlimit="10" stroke-width="5"/>
    <line id="Line_290" data-name="Line 290" x2="22.326" transform="translate(603.692 4125.508)" fill="none" stroke="#2f2f2f" stroke-linecap="round" stroke-miterlimit="10" stroke-width="5"/>
    <line id="Line_291" data-name="Line 291" x2="22.326" transform="translate(603.364 4151.389)" fill="none" stroke="#2f2f2f" stroke-linecap="round" stroke-miterlimit="10" stroke-width="5"/>
  </g>
</svg>
