<?xml version="1.0" standalone="no"?>
<!DOCTYPE svg PUBLIC "-//W3C//DTD SVG 20010904//EN"
 "http://www.w3.org/TR/2001/REC-SVG-20010904/DTD/svg10.dtd">
<svg version="1.0" xmlns="http://www.w3.org/2000/svg"
 width="752.000000pt" height="752.000000pt" viewBox="0 0 752.000000 752.000000"
 preserveAspectRatio="xMidYMid meet">

<g transform="translate(0.000000,752.000000) scale(0.100000,-0.100000)"
fill="#000000" stroke="none">
<path d="M3675 5542 c-37 -13 -564 -291 -583 -307 -4 -4 655 -355 668 -355 7
0 161 79 342 177 l328 176 -28 17 c-105 63 -532 285 -569 296 -60 18 -97 17
-158 -4z"/>
<path d="M2530 4934 c-179 -96 -331 -181 -338 -188 -11 -11 40 -42 290 -176
167 -90 315 -170 330 -178 25 -15 34 -11 355 162 181 97 337 182 346 189 15
10 -29 37 -312 190 -182 97 -334 177 -338 177 -4 0 -154 -80 -333 -176z"/>
<path d="M4318 4932 c-281 -152 -325 -179 -311 -189 21 -16 667 -363 675 -363
8 0 640 340 651 350 5 4 -4 16 -20 27 -41 29 -648 353 -659 352 -5 0 -156 -80
-336 -177z"/>
<path d="M3417 4446 c-186 -101 -339 -186 -338 -191 0 -4 153 -90 341 -191
l341 -183 345 186 c190 102 342 189 337 193 -9 9 -656 358 -675 365 -7 2 -165
-78 -351 -179z"/>
<path d="M2060 4193 l0 -358 329 -177 c182 -98 332 -178 335 -178 4 0 6 161 6
358 l0 357 -326 175 c-179 96 -329 177 -335 178 -5 2 -9 -133 -9 -355z"/>
<path d="M5118 4372 l-328 -177 0 -357 c0 -197 3 -358 6 -358 4 0 154 80 335
177 l329 177 0 358 c0 197 -3 358 -7 357 -5 0 -155 -80 -335 -177z"/>
<path d="M2942 3714 l3 -355 350 -189 350 -189 3 357 c1 195 -1 359 -5 363
-15 13 -682 369 -693 369 -7 0 -9 -107 -8 -356z"/>
<path d="M4213 3883 l-343 -185 0 -360 0 -359 113 60 c61 33 220 118 352 189
l240 130 3 356 c2 282 0 356 -10 355 -7 0 -167 -84 -355 -186z"/>
<path d="M2060 3268 c0 -319 0 -324 24 -374 13 -28 39 -66 58 -84 19 -18 158
-99 309 -181 l274 -148 3 367 c1 202 0 372 -2 378 -3 8 -447 252 -643 353
l-23 12 0 -323z"/>
<path d="M5132 3416 c-178 -96 -328 -178 -333 -183 -5 -5 -8 -165 -7 -381 l3
-371 273 147 c150 81 289 162 309 181 19 19 46 57 59 86 24 52 24 53 22 373
l-3 322 -323 -174z"/>
<path d="M2940 2738 l0 -373 349 -188 c192 -103 352 -187 355 -187 3 0 6 168
6 373 l0 374 -342 184 c-188 101 -348 185 -355 187 -11 3 -13 -68 -13 -370z"/>
<path d="M4213 2922 l-343 -186 0 -373 c0 -205 3 -373 7 -373 3 0 163 84 355
187 l348 188 0 372 c0 292 -3 373 -12 372 -7 -1 -167 -85 -355 -187z"/>
</g>
</svg>
