<?xml version="1.0" standalone="no"?>
<!DOCTYPE svg PUBLIC "-//W3C//DTD SVG 20010904//EN"
 "http://www.w3.org/TR/2001/REC-SVG-20010904/DTD/svg10.dtd">
<svg version="1.0" xmlns="http://www.w3.org/2000/svg"
 width="752.000000pt" height="752.000000pt" viewBox="0 0 752.000000 752.000000"
 preserveAspectRatio="xMidYMid meet">

<g transform="translate(0.000000,752.000000) scale(0.100000,-0.100000)"
fill="#000000" stroke="none">
<path d="M3695 6119 c-16 -5 -142 -67 -280 -137 -254 -129 -273 -143 -244
-179 8 -8 130 -73 272 -144 243 -121 262 -129 317 -129 55 0 74 8 317 129 142
71 264 136 272 144 29 36 10 50 -258 185 -278 141 -323 156 -396 131z"/>
<path d="M2713 5631 c-142 -71 -264 -136 -272 -144 -29 -36 -10 -50 259 -186
354 -180 305 -179 657 -3 268 135 292 152 262 189 -8 8 -130 73 -272 144 -243
121 -262 129 -317 129 -55 0 -74 -8 -317 -129z"/>
<path d="M4173 5631 c-142 -71 -264 -136 -272 -144 -30 -37 -6 -54 262 -189
352 -176 303 -177 657 3 269 136 288 150 259 186 -8 8 -130 73 -272 144 -243
121 -262 129 -317 129 -55 0 -74 -8 -317 -129z"/>
<path d="M2250 5393 c-14 -2 -142 -64 -285 -136 -272 -138 -290 -152 -248
-189 10 -9 132 -73 272 -142 336 -167 287 -167 628 3 142 71 264 136 272 144
30 37 6 54 -259 187 -260 130 -308 147 -380 133z"/>
<path d="M3705 5391 c-16 -4 -143 -65 -282 -134 -258 -130 -282 -147 -252
-184 8 -8 130 -73 272 -144 342 -171 292 -171 634 0 142 71 264 136 272 144
30 37 6 54 -259 187 -266 133 -314 150 -385 131z"/>
<path d="M5165 5391 c-16 -4 -143 -65 -282 -134 -258 -130 -282 -147 -252
-184 8 -8 131 -74 274 -145 l260 -130 68 4 c63 3 83 12 322 131 210 105 256
131 261 152 3 13 3 29 -1 35 -4 6 -123 69 -265 140 -266 133 -314 150 -385
131z"/>
<path d="M2708 4898 c-144 -73 -267 -141 -273 -150 -7 -12 -7 -23 0 -34 6 -9
127 -75 270 -147 348 -176 301 -176 652 1 268 135 292 152 262 189 -8 8 -130
73 -272 144 -343 171 -292 171 -639 -3z"/>
<path d="M4173 4901 c-142 -71 -264 -136 -272 -144 -30 -37 -6 -54 262 -189
353 -178 308 -178 654 -3 141 72 262 138 267 148 8 12 8 22 1 35 -6 9 -129 77
-273 150 -347 174 -296 174 -639 3z"/>
<path d="M1664 4932 c-31 -20 -34 -55 -34 -355 0 -201 4 -316 11 -338 27 -78
48 -94 311 -225 137 -68 256 -124 264 -124 8 0 23 9 34 20 20 20 21 30 18 359
l-3 337 -27 42 c-25 37 -52 53 -277 166 -241 122 -273 134 -297 118z"/>
<path d="M5557 4814 c-223 -113 -250 -129 -275 -166 l-27 -42 -3 -337 c-3
-329 -2 -339 18 -359 11 -11 26 -20 34 -20 8 0 127 56 264 124 263 131 284
147 311 225 15 47 15 634 0 664 -15 28 -29 37 -54 36 -11 0 -131 -56 -268
-125z"/>
<path d="M3705 4661 c-16 -4 -143 -65 -282 -134 -265 -133 -286 -149 -247
-188 11 -10 133 -74 272 -143 337 -168 295 -168 628 -2 137 68 257 133 267
144 38 42 21 55 -253 192 -266 133 -314 150 -385 131z"/>
<path d="M2354 4545 c-11 -27 -14 -94 -14 -323 0 -325 6 -365 62 -419 39 -37
487 -263 521 -263 13 0 32 9 43 21 18 19 19 42 22 304 2 174 -1 306 -7 341
-19 99 -37 114 -306 251 -271 138 -297 145 -321 88z"/>
<path d="M4845 4457 c-269 -137 -287 -152 -306 -251 -6 -35 -9 -167 -7 -341 3
-262 4 -285 22 -304 11 -12 30 -21 43 -21 34 0 482 226 521 263 56 54 62 94
62 419 0 332 -5 358 -62 358 -22 -1 -114 -42 -273 -123z"/>
<path d="M3080 4210 c-20 -20 -21 -30 -18 -359 l3 -337 27 -42 c25 -38 51 -53
278 -167 138 -69 259 -125 269 -125 10 0 26 9 37 21 18 20 19 43 22 328 2 211
0 318 -8 346 -24 82 -45 97 -311 230 -137 69 -256 125 -264 125 -8 0 -24 -9
-35 -20z"/>
<path d="M4138 4105 c-263 -133 -284 -148 -308 -230 -8 -28 -10 -135 -8 -346
3 -285 4 -308 22 -328 11 -12 27 -21 37 -21 10 0 130 56 267 124 224 112 251
129 278 167 l29 42 3 338 c3 329 2 339 -18 359 -11 11 -28 20 -37 19 -10 0
-129 -56 -265 -124z"/>
<path d="M1649 4023 c-11 -13 -15 -83 -17 -338 l-3 -321 28 -55 28 -54 250
-127 c138 -70 262 -127 277 -128 56 0 58 13 58 363 0 340 -3 361 -53 415 -31
34 -490 262 -526 262 -16 0 -35 -7 -42 -17z"/>
<path d="M5565 3924 c-126 -64 -241 -126 -254 -138 -13 -11 -32 -39 -42 -61
-17 -36 -19 -70 -19 -360 0 -352 2 -365 58 -365 15 1 139 58 277 128 l250 127
27 54 28 53 0 312 c0 349 -2 360 -60 363 -27 2 -86 -23 -265 -113z"/>
<path d="M2364 3669 c-18 -20 -19 -41 -19 -348 0 -314 1 -327 21 -366 12 -22
30 -47 40 -57 11 -9 130 -71 266 -139 222 -110 250 -121 272 -111 43 19 48 66
44 391 -3 280 -4 298 -24 336 -12 22 -30 47 -40 56 -28 25 -501 259 -522 259
-11 0 -27 -9 -38 -21z"/>
<path d="M4855 3568 c-132 -66 -248 -128 -259 -137 -10 -9 -28 -34 -40 -56
-20 -38 -21 -56 -24 -336 -4 -325 1 -372 44 -391 22 -10 50 1 272 111 136 68
255 130 266 139 10 10 28 35 40 57 20 39 21 52 21 366 0 307 -1 328 -19 348
-11 12 -29 21 -40 20 -12 0 -129 -54 -261 -121z"/>
<path d="M3077 3312 c-15 -17 -17 -55 -17 -341 0 -345 3 -365 53 -419 28 -31
489 -262 521 -262 28 0 54 22 62 54 3 12 4 161 2 332 l-3 311 -30 48 c-29 47
-38 52 -275 171 -135 68 -257 123 -271 123 -14 1 -33 -7 -42 -17z"/>
<path d="M4128 3205 c-241 -121 -248 -126 -275 -172 l-28 -48 -3 -310 c-2
-170 -1 -319 2 -331 8 -32 34 -54 62 -54 32 0 493 231 521 262 50 54 53 74 53
421 0 301 -1 325 -18 340 -10 10 -29 17 -43 16 -13 0 -135 -56 -271 -124z"/>
<path d="M1664 3142 c-31 -20 -34 -55 -34 -355 0 -201 4 -316 11 -338 27 -79
48 -94 315 -227 l254 -126 27 21 28 20 0 340 0 339 -28 42 c-25 38 -50 53
-277 167 -242 121 -272 133 -296 117z"/>
<path d="M5558 3025 c-225 -113 -250 -129 -275 -167 l-28 -42 0 -339 0 -340
28 -20 27 -21 254 126 c267 133 288 148 315 227 15 47 15 634 0 664 -15 28
-29 37 -54 36 -11 0 -131 -56 -267 -124z"/>
<path d="M2354 2755 c-18 -43 -21 -580 -3 -649 21 -84 51 -107 310 -237 131
-65 249 -119 262 -119 13 0 32 9 43 21 18 20 19 40 19 328 0 168 -4 323 -8
344 -15 72 -53 100 -309 228 -266 133 -290 140 -314 84z"/>
<path d="M4849 2670 c-252 -127 -291 -155 -306 -227 -4 -21 -8 -176 -8 -344 0
-288 1 -308 19 -328 11 -12 30 -21 43 -21 13 0 131 54 262 119 259 130 289
153 310 237 18 69 15 606 -3 649 -24 56 -51 49 -317 -85z"/>
<path d="M3080 2420 c-20 -20 -21 -30 -18 -359 l3 -338 29 -42 c27 -39 54 -55
282 -169 231 -115 255 -125 279 -114 14 6 30 23 35 38 15 38 13 607 -2 657
-23 77 -66 108 -322 232 -131 63 -244 115 -252 115 -8 0 -23 -9 -34 -20z"/>
<path d="M4138 2315 c-259 -130 -281 -147 -307 -224 -14 -43 -15 -618 -1 -655
5 -15 21 -32 35 -38 24 -11 48 -1 279 114 228 114 255 130 282 169 l29 42 3
338 c3 329 2 339 -18 359 -11 11 -28 20 -37 19 -10 0 -129 -56 -265 -124z"/>
</g>
</svg>
