<svg xmlns="http://www.w3.org/2000/svg" width="436.646" height="354.632" viewBox="0 0 436.646 354.632">
  <g id="Group_163" data-name="Group 163" transform="translate(-1311.316 -466.36)">
    <g id="Group_69" data-name="Group 69" transform="translate(-3414)">
      <g id="Group_68" data-name="Group 68">
        <circle id="Ellipse_62" data-name="Ellipse 62" cx="46.938" cy="46.938" r="46.938" transform="translate(4773.625 534.718)" fill="none" stroke="#2f2f2f" stroke-linecap="round" stroke-linejoin="round" stroke-width="5" stroke-dasharray="17 17"/>
        <rect id="Rectangle_71" data-name="Rectangle 71" width="77.124" height="77.124" transform="translate(4946.06 674.653) rotate(20.088)" fill="none" stroke="#2f2f2f" stroke-linecap="round" stroke-linejoin="round" stroke-width="5" stroke-dasharray="17 17"/>
        <path id="Path_206" data-name="Path 206" d="M5076.679,517.347l5.583,92.367,77.2-51.018Z" fill="none" stroke="#2f2f2f" stroke-linecap="round" stroke-linejoin="round" stroke-width="5" stroke-dasharray="17 17"/>
        <path id="Path_207" data-name="Path 207" d="M5101.179,529.584c6.93-9.094,12.461-13.737,15.971-11.937,22.448,11.512-77.137,192.188-48.684,204.992s58.487-93.77,79.922-94.606c18.24-.711-5.945,77.534-5.945,77.534" fill="none" stroke="#2f2f2f" stroke-linecap="round" stroke-linejoin="round" stroke-width="4" opacity="0.8"/>
        <path id="Path_208" data-name="Path 208" d="M4954.979,760.035c-.66,10.733.422,17.3,3.943,18.088,17.03,3.8,77.125-137.953,117.081-208.464" fill="none" stroke="#2f2f2f" stroke-linecap="round" stroke-linejoin="round" stroke-width="4" opacity="0.8"/>
        <path id="Path_209" data-name="Path 209" d="M4844.1,541.055c-.416.908,49.377-78.761,66.449-68.8,20.89,12.186-84.337,236.261-57.106,244.035s128.136-254.044,155.929-244.06c17.581,6.315-20.666,121.4-40.648,210.715" fill="none" stroke="#2f2f2f" stroke-linecap="round" stroke-linejoin="round" stroke-width="4" opacity="0.8"/>
        <path id="Path_210" data-name="Path 210" d="M4814.872,493.151s-42.317,129.9-30.534,139.917c5.648,4.8,12.139,1.177,19.07-7.721" fill="none" stroke="#2f2f2f" stroke-linecap="round" stroke-linejoin="round" stroke-width="4" opacity="0.8"/>
        <g id="Group_66" data-name="Group 66" opacity="0.8">
          <line id="Line_167" data-name="Line 167" x1="6.395" y1="10.491" transform="translate(4755.307 498.35)" fill="none" stroke="#2f2f2f" stroke-linecap="round" stroke-linejoin="round" stroke-width="5"/>
          <line id="Line_168" data-name="Line 168" x1="6.395" y1="10.491" transform="translate(4737.901 469.796)" fill="none" stroke="#2f2f2f" stroke-linecap="round" stroke-linejoin="round" stroke-width="5"/>
          <line id="Line_169" data-name="Line 169" y1="6.395" x2="10.491" transform="translate(4728.752 495.342)" fill="none" stroke="#2f2f2f" stroke-linecap="round" stroke-linejoin="round" stroke-width="5"/>
          <line id="Line_170" data-name="Line 170" y1="6.395" x2="10.491" transform="translate(4757.306 477.936)" fill="none" stroke="#2f2f2f" stroke-linecap="round" stroke-linejoin="round" stroke-width="5"/>
        </g>
        <g id="Group_67" data-name="Group 67" opacity="0.8">
          <line id="Line_171" data-name="Line 171" x1="6.395" y1="10.491" transform="translate(5135.154 807.065)" fill="none" stroke="#2f2f2f" stroke-linecap="round" stroke-linejoin="round" stroke-width="5"/>
          <line id="Line_172" data-name="Line 172" x1="6.395" y1="10.491" transform="translate(5117.748 778.511)" fill="none" stroke="#2f2f2f" stroke-linecap="round" stroke-linejoin="round" stroke-width="5"/>
          <line id="Line_173" data-name="Line 173" y1="6.395" x2="10.491" transform="translate(5108.6 804.057)" fill="none" stroke="#2f2f2f" stroke-linecap="round" stroke-linejoin="round" stroke-width="5"/>
          <line id="Line_174" data-name="Line 174" y1="6.395" x2="10.491" transform="translate(5137.153 786.651)" fill="none" stroke="#2f2f2f" stroke-linecap="round" stroke-linejoin="round" stroke-width="5"/>
        </g>
      </g>
    </g>
  </g>
</svg>
