<svg xmlns="http://www.w3.org/2000/svg" width="530.27" height="327.12" viewBox="0 0 530.27 327.12">
  <g id="Group_143" data-name="Group 143" transform="translate(-45.747 -4803.855)">
    <g id="Group_72" data-name="Group 72" transform="translate(-1236.924 44.272)">
      <path id="Path_331" data-name="Path 331" d="M1303.662,4923.6l25.537,149.766a6.8,6.8,0,0,0,7.841,5.556l342.508-58.4a6.8,6.8,0,0,0,5.557-7.841l-26.16-153.412a48.508,48.508,0,0,1-.3-14.243l1.014-8.007a46,46,0,0,0-.29-13.529l-6.023-35.325a5.749,5.749,0,0,0-6.633-4.7l-357.244,60.916a5.749,5.749,0,0,0-4.7,6.633l6.347,37.225a33.1,33.1,0,0,0,3.024,9.237l2.818,5.634A73.406,73.406,0,0,1,1303.662,4923.6Z" fill="none" stroke="#2f2f2f" stroke-miterlimit="10" stroke-width="4"/>
      <line id="Line_264" data-name="Line 264" x1="356.456" y2="60.782" transform="translate(1303.762 4865.072)" fill="none" stroke="#2f2f2f" stroke-miterlimit="10" stroke-width="4"/>
      <line id="Line_265" data-name="Line 265" y1="52.796" x2="309.627" transform="translate(1321.721 4835.411)" fill="none" stroke="#2f2f2f" stroke-miterlimit="10" stroke-width="3"/>
      <circle id="Ellipse_134" data-name="Ellipse 134" cx="2.236" cy="2.236" r="2.236" transform="translate(1623.907 4804.603)" fill="none" stroke="#2f2f2f" stroke-miterlimit="10" stroke-width="2"/>
      <rect id="Rectangle_137" data-name="Rectangle 137" width="35.769" height="4.471" rx="2.236" transform="matrix(0.986, -0.168, 0.168, 0.986, 1310.751, 4856.792)" fill="none" stroke="#2f2f2f" stroke-miterlimit="10" stroke-width="2"/>
      <g id="Group_71" data-name="Group 71">
        <path id="Path_332" data-name="Path 332" d="M1796.688,4761.655l13.757,12.152a2.277,2.277,0,0,1,.2,3.215l-137.519,155.652-.164.072-27.738,12.527,10.675-27.6.082-.193,137.493-155.625A2.277,2.277,0,0,1,1796.688,4761.655Z" fill="#2e2f2e" stroke="#2f2f2f" stroke-linejoin="round" stroke-width="3"/>
        <line id="Line_266" data-name="Line 266" y1="23.011" x2="19.399" transform="translate(1686.115 4877.542)" fill="#2e2f2e" stroke="#dfdfdf" stroke-linejoin="round" stroke-width="3"/>
        <circle id="Ellipse_135" data-name="Ellipse 135" cx="1.57" cy="1.57" r="1.57" transform="translate(1711 4868.889)" fill="#dfdfdf" stroke="#dfdfdf" stroke-linejoin="round" stroke-width="3"/>
      </g>
    </g>
    <text id="CW" transform="translate(208.188 4990.948) rotate(-9.976)" fill="#2f2f2f" stroke="#2f2f2f" stroke-width="1" font-size="50" font-family="Helvetica"><tspan x="0" y="39">CW</tspan></text>
    <g id="Group_73" data-name="Group 73" transform="translate(-1236.924 44.272)">
      <path id="Path_333" data-name="Path 333" d="M1333,4952l-2-11,13-2" fill="none" stroke="#e2e2e2" stroke-linecap="round" stroke-linejoin="round" stroke-width="2"/>
      <path id="Path_334" data-name="Path 334" d="M1350.744,5041.122l1.58,11.068,12.966-2.212" fill="none" stroke="#e2e2e2" stroke-linecap="round" stroke-linejoin="round" stroke-width="2"/>
      <path id="Path_335" data-name="Path 335" d="M1661.4,4988.677l1.88,11.021-13.021,1.858" fill="none" stroke="#e2e2e2" stroke-linecap="round" stroke-linejoin="round" stroke-width="2"/>
      <path id="Path_336" data-name="Path 336" d="M1644.623,4899.368l-1.459-11.085-12.989,2.071" fill="none" stroke="#e2e2e2" stroke-linecap="round" stroke-linejoin="round" stroke-width="2"/>
    </g>
  </g>
</svg>
