<svg xmlns="http://www.w3.org/2000/svg" width="477" height="278.25" viewBox="0 0 477 278.25">
  <g id="Group_161" data-name="Group 161" transform="translate(-2035.185 -1362.046)">
    <path id="Path_216" data-name="Path 216" d="M5514.905,1416.758h-29.946v22.972" transform="translate(-3414)" fill="none" stroke="#2f2f2f" stroke-linecap="round" stroke-linejoin="round" stroke-width="5"/>
    <path id="Path_217" data-name="Path 217" d="M5787.394,1416.755h29.946v22.972" transform="translate(-3414)" fill="none" stroke="#2f2f2f" stroke-linecap="round" stroke-linejoin="round" stroke-width="5"/>
    <path id="Path_218" data-name="Path 218" d="M5514.7,1593.026h-29.946v-22.972" transform="translate(-3414)" fill="none" stroke="#2f2f2f" stroke-linecap="round" stroke-linejoin="round" stroke-width="5"/>
    <path id="Path_219" data-name="Path 219" d="M5787.192,1593.029h29.946v-22.972" transform="translate(-3414)" fill="none" stroke="#2f2f2f" stroke-linecap="round" stroke-linejoin="round" stroke-width="5"/>
    <circle id="Ellipse_66" data-name="Ellipse 66" cx="5.036" cy="5.036" r="5.036" transform="translate(2080.257 1423.91)" fill="#2f2f2f"/>
    <text id="REC" transform="translate(2095.409 1420.373)" fill="#2f2f2f" font-size="11.079" font-family="SegoeUI, Segoe UI"><tspan x="0" y="12">REC</tspan></text>
    <line id="Line_179" data-name="Line 179" y2="18.734" transform="translate(2234.721 1490.804)" fill="none" stroke="#2f2f2f" stroke-linecap="round" stroke-miterlimit="10" stroke-width="5"/>
    <line id="Line_180" data-name="Line 180" x1="18.734" transform="translate(2225.398 1499.729)" fill="none" stroke="#2f2f2f" stroke-linecap="round" stroke-miterlimit="10" stroke-width="5"/>
    <path id="Path_220" data-name="Path 220" d="M5775.015,1430.16h24.89v9.95h-24.89" transform="translate(-3414)" fill="none" stroke="#2f2f2f" stroke-linecap="round" stroke-miterlimit="10" stroke-width="3"/>
    <line id="Line_181" data-name="Line 181" y2="6.218" transform="translate(2359.013 1432.024)" fill="none" stroke="#2f2f2f" stroke-linecap="round" stroke-miterlimit="10" stroke-width="3"/>
    <rect id="Rectangle_82" data-name="Rectangle 82" width="16.704" height="9.877" transform="translate(2369.149 1430.16)" fill="#2f2f2f"/>
    <rect id="Rectangle_83" data-name="Rectangle 83" width="362" height="212.279" rx="7.429" transform="translate(2056.185 1400.907)" fill="none" stroke="#2f2f2f" stroke-miterlimit="10" stroke-width="5"/>
    <rect id="Rectangle_84" data-name="Rectangle 84" width="472" height="261.5" rx="7.429" transform="translate(2037.685 1376.296)" fill="none" stroke="#2f2f2f" stroke-miterlimit="10" stroke-width="5"/>
    <circle id="Ellipse_67" data-name="Ellipse 67" cx="25.5" cy="25.5" r="25.5" transform="translate(2440.185 1475.796)" fill="none" stroke="#2f2f2f" stroke-miterlimit="10" stroke-width="5"/>
    <circle id="Ellipse_68" data-name="Ellipse 68" cx="10.5" cy="10.5" r="10.5" transform="translate(2455.685 1443.296)" fill="#2f2f2f"/>
    <circle id="Ellipse_69" data-name="Ellipse 69" cx="10.5" cy="10.5" r="10.5" transform="translate(2456.185 1541.796)" fill="#2f2f2f"/>
    <line id="Line_182" data-name="Line 182" x2="25.032" transform="translate(2454.49 1368.046)" fill="none" stroke="#2f2f2f" stroke-linecap="round" stroke-miterlimit="10" stroke-width="12"/>
    <path id="Path_221" data-name="Path 221" d="M5662.983,1492.917a21.926,21.926,0,0,0,3.189-5.334c2.561-5.959,7.2-29.931,12.664-42.8s27.323-22.771,27.323-22.771v22.771c21.453,0,27.323,25.151,27.323,25.151h17.653s8.028,25.659-20.307,25.659c-16.143,0-17.383.555-17.383.555s-8.343,26.043-8.7,47.69,0,68.625,0,68.625h-52.307v-37.532" transform="translate(-3414)" fill="none" stroke="#2f2f2f" stroke-linecap="round" stroke-linejoin="round" stroke-width="5" opacity="0.8"/>
    <path id="Path_222" data-name="Path 222" d="M5618.556,1575.836v35.611H5565.9v-62.809c0-16.686,2-30.538,10.35-34.644s13.375-8.8,46.747-8.8q3.262,0,6.2-.143" transform="translate(-3414)" fill="none" stroke="#2f2f2f" stroke-linecap="round" stroke-linejoin="round" stroke-width="5" opacity="0.8"/>
    <line id="Line_183" data-name="Line 183" y1="65.373" transform="translate(2265.139 1547.087)" fill="none" stroke="#2f2f2f" stroke-linecap="round" stroke-linejoin="round" stroke-width="5" opacity="0.8"/>
    <line id="Line_184" data-name="Line 184" y1="65.373" transform="translate(2178.875 1547.087)" fill="none" stroke="#2f2f2f" stroke-linecap="round" stroke-linejoin="round" stroke-width="5" opacity="0.8"/>
    <path id="Path_223" data-name="Path 223" d="M5679.139,1559.837s-13.279,9.426-42.5,9.426-43.762-9.426-43.762-9.426" transform="translate(-3414)" fill="none" stroke="#2f2f2f" stroke-linecap="round" stroke-linejoin="round" stroke-width="5" opacity="0.8"/>
    <path id="Path_224" data-name="Path 224" d="M5716.784,1516.486s-32.866-18.693-47.978-28.453-25.836-37.555-30.864-45.381-20.275-26.624-50.678-34.587c-13.223-3.463-41.243-2.2-41.243-2.2" transform="translate(-3414)" fill="none" stroke="#2f2f2f" stroke-linecap="round" stroke-linejoin="round" stroke-width="5" opacity="0.8"/>
    <path id="Path_225" data-name="Path 225" d="M5568.9,1517.234c-13.178,0-19.88-12.83-19.88-21.09a21.6,21.6,0,0,1,5.616-14.5s-23.952,9.656-16.1,27.9c7.941,18.435,30.359,12.9,30.359,12.9" transform="translate(-3414)" fill="none" stroke="#2f2f2f" stroke-linecap="round" stroke-linejoin="round" stroke-width="5" opacity="0.8"/>
  </g>
</svg>
