<svg xmlns="http://www.w3.org/2000/svg" width="374.006" height="470.24" viewBox="0 0 374.006 470.24">
  <g id="Group_154" data-name="Group 154" transform="translate(-1349.685 -2974.296)">
    <rect id="Rectangle_101" data-name="Rectangle 101" width="174" height="167" rx="15.232" transform="translate(1352.685 2977.296)" fill="none" stroke="#2f2f2f" stroke-linecap="round" stroke-linejoin="round" stroke-width="6"/>
    <rect id="Rectangle_102" data-name="Rectangle 102" width="144" height="138.207" rx="15.232" transform="translate(1367.685 2989.693)" fill="none" stroke="#2f2f2f" stroke-linecap="round" stroke-linejoin="round" stroke-width="5"/>
    <circle id="Ellipse_81" data-name="Ellipse 81" cx="4" cy="4" r="4" transform="translate(1487.685 3104.296)" fill="#2f2f2f"/>
    <ellipse id="Ellipse_82" data-name="Ellipse 82" cx="3" cy="6" rx="3" ry="6" transform="matrix(0.807, -0.591, 0.591, 0.807, 1687.218, 3353.731)" fill="#2f2f2f"/>
    <ellipse id="Ellipse_83" data-name="Ellipse 83" cx="3" cy="6" rx="3" ry="6" transform="matrix(0.807, -0.591, 0.591, 0.807, 1697.218, 3341.731)" fill="#2f2f2f"/>
    <circle id="Ellipse_84" data-name="Ellipse 84" cx="4" cy="4" r="4" transform="translate(1488.185 3003.796)" fill="#2f2f2f"/>
    <circle id="Ellipse_85" data-name="Ellipse 85" cx="4" cy="4" r="4" transform="translate(1384.685 3104.296)" fill="#2f2f2f"/>
    <circle id="Ellipse_86" data-name="Ellipse 86" cx="4" cy="4" r="4" transform="translate(1385.185 3003.796)" fill="#2f2f2f"/>
    <line id="Line_216" data-name="Line 216" y1="22.705" transform="translate(1585.007 3192.087)" fill="none" stroke="#2f2f2f" stroke-linecap="round" stroke-linejoin="round" stroke-width="5"/>
    <path id="Path_309" data-name="Path 309" d="M5006.685,3258.3h-25.536a21.464,21.464,0,0,1-21.464-21.464v-2.446a17.089,17.089,0,0,1,17.089-17.09h29.911" transform="translate(-3414)" fill="none" stroke="#2f2f2f" stroke-linecap="round" stroke-linejoin="round" stroke-width="5"/>
    <path id="Path_310" data-name="Path 310" d="M5014.012,3257.931h11.03c4.643,0,14.979,1.861,15.811,16.613h-35.691l-3.263-7.179-2.892,7.179h-33.866s-1.059-9.4,2.535-13" transform="translate(-3414)" fill="none" stroke="#2f2f2f" stroke-linecap="round" stroke-linejoin="round" stroke-width="5"/>
    <path id="Path_311" data-name="Path 311" d="M4983.653,3276.991s-6.124,22.954,22.954,22.954,36.833.177,36.833.177" transform="translate(-3414)" fill="none" stroke="#2f2f2f" stroke-linecap="round" stroke-linejoin="round" stroke-width="5"/>
    <path id="Path_312" data-name="Path 312" d="M5075.637,3254.533l-3.848,5.12a5.561,5.561,0,0,1-7.787,1.1l-4.7-3.531a5.561,5.561,0,0,1-1.1-7.787l3.935-5.235" transform="translate(-3414)" fill="none" stroke="#2f2f2f" stroke-linecap="round" stroke-linejoin="round" stroke-width="5"/>
    <path id="Path_313" data-name="Path 313" d="M5004.4,3169.6l-15.483-8.373a15.941,15.941,0,0,0-21.6,6.439l-.891,1.646,115.822,78.363" transform="translate(-3414)" fill="none" stroke="#2f2f2f" stroke-linecap="round" stroke-linejoin="round" stroke-width="5"/>
    <path id="Path_314" data-name="Path 314" d="M5088.041,3253.866a17.5,17.5,0,0,1,14.144,17.172v.543a20.464,20.464,0,0,1-20.465,20.465h-4.509a13.526,13.526,0,0,1-13.526-13.526" transform="translate(-3414)" fill="none" stroke="#2f2f2f" stroke-linecap="round" stroke-linejoin="round" stroke-width="5"/>
    <rect id="Rectangle_103" data-name="Rectangle 103" width="8" height="20.397" rx="4" transform="matrix(0.859, 0.511, -0.511, 0.859, 1614.542, 3215.845)" fill="#2f2f2f"/>
    <path id="Path_315" data-name="Path 315" d="M5077.047,3349.878a7.956,7.956,0,0,1-11.24.488h0a7.955,7.955,0,0,1-.488-11.239L5088.356,3314a7.955,7.955,0,0,1,11.24-.489h0a7.956,7.956,0,0,1,.489,11.24" transform="translate(-3414)" fill="none" stroke="#2f2f2f" stroke-linecap="round" stroke-linejoin="round" stroke-width="5"/>
    <path id="Path_316" data-name="Path 316" d="M5076.284,3365.923" transform="translate(-3414)" fill="none" stroke="#2f2f2f" stroke-linecap="round" stroke-linejoin="round" stroke-width="5"/>
    <path id="Path_317" data-name="Path 317" d="M5097.235,3382.511l2.386,2.152a11.228,11.228,0,0,0,15.857-.821L5127.957,3370a28.093,28.093,0,0,0-2.055-39.678l-6.678-6.021a14.1,14.1,0,0,0-19.912,1.031l-26.268,29.458c-3.951,5.356-2.653,9.386,4.136,17.772l1,1.306c7.352,8.192,8.633,11.562,15.778,5.53s6.081-7.679,3.671-10.73-3.884-4.69-3.884-4.69" transform="translate(-3414)" fill="none" stroke="#2f2f2f" stroke-linecap="round" stroke-linejoin="round" stroke-width="5"/>
    <path id="Path_318" data-name="Path 318" d="M5111.555,3270.795l3.407-4.825a22.158,22.158,0,0,0-5.321-30.881l-8.469-5.979-1.931-1.505,7.341-13.382a18.117,18.117,0,0,0-4.583-25.209l-58.763-40.683a18.117,18.117,0,0,0-25.209,4.583l-11.342,16.382" transform="translate(-3414)" fill="none" stroke="#2f2f2f" stroke-linecap="round" stroke-linejoin="round" stroke-width="5"/>
    <path id="Path_319" data-name="Path 319" d="M5072.994,3235.833" transform="translate(-3414)" fill="none" stroke="#2f2f2f" stroke-linecap="round" stroke-linejoin="round" stroke-width="5"/>
    <path id="Path_320" data-name="Path 320" d="M4976.119,3312.123a34.29,34.29,0,0,1,18.846-9.075" transform="translate(-3414)" fill="none" stroke="#2f2f2f" stroke-linecap="round" stroke-linejoin="round" stroke-width="5"/>
    <path id="Path_321" data-name="Path 321" d="M5094.56,3393.42l-14.419,40.016a10.046,10.046,0,0,1-12.843,6.074l-4.662-1.668a17.243,17.243,0,0,1-10.424-22.045l4.433-12.388" transform="translate(-3414)" fill="none" stroke="#2f2f2f" stroke-linecap="round" stroke-linejoin="round" stroke-width="5"/>
    <path id="Path_322" data-name="Path 322" d="M5056.992,3401.565l-5.556-1.977c-2.529-.9-3.629-4.3-2.458-7.588l6.221-19.485c1.139-3.2,4.054-5.084,6.513-4.209l5.683,2.022" transform="translate(-3414)" fill="none" stroke="#2f2f2f" stroke-linecap="round" stroke-linejoin="round" stroke-width="5"/>
    <path id="Path_323" data-name="Path 323" d="M4962.812,3371.064c-2.808.842-6.215,1.806-10.3,2.875-12.827,3.357-13.555-12.719-13.555-12.719l-7.721-43.78a10.046,10.046,0,0,1,8.149-11.638l4.875-.86a17.248,17.248,0,0,1,17.325,7.384" transform="translate(-3414)" fill="none" stroke="#2f2f2f" stroke-linecap="round" stroke-linejoin="round" stroke-width="5"/>
    <path id="Path_324" data-name="Path 324" d="M5061.435,3347.3a32.75,32.75,0,0,1-32.75-32.75v-7.46" transform="translate(-3414)" fill="none" stroke="#2f2f2f" stroke-linecap="round" stroke-linejoin="round" stroke-width="5"/>
    <line id="Line_217" data-name="Line 217" x1="9.768" y1="52.416" transform="translate(1505.314 3320.04)" fill="none" stroke="#2f2f2f" stroke-linecap="round" stroke-linejoin="round" stroke-width="6"/>
    <line id="Line_218" data-name="Line 218" x1="16.23" y2="43.841" transform="translate(1674.167 3396.84)" fill="none" stroke="#2f2f2f" stroke-linecap="round" stroke-linejoin="round" stroke-width="6"/>
    <rect id="Rectangle_104" data-name="Rectangle 104" width="17.334" height="23" rx="7.544" transform="translate(1585.731 3325.861) rotate(6.818)" fill="none" stroke="#2f2f2f" stroke-linecap="round" stroke-linejoin="round" stroke-width="5"/>
    <path id="Path_325" data-name="Path 325" d="M5061.435,3331.087l-13.385-10.532a8.115,8.115,0,0,1-1.359-11.4l4.188-5.321a8.113,8.113,0,0,1,11.394-1.359l14.011,11.025" transform="translate(-3414)" fill="none" stroke="#2f2f2f" stroke-linecap="round" stroke-linejoin="round" stroke-width="5"/>
    <line id="Line_219" data-name="Line 219" x1="3.499" y1="5.639" transform="translate(1538 3256.234)" fill="none" stroke="#2f2f2f" stroke-linecap="round" stroke-linejoin="round" stroke-width="5"/>
    <line id="Line_220" data-name="Line 220" x1="11.591" y1="18.682" transform="translate(1554.022 3282.06)" fill="none" stroke="#2f2f2f" stroke-linecap="round" stroke-linejoin="round" stroke-width="5"/>
    <path id="Path_326" data-name="Path 326" d="M4954.035,3244.664l-5.765,5.372a8.723,8.723,0,0,1-12.329-.434h0a8.724,8.724,0,0,1,.434-12.33" transform="translate(-3414)" fill="none" stroke="#2f2f2f" stroke-linecap="round" stroke-linejoin="round" stroke-width="5"/>
    <path id="Path_327" data-name="Path 327" d="M4963.726,3211.782a8.728,8.728,0,0,1,10.659-.963" transform="translate(-3414)" fill="none" stroke="#2f2f2f" stroke-linecap="round" stroke-linejoin="round" stroke-width="5"/>
    <path id="Path_328" data-name="Path 328" d="M4954.035,3194.582s-1.778,1.353-9.564,6.534-9.786,3.18-11.781.812a64.238,64.238,0,0,1-3.842-5.461c-.807-1.205-.073-4.276,2.122-6.149,4.715-4.022,11.319-8.321,16.815-12.266,8.332-5.978,9.442-2.183,16.774,7.405l.976,1.514c6.7,9.753,7.771,14.27,2.991,19.785L4937.27,3236.7a15.461,15.461,0,0,1-21.857-.588l-10.165-10.728a25.89,25.89,0,0,1,.985-36.6l21.975-20.824a7.394,7.394,0,0,1,10.453.281l4.448,4.694" transform="translate(-3414)" fill="none" stroke="#2f2f2f" stroke-linecap="round" stroke-linejoin="round" stroke-width="5"/>
    <rect id="Rectangle_105" data-name="Rectangle 105" width="12.832" height="23" rx="6.24" transform="translate(1550.887 3318.123) rotate(11.147)" fill="none" stroke="#2f2f2f" stroke-linecap="round" stroke-linejoin="round" stroke-width="5"/>
    <path id="Path_329" data-name="Path 329" d="M4965.018,3349.19c.061,6.651,2.483,22.722,23.667,28.606a409.7,409.7,0,0,0,50.205,10.138" transform="translate(-3414)" fill="none" stroke="#2f2f2f" stroke-linecap="round" stroke-linejoin="round" stroke-width="5"/>
    <path id="Path_330" data-name="Path 330" d="M4882.831,3076.107c-1.789-.088-3.456-.162-5.122-.255a7.381,7.381,0,0,0-7.456,6.99c-.024,6.8,1.127,4.954-5.079,7.411-4.536,1.8-3.655,2.375-6.629-1.691-2.427-3.317-5.56-2.919-8.727-2.853-.815.017-1.677,1.1-2.4,1.813-4.654,4.613-2.987,4.161-8.731,1.662-4.667-2.029-4.3-1.159-3.567-6.084.61-4.093-1.907-6-4.213-8.106-.76-.695-2.519-.365-3.823-.383-5.316-.074-4.311.769-6.192-4.208-2.131-5.64-2.615-4.052,2.082-8.252a7.216,7.216,0,0,0,.249-10.623c-4.473-4.471-4.008-2.8-1.638-8.167,2.294-5.2,1.088-4.662,6.453-3.91,4.053.569,5.74-2.136,7.943-4.254.533-.513.376-1.846.371-2.8-.033-6.688-.9-5.194,5.016-7.529,4.411-1.742,3.843-2.185,6.668,1.76,2.4,3.353,5.545,3,8.709,2.9.932-.03,1.9-1.272,2.719-2.085,3.628-3.575,3.621-3.612,8.2-1.531,4.91,2.231,4.54,1.1,3.805,6.559-.543,4.039,2.061,5.882,4.372,7.8,1.025.851,3.243.518,4.873.327,2.509-.293,3.707.595,4.548,3.021,2.081,6,2.179,5.913-2.508,10.319a6.029,6.029,0,0,0-1.314,2.835c-1.009,3.917.877,6.635,3.874,8.82,1.5,1.095,1.715,2.326.8,3.974-.876,1.586-1.485,3.318-2.259,4.964A13.434,13.434,0,0,1,4882.831,3076.107Zm-33.917-28.738a11.168,11.168,0,1,0,7.816,20.924,11.084,11.084,0,0,0,6.5-14.387A10.957,10.957,0,0,0,4848.914,3047.369Z" transform="translate(-3414)" fill="none" stroke="#2f2f2f" stroke-miterlimit="10" stroke-width="5"/>
    <path id="Path_361" data-name="Path 361" d="M5001.954,3304.677s-12.769,11.119.053,11.237c14.053.13,14.321-8.828,14.321-8.828" transform="translate(-3414)" fill="none" stroke="#2f2f2f" stroke-linecap="round" stroke-linejoin="round" stroke-width="5"/>
  </g>
</svg>
