<svg xmlns="http://www.w3.org/2000/svg" width="388.393" height="397.75" viewBox="0 0 388.393 397.75">
  <g id="Group_148" data-name="Group 148" transform="translate(-1367.685 -4737.759)">
    <path id="Path_386" data-name="Path 386" d="M5011,4947.206v15.314c0,6.951-4.359,13.482-11.705,17.305a38.058,38.058,0,0,1-35.765-.728,19.511,19.511,0,0,1-9.487-11.8v-12.611" transform="translate(-3414)" fill="none" stroke="#2f2f2f" stroke-linecap="round" stroke-linejoin="round" stroke-width="5"/>
    <path id="Path_387" data-name="Path 387" d="M4962.944,4932.189s4.827,16.931,48.061,15.017q2.151-.1,4.431-.254v-22.974c0-16.282-14.549-21.534-26.246-21.534s-28.377-2.266-28.377,10.387v1.846" transform="translate(-3414)" fill="none" stroke="#2f2f2f" stroke-linecap="round" stroke-linejoin="round" stroke-width="5"/>
    <path id="Path_388" data-name="Path 388" d="M4965.241,4935.9s-5.117,11.763-10.37,17.015" transform="translate(-3414)" fill="none" stroke="#2f2f2f" stroke-linecap="round" stroke-linejoin="round" stroke-width="5"/>
    <path id="Path_389" data-name="Path 389" d="M4937.177,5030.17v-30.025a19.065,19.065,0,0,1,19.065-19.065h2.777" transform="translate(-3414)" fill="none" stroke="#2f2f2f" stroke-linecap="round" stroke-linejoin="round" stroke-width="5"/>
    <path id="Path_390" data-name="Path 390" d="M5004.663,4981.08h1.555a19.065,19.065,0,0,1,19.065,19.065v28.923" transform="translate(-3414)" fill="none" stroke="#2f2f2f" stroke-linecap="round" stroke-linejoin="round" stroke-width="5"/>
    <path id="Path_391" data-name="Path 391" d="M4978.25,4990.093h6l2.166,19.435,1.711,16.177-7.413,6.812-8.033-6.664Z" transform="translate(-3414)" fill="none" stroke="#2f2f2f" stroke-linecap="round" stroke-linejoin="round" stroke-width="4"/>
    <path id="Path_392" data-name="Path 392" d="M4954.3,4953.479h-2.4c-4.406,0-4.371-15.924-4.371-15.924.207-6.955-1.313-24.69,9.542-24.69l3.038-.034" transform="translate(-3414)" fill="none" stroke="#2f2f2f" stroke-linecap="round" stroke-linejoin="round" stroke-width="5"/>
    <path id="Path_393" data-name="Path 393" d="M5156.751,4961.182v-30.993c0-5.827-1.525-7.039-7.039-7.039h-7.353s1.838-11.85-7.418-11.85h-30.164c-14.607,0-17.561,6.335-17.561,17.561v18.184h30.329c8.271,0,12.328-5.355,12.328-12.328v20.76c0,7.192.335,9.628,9.627,9.628h9.293C5157.983,4965.1,5156.751,4961.182,5156.751,4961.182Z" transform="translate(-3414)" fill="none" stroke="#2f2f2f" stroke-linecap="round" stroke-linejoin="round" stroke-width="5"/>
    <path id="Path_394" data-name="Path 394" d="M5151.423,4965.38c0,6.951-4.359,11.644-11.705,15.467a38.057,38.057,0,0,1-35.765-.728,19.511,19.511,0,0,1-9.487-11.8v-20.883" transform="translate(-3414)" fill="none" stroke="#2f2f2f" stroke-linecap="round" stroke-linejoin="round" stroke-width="5"/>
    <path id="Rectangle_127" data-name="Rectangle 127" d="M43.119,0h0A19.376,19.376,0,0,1,62.5,19.376V67.141a4.545,4.545,0,0,1-4.545,4.545H4.545A4.545,4.545,0,0,1,0,67.141V43.119A43.119,43.119,0,0,1,43.119,0Z" transform="translate(1676.893 4984.726)" fill="none" stroke="#2f2f2f" stroke-linecap="round" stroke-linejoin="round" stroke-width="5"/>
    <path id="Path_395" data-name="Path 395" d="M4796.225,4960.312v-30.993c0-5.827,1.526-7.039,7.04-7.039h7.352s-1.838-11.849,7.419-11.849H4848.2c14.606,0,17.56,6.334,17.56,17.56v18.184h-30.328c-8.272,0-12.328-5.355-12.328-12.328v20.761c0,7.191-.335,9.627-9.627,9.627h-9.293C4794.994,4964.235,4796.225,4960.312,4796.225,4960.312Z" transform="translate(-3414)" fill="none" stroke="#2f2f2f" stroke-linecap="round" stroke-linejoin="round" stroke-width="5"/>
    <path id="Path_396" data-name="Path 396" d="M4801.554,4964.51c0,6.951,4.358,11.644,11.7,15.467a38.06,38.06,0,0,0,35.766-.728,19.511,19.511,0,0,0,9.487-11.8v-20.883" transform="translate(-3414)" fill="none" stroke="#2f2f2f" stroke-linecap="round" stroke-linejoin="round" stroke-width="5"/>
    <path id="Rectangle_128" data-name="Rectangle 128" d="M3.972,0H58.524A3.972,3.972,0,0,1,62.5,3.972V51.436a20.25,20.25,0,0,1-20.25,20.25h-1.59A40.656,40.656,0,0,1,0,31.03V3.972A3.972,3.972,0,0,1,3.972,0Z" transform="translate(1448.084 5055.542) rotate(-180)" fill="none" stroke="#2f2f2f" stroke-linecap="round" stroke-linejoin="round" stroke-width="5"/>
    <path id="Path_397" data-name="Path 397" d="M5055.05,4750.635v97.805a10.37,10.37,0,0,1-10.377,10.376h-57.128l-7.545,13.06a3.538,3.538,0,0,1-6.139,0l-7.546-13.06h-60.8a10.37,10.37,0,0,1-10.376-10.376v-97.805a10.37,10.37,0,0,1,10.376-10.376h139.162A10.37,10.37,0,0,1,5055.05,4750.635Z" transform="translate(-3414)" fill="none" stroke="#2f2f2f" stroke-linecap="round" stroke-linejoin="round" stroke-width="5"/>
    <path id="Path_398" data-name="Path 398" d="M4974.626,4822.519V4799.9c0-1.542-1.041-3.084-2.57-3.084a2.991,2.991,0,0,0-2.79,2.79c0,3.378,4.221,2.9,4.221,2.9h4.942l-.24.016h4.942s4.221.477,4.221-2.9a2.991,2.991,0,0,0-2.791-2.79c-1.529,0-2.57,1.542-2.57,3.084v22.617" transform="translate(-3414)" fill="none" stroke="#2f2f2f" stroke-miterlimit="10" stroke-width="4"/>
    <path id="Rectangle_129" data-name="Rectangle 129" d="M0,0H19.533a0,0,0,0,1,0,0V8.894A2.929,2.929,0,0,1,16.6,11.822H2.929A2.929,2.929,0,0,1,0,8.894V0A0,0,0,0,1,0,0Z" transform="translate(1554.37 4822.792)" fill="none" stroke="#2f2f2f" stroke-miterlimit="10" stroke-width="4"/>
    <path id="Path_399" data-name="Path 399" d="M4968.273,4822.425c0-15.164-11.822-13.107-11.822-29.042a21.589,21.589,0,0,1,21.589-21.589l.1.11a21.589,21.589,0,0,1,21.589,21.589c0,15.935-11.822,13.879-11.822,29.042Z" transform="translate(-3414)" fill="none" stroke="#2f2f2f" stroke-miterlimit="10" stroke-width="4"/>
    <path id="Rectangle_130" data-name="Rectangle 130" d="M0,0H11.5a0,0,0,0,1,0,0V1.2A2.429,2.429,0,0,1,9.073,3.632H2.429A2.429,2.429,0,0,1,0,1.2V0A0,0,0,0,1,0,0Z" transform="translate(1558.062 4834.34)" fill="none" stroke="#2f2f2f" stroke-miterlimit="10" stroke-width="4"/>
    <g id="Group_114" data-name="Group 114" transform="translate(-3414)">
      <g id="Group_113" data-name="Group 113">
        <path id="Path_400" data-name="Path 400" d="M4949.439,4779.667l-3.39-1.669a1.434,1.434,0,1,0-1.267,2.574l3.39,1.669a1.435,1.435,0,0,0,1.267-2.574Z" fill="#2f2f2f"/>
      </g>
    </g>
    <g id="Group_116" data-name="Group 116" transform="translate(-3414)">
      <g id="Group_115" data-name="Group 115">
        <path id="Path_401" data-name="Path 401" d="M4952.873,4807.987a1.434,1.434,0,0,0-2.028,0l-2.672,2.673a1.434,1.434,0,0,0,2.028,2.028l2.672-2.672A1.436,1.436,0,0,0,4952.873,4807.987Z" fill="#2f2f2f"/>
      </g>
    </g>
    <g id="Group_118" data-name="Group 118" transform="translate(-3414)">
      <g id="Group_117" data-name="Group 117">
        <path id="Path_402" data-name="Path 402" d="M4946.563,4794.782h-3.779a1.434,1.434,0,0,0,0,2.869h3.779a1.434,1.434,0,1,0,0-2.869Z" fill="#2f2f2f"/>
      </g>
    </g>
    <g id="Group_120" data-name="Group 120" transform="translate(-3414)">
      <g id="Group_119" data-name="Group 119">
        <path id="Path_403" data-name="Path 403" d="M4960.272,4771.111a1.434,1.434,0,0,0,.1-2.026l-2.541-2.8a1.434,1.434,0,1,0-2.123,1.928l2.54,2.8A1.435,1.435,0,0,0,4960.272,4771.111Z" fill="#2f2f2f"/>
      </g>
    </g>
    <g id="Group_122" data-name="Group 122" transform="translate(-3414)">
      <g id="Group_121" data-name="Group 121">
        <path id="Path_404" data-name="Path 404" d="M5004.95,4781.3a1.435,1.435,0,0,0,1.92.653l3.391-1.669a1.435,1.435,0,0,0-1.267-2.574l-3.391,1.669A1.436,1.436,0,0,0,5004.95,4781.3Z" fill="#2f2f2f"/>
      </g>
    </g>
    <g id="Group_124" data-name="Group 124" transform="translate(-3414)">
      <g id="Group_123" data-name="Group 123">
        <path id="Path_405" data-name="Path 405" d="M5002.169,4809.732l2.672,2.672a1.434,1.434,0,1,0,2.029-2.028l-2.673-2.673a1.434,1.434,0,0,0-2.028,2.029Z" fill="#2f2f2f"/>
      </g>
    </g>
    <g id="Group_126" data-name="Group 126" transform="translate(-3414)">
      <g id="Group_125" data-name="Group 125">
        <path id="Path_406" data-name="Path 406" d="M5007.045,4795.932a1.435,1.435,0,0,0,1.434,1.435h3.779a1.435,1.435,0,0,0,0-2.869h-3.779A1.434,1.434,0,0,0,5007.045,4795.932Z" fill="#2f2f2f"/>
      </g>
    </g>
    <g id="Group_128" data-name="Group 128" transform="translate(-3414)">
      <g id="Group_127" data-name="Group 127">
        <path id="Path_407" data-name="Path 407" d="M4996.8,4770.729l2.541-2.8a1.434,1.434,0,1,0-2.124-1.928l-2.54,2.8a1.434,1.434,0,1,0,2.123,1.928Z" fill="#2f2f2f"/>
      </g>
    </g>
    <g id="Group_130" data-name="Group 130" transform="translate(-3414)">
      <g id="Group_129" data-name="Group 129">
        <path id="Path_408" data-name="Path 408" d="M4977.516,4766.634a1.434,1.434,0,0,0,1.434-1.434v-3.779a1.434,1.434,0,0,0-2.868,0v3.779A1.434,1.434,0,0,0,4977.516,4766.634Z" fill="#2f2f2f"/>
      </g>
    </g>
    <path id="Path_409" data-name="Path 409" d="M5066.538,4784.449h50.777a8.5,8.5,0,0,1,8.5,8.5v80.132a8.5,8.5,0,0,1-8.5,8.5h-9.124l-6.182,10.7a2.9,2.9,0,0,1-5.03,0l-6.181-10.7h-87.5a8.5,8.5,0,0,1-8.5-8.5v-5.46" transform="translate(-3414)" fill="none" stroke="#2f2f2f" stroke-linecap="round" stroke-linejoin="round" stroke-width="5" opacity="0.7"/>
    <path id="Path_410" data-name="Path 410" d="M4881.207,4785.609H4830.43a8.5,8.5,0,0,0-8.5,8.5v80.132a8.5,8.5,0,0,0,8.5,8.5h9.124l6.182,10.7a2.9,2.9,0,0,0,5.03,0l6.182-10.7h87.5a8.5,8.5,0,0,0,8.5-8.5v-5.459" transform="translate(-3414)" fill="none" stroke="#2f2f2f" stroke-linecap="round" stroke-linejoin="round" stroke-width="5" opacity="0.7"/>
    <line id="Line_319" data-name="Line 319" x1="34.005" transform="translate(1651.159 4812.863)" fill="none" stroke="#2f2f2f" stroke-linecap="round" stroke-linejoin="round" stroke-width="5" opacity="0.7"/>
    <line id="Line_320" data-name="Line 320" x1="34.005" transform="translate(1651.159 4834.921)" fill="none" stroke="#2f2f2f" stroke-linecap="round" stroke-linejoin="round" stroke-width="5" opacity="0.7"/>
    <line id="Line_321" data-name="Line 321" x1="34.005" transform="translate(1651.159 4856.978)" fill="none" stroke="#2f2f2f" stroke-linecap="round" stroke-linejoin="round" stroke-width="5" opacity="0.7"/>
    <line id="Line_322" data-name="Line 322" x1="34.005" transform="translate(1427.83 4812.863)" fill="none" stroke="#2f2f2f" stroke-linecap="round" stroke-linejoin="round" stroke-width="5" opacity="0.7"/>
    <line id="Line_323" data-name="Line 323" x1="34.005" transform="translate(1427.83 4834.921)" fill="none" stroke="#2f2f2f" stroke-linecap="round" stroke-linejoin="round" stroke-width="5" opacity="0.7"/>
    <line id="Line_324" data-name="Line 324" x1="34.005" transform="translate(1427.83 4856.978)" fill="none" stroke="#2f2f2f" stroke-linecap="round" stroke-linejoin="round" stroke-width="5" opacity="0.7"/>
    <rect id="Rectangle_131" data-name="Rectangle 131" width="196.19" height="21.389" rx="10.695" transform="translate(1467.33 5040.314)" fill="none" stroke="#2f2f2f" stroke-linecap="round" stroke-linejoin="round" stroke-width="6"/>
    <line id="Line_325" data-name="Line 325" y2="139.095" transform="translate(1372.185 4989.341)" fill="none" stroke="#2f2f2f" stroke-linecap="round" stroke-miterlimit="10" stroke-width="9"/>
    <line id="Line_326" data-name="Line 326" x2="87.302" transform="translate(1372.283 5066.736)" fill="none" stroke="#2f2f2f" stroke-linecap="round" stroke-miterlimit="10" stroke-width="9"/>
    <line id="Line_327" data-name="Line 327" y1="61.798" transform="translate(1444.283 5066.736)" fill="none" stroke="#2f2f2f" stroke-linecap="round" stroke-miterlimit="10" stroke-width="9"/>
    <line id="Line_328" data-name="Line 328" y2="139.095" transform="translate(1751.578 4991.264)" fill="none" stroke="#2f2f2f" stroke-linecap="round" stroke-miterlimit="10" stroke-width="9"/>
    <line id="Line_329" data-name="Line 329" x1="87.302" transform="translate(1664.178 5068.659)" fill="none" stroke="#2f2f2f" stroke-linecap="round" stroke-miterlimit="10" stroke-width="9"/>
    <line id="Line_330" data-name="Line 330" y1="61.798" transform="translate(1679.48 5068.659)" fill="none" stroke="#2f2f2f" stroke-linecap="round" stroke-miterlimit="10" stroke-width="9"/>
    <line id="Line_331" data-name="Line 331" y2="69.33" transform="translate(1568.375 5061.704)" fill="none" stroke="#2f2f2f" stroke-linecap="round" stroke-linejoin="round" stroke-width="6"/>
    <line id="Line_332" data-name="Line 332" x2="58.267" transform="translate(1537.397 5132.509)" fill="none" stroke="#2f2f2f" stroke-linecap="round" stroke-linejoin="round" stroke-width="6"/>
  </g>
</svg>
