<svg xmlns="http://www.w3.org/2000/svg" width="441.586" height="348.357" viewBox="0 0 441.586 348.357">
  <g id="Group_153" data-name="Group 153" transform="translate(-2063.685 -3028.796)">
    <path id="Path_287" data-name="Path 287" d="M5735.7,3193.406v-41.179c0-2.808-1.9-5.615-4.679-5.615a5.446,5.446,0,0,0-5.081,5.079c0,6.151,7.686,5.282,7.686,5.282h9l-.437.03h9s7.686.869,7.686-5.282a5.446,5.446,0,0,0-5.08-5.08c-2.784,0-4.68,2.808-4.68,5.615v41.18" transform="translate(-3414)" fill="none" stroke="#2f2f2f" stroke-miterlimit="10" stroke-width="4"/>
    <path id="Rectangle_96" data-name="Rectangle 96" d="M0,0H35.564a0,0,0,0,1,0,0V18.6a2.929,2.929,0,0,1-2.929,2.929H2.929A2.929,2.929,0,0,1,0,18.6V0A0,0,0,0,1,0,0Z" transform="translate(2310.309 3193.904)" fill="none" stroke="#2f2f2f" stroke-miterlimit="10" stroke-width="4"/>
    <path id="Path_288" data-name="Path 288" d="M5724.133,3193.235c0-27.609-21.526-23.865-21.526-52.878a39.308,39.308,0,0,1,39.308-39.308l.176.2a39.308,39.308,0,0,1,39.307,39.308c0,29.012-21.525,25.269-21.525,52.878Z" transform="translate(-3414)" fill="none" stroke="#2f2f2f" stroke-miterlimit="10" stroke-width="4"/>
    <path id="Rectangle_97" data-name="Rectangle 97" d="M0,0H20.941a0,0,0,0,1,0,0V4.184a2.429,2.429,0,0,1-2.429,2.429H2.429A2.429,2.429,0,0,1,0,4.184V0A0,0,0,0,1,0,0Z" transform="translate(2317.031 3214.929)" fill="#2f2f2f"/>
    <g id="Group_93" data-name="Group 93" transform="translate(-3414)">
      <g id="Group_92" data-name="Group 92">
        <path id="Path_289" data-name="Path 289" d="M5689.84,3115.384l-6.173-3.039a2.612,2.612,0,0,0-2.307,4.686l6.173,3.039a2.611,2.611,0,1,0,2.307-4.686Z" fill="#2f2f2f"/>
      </g>
    </g>
    <g id="Group_95" data-name="Group 95" transform="translate(-3414)">
      <g id="Group_94" data-name="Group 94">
        <path id="Path_290" data-name="Path 290" d="M5696.093,3166.948a2.611,2.611,0,0,0-3.693,0l-4.865,4.866a2.611,2.611,0,1,0,3.693,3.693l4.865-4.866A2.611,2.611,0,0,0,5696.093,3166.948Z" fill="#2f2f2f"/>
      </g>
    </g>
    <g id="Group_97" data-name="Group 97" transform="translate(-3414)">
      <g id="Group_96" data-name="Group 96">
        <path id="Path_291" data-name="Path 291" d="M5684.6,3142.9h-6.88a2.611,2.611,0,1,0,0,5.223h6.88a2.611,2.611,0,1,0,0-5.223Z" fill="#2f2f2f"/>
      </g>
    </g>
    <g id="Group_99" data-name="Group 99" transform="translate(-3414)">
      <g id="Group_98" data-name="Group 98">
        <path id="Path_292" data-name="Path 292" d="M5709.565,3099.8a2.611,2.611,0,0,0,.178-3.688l-4.626-5.095a2.612,2.612,0,0,0-3.867,3.511l4.626,5.094A2.611,2.611,0,0,0,5709.565,3099.8Z" fill="#2f2f2f"/>
      </g>
    </g>
    <g id="Group_101" data-name="Group 101" transform="translate(-3414)">
      <g id="Group_100" data-name="Group 100">
        <path id="Path_293" data-name="Path 293" d="M5790.912,3118.364a2.614,2.614,0,0,0,3.5,1.189l6.173-3.039a2.612,2.612,0,0,0-2.307-4.686l-6.173,3.039A2.612,2.612,0,0,0,5790.912,3118.364Z" fill="#2f2f2f"/>
      </g>
    </g>
    <g id="Group_103" data-name="Group 103" transform="translate(-3414)">
      <g id="Group_102" data-name="Group 102">
        <path id="Path_294" data-name="Path 294" d="M5785.849,3170.124l4.865,4.865a2.612,2.612,0,1,0,3.693-3.693l-4.865-4.865a2.611,2.611,0,1,0-3.693,3.693Z" fill="#2f2f2f"/>
      </g>
    </g>
    <g id="Group_105" data-name="Group 105" transform="translate(-3414)">
      <g id="Group_104" data-name="Group 104">
        <path id="Path_295" data-name="Path 295" d="M5794.726,3145a2.611,2.611,0,0,0,2.611,2.612h6.881a2.612,2.612,0,1,0,0-5.223h-6.881A2.611,2.611,0,0,0,5794.726,3145Z" fill="#2f2f2f"/>
      </g>
    </g>
    <g id="Group_107" data-name="Group 107" transform="translate(-3414)">
      <g id="Group_106" data-name="Group 106">
        <path id="Path_296" data-name="Path 296" d="M5776.066,3099.109l4.626-5.094a2.611,2.611,0,1,0-3.867-3.511l-4.626,5.1a2.611,2.611,0,1,0,3.867,3.51Z" fill="#2f2f2f"/>
      </g>
    </g>
    <g id="Group_109" data-name="Group 109" transform="translate(-3414)">
      <g id="Group_108" data-name="Group 108">
        <path id="Path_297" data-name="Path 297" d="M5740.962,3091.654a2.611,2.611,0,0,0,2.611-2.611v-6.881a2.612,2.612,0,0,0-5.223,0v6.881A2.611,2.611,0,0,0,5740.962,3091.654Z" fill="#2f2f2f"/>
      </g>
    </g>
    <rect id="Rectangle_98" data-name="Rectangle 98" width="356.086" height="25.61" rx="6.036" transform="translate(2146.185 3031.796)" fill="none" stroke="#2f2f2f" stroke-miterlimit="10" stroke-width="6"/>
    <path id="Path_298" data-name="Path 298" d="M5663.078,3300.3h199.964" transform="translate(-3414)" fill="none" stroke="#2f2f2f" stroke-miterlimit="10" stroke-width="6"/>
    <path id="Path_299" data-name="Path 299" d="M5887.257,3057.406v205.28s2.428,37.61-12.572,37.61c-10,0-9.714-23.431-9.714-23.431H5663.078" transform="translate(-3414)" fill="none" stroke="#2f2f2f" stroke-miterlimit="10" stroke-width="6"/>
    <line id="Line_215" data-name="Line 215" y2="32.242" transform="translate(2180.257 3057.406)" fill="none" stroke="#2f2f2f" stroke-miterlimit="10" stroke-width="5"/>
    <g id="Group_110" data-name="Group 110" transform="translate(-3414)">
      <path id="Path_300" data-name="Path 300" d="M5623.124,3183.936v29.549c0,13.412-8.41,26.014-22.584,33.391a73.434,73.434,0,0,1-69.009-1.405c-9.583-5.542-15.981-13.729-18.3-22.774" fill="none" stroke="#2f2f2f" stroke-linecap="round" stroke-linejoin="round" stroke-width="6"/>
      <path id="Path_301" data-name="Path 301" d="M5530.4,3154.962s9.312,32.668,92.732,28.974q4.152-.183,8.55-.49v-44.327c0-31.417-28.073-41.552-50.641-41.552s-54.754-4.371-54.754,20.043v3.562" fill="none" stroke="#2f2f2f" stroke-linecap="round" stroke-linejoin="round" stroke-width="6"/>
      <path id="Path_302" data-name="Path 302" d="M5502.665,3165.315c-1.642-12.3-4.542-47.64,16.4-47.64l5.863-.065" fill="none" stroke="#2f2f2f" stroke-linecap="round" stroke-linejoin="round" stroke-width="6"/>
      <path id="Path_303" data-name="Path 303" d="M5534.834,3162.112s-3.848.6-13.983,10.739a26.753,26.753,0,0,0-2.889,3.42" fill="none" stroke="#2f2f2f" stroke-linecap="round" stroke-linejoin="round" stroke-width="6"/>
      <path id="Path_304" data-name="Path 304" d="M5513.185,3207.9a9.5,9.5,0,0,1-9.5,9.5h0a9.5,9.5,0,0,1-9.5-9.5v-26.784a9.5,9.5,0,0,1,9.5-9.5h0a9.5,9.5,0,0,1,9.5,9.5" fill="none" stroke="#2f2f2f" stroke-linecap="round" stroke-linejoin="round" stroke-width="5"/>
      <path id="Path_305" data-name="Path 305" d="M5541.185,3328.3h-51.393a9.107,9.107,0,0,1-9.107-9.107v-33.107a36.786,36.786,0,0,1,36.786-36.786h5.357" fill="none" stroke="#2f2f2f" stroke-linecap="round" stroke-linejoin="round" stroke-width="6"/>
      <path id="Path_306" data-name="Path 306" d="M5610.9,3249.3h3a36.786,36.786,0,0,1,36.786,36.786v35.25a6.964,6.964,0,0,1-6.964,6.964h-58.107" fill="none" stroke="#2f2f2f" stroke-linecap="round" stroke-linejoin="round" stroke-width="6"/>
      <path id="Path_307" data-name="Path 307" d="M5552.685,3263.3l7,19h12.143l7.16-19Z" fill="none" stroke="#2f2f2f" stroke-linecap="round" stroke-linejoin="round" stroke-width="5"/>
      <path id="Path_308" data-name="Path 308" d="M5559.935,3292.8h11.572l4.178,37.5,3.3,31.214-14.3,13.143-15.5-12.857Z" fill="none" stroke="#2f2f2f" stroke-linecap="round" stroke-linejoin="round" stroke-width="5"/>
    </g>
  </g>
</svg>
