<svg xmlns="http://www.w3.org/2000/svg" width="520.249" height="423.809" viewBox="0 0 520.249 423.809">
  <g id="Group_149" data-name="Group 149" transform="translate(-1998.498 -4761.934)">
    <path id="Path_381" data-name="Path 381" d="M5825.983,4913.44l13.152-27.528a7.006,7.006,0,0,0-3.255-9.359L5663.839,4793.3l-11.541-5.584c-9.092-4.4-11.675-2.629-21.693,2.018s-29.692,14.98-29.692,14.98l-76.235-36.893c-10.492-5.076-15-4.671-21.773,9.318l-11.508,23.779-14.687-7.107c-4.2-2.031-6.25.428-10.312,8.821l-6.938,14.338c-2.539,5.245.6,5.9,6.892,8.946,1.378.667,17.481,8.574,41.861,20.552a40.4,40.4,0,0,1,72.514,35.632l112.99,55.527a40.394,40.394,0,0,1,72.5,35.623c4.928,2.42,13.008,6.362,18.944,9.26a6.75,6.75,0,0,0,9.044-3.139Z" transform="translate(-3414)" fill="none" stroke="#2f2f2f" stroke-miterlimit="10" stroke-width="6"/>
    <path id="Path_382" data-name="Path 382" d="M5807.1,4974.162c5.239,2.572,8.382,4.113,8.957,4.391,6.294,3.046,8.754,5.1,11.292-.146l11.6-23.976,15.643-32.326c4.062-8.393,4.716-11.529.52-13.56l-14.688-7.108" transform="translate(-3414)" fill="none" stroke="#2f2f2f" stroke-linecap="round" stroke-miterlimit="10" stroke-width="6"/>
    <path id="Path_383" data-name="Path 383" d="M5648.066,4799.044l96.651,46.772a6.5,6.5,0,0,1,3.018,8.677l-10.926,22.577a6.5,6.5,0,0,1-8.676,3.017l-111.857-54.13a6.5,6.5,0,0,1-.44-11.46l26.131-15.219A6.5,6.5,0,0,1,5648.066,4799.044Z" transform="translate(-3414)" fill="none" stroke="#2f2f2f" stroke-miterlimit="10" stroke-width="6"/>
    <rect id="Rectangle_125" data-name="Rectangle 125" width="53.613" height="38.073" rx="8.518" transform="translate(2351.252 4855.754) rotate(25.824)" fill="none" stroke="#2f2f2f" stroke-miterlimit="10" stroke-width="6"/>
    <circle id="Ellipse_119" data-name="Ellipse 119" cx="29.526" cy="29.526" r="29.526" transform="translate(2286.525 4925.725)" fill="none" stroke="#2f2f2f" stroke-miterlimit="10" stroke-width="5"/>
    <circle id="Ellipse_120" data-name="Ellipse 120" cx="29.526" cy="29.526" r="29.526" transform="translate(2101.16 4834.295)" fill="none" stroke="#2f2f2f" stroke-miterlimit="10" stroke-width="5"/>
    <path id="Rectangle_126" data-name="Rectangle 126" d="M0,0H25a3.75,3.75,0,0,1,3.75,3.75V17.229A3.75,3.75,0,0,1,25,20.979H0a0,0,0,0,1,0,0V0A0,0,0,0,1,0,0Z" transform="translate(2090.597 4773.638) rotate(25.824)" fill="none" stroke="#2f2f2f" stroke-miterlimit="10" stroke-width="6"/>
    <circle id="Ellipse_121" data-name="Ellipse 121" cx="14.763" cy="14.763" r="14.763" transform="translate(2301.288 4940.487)" fill="none" stroke="#2f2f2f" stroke-miterlimit="10" stroke-width="5" opacity="0.8"/>
    <circle id="Ellipse_122" data-name="Ellipse 122" cx="14.763" cy="14.763" r="14.763" transform="translate(2115.923 4849.058)" fill="none" stroke="#2f2f2f" stroke-miterlimit="10" stroke-width="5" opacity="0.8"/>
    <line id="Line_311" data-name="Line 311" x1="12.862" y2="26.577" transform="translate(2309.62 4941.961)" fill="none" stroke="#2f2f2f" stroke-miterlimit="10" stroke-width="4" opacity="0.8"/>
    <line id="Line_312" data-name="Line 312" x2="26.577" y2="12.862" transform="translate(2302.412 4948.65)" fill="none" stroke="#2f2f2f" stroke-miterlimit="10" stroke-width="4" opacity="0.8"/>
    <line id="Line_313" data-name="Line 313" x1="12.862" y2="26.577" transform="translate(2124.255 4850.532)" fill="none" stroke="#2f2f2f" stroke-miterlimit="10" stroke-width="4" opacity="0.8"/>
    <line id="Line_314" data-name="Line 314" x2="26.577" y2="12.862" transform="translate(2117.047 4857.221)" fill="none" stroke="#2f2f2f" stroke-miterlimit="10" stroke-width="4" opacity="0.8"/>
    <line id="Line_315" data-name="Line 315" x2="62.559" y2="27.196" transform="translate(2453.556 4940.194)" fill="none" stroke="#2f2f2f" stroke-linecap="round" stroke-miterlimit="10" stroke-width="4"/>
    <line id="Line_316" data-name="Line 316" x2="62.559" y2="27.196" transform="translate(2431.389 4987.049)" fill="none" stroke="#2f2f2f" stroke-linecap="round" stroke-miterlimit="10" stroke-width="4"/>
    <line id="Line_317" data-name="Line 317" x2="31.742" y2="13.641" transform="translate(2444.918 4955.246)" fill="none" stroke="#2f2f2f" stroke-linecap="round" stroke-miterlimit="10" stroke-width="4"/>
    <path id="Path_384" data-name="Path 384" d="M5924.185,5076.165c-29.19-13.554-69.647-32.434-75.6-35.7-9.461-5.19-6.111-14.551-14.077-18.2-9.3-4.255-17.13,4.633-35.853-2.759s-178.135-85.85-187.6-91.04-6.11-14.552-14.077-18.2c-9.3-4.256-17.129,4.633-35.853-2.76s-145.945-71.645-145.945-71.645" transform="translate(-3414)" fill="none" stroke="#2f2f2f" stroke-linecap="round" stroke-miterlimit="10" stroke-width="4"/>
    <line id="Line_318" data-name="Line 318" x2="343" transform="translate(2086.685 5162.296)" fill="none" stroke="#2f2f2f" stroke-linecap="round" stroke-linejoin="round" stroke-width="10" opacity="0.3"/>
    <path id="Path_385" data-name="Path 385" d="M5545.185,5139.237v24.709l-.167.291-12.141,21.505-12.691-21.505v-25Z" transform="translate(-3414)" fill="#2f2f2f"/>
  </g>
</svg>
