<svg xmlns="http://www.w3.org/2000/svg" width="492.714" height="393.5" viewBox="0 0 492.714 393.5">
  <g id="Group_150" data-name="Group 150" transform="translate(-2020.471 -3860.796)">
    <path id="Path_367" data-name="Path 367" d="M5838.9,4167.026h76.9c4.631,0,8.384-3.168,8.384-7.076V3870.872c0-3.908-3.753-7.076-8.384-7.076H5445.855c-4.63,0-8.384,3.168-8.384,7.076V4159.95c0,3.908,3.754,7.076,8.384,7.076h356.08" transform="translate(-3414)" fill="none" stroke="#2f2f2f" stroke-miterlimit="10" stroke-width="6"/>
    <path id="Path_368" data-name="Path 368" d="M5643.9,3893.944H5473.882c-7.473,0-13.528,5.3-13.528,11.832V4005.1" transform="translate(-3414)" fill="none" stroke="#2f2f2f" stroke-linecap="round" stroke-miterlimit="10" stroke-width="6"/>
    <path id="Path_369" data-name="Path 369" d="M5811.924,4133.7h75.831c7.465,0,13.529-5.295,13.529-11.831V3905.776c0-6.529-6.064-11.832-13.529-11.832H5732.42" transform="translate(-3414)" fill="none" stroke="#2f2f2f" stroke-linecap="round" stroke-miterlimit="10" stroke-width="6"/>
    <line id="Line_303" data-name="Line 303" x2="49.449" transform="translate(2309.341 4133.696)" fill="none" stroke="#2f2f2f" stroke-miterlimit="10" stroke-width="6"/>
    <path id="Path_370" data-name="Path 370" d="M5460.354,3994.888v126.977c0,6.536,6.055,11.831,13.528,11.831h175.047" transform="translate(-3414)" fill="none" stroke="#2f2f2f" stroke-miterlimit="10" stroke-width="6"/>
    <line id="Line_304" data-name="Line 304" x2="74.546" transform="translate(2225.172 3879.664)" fill="none" stroke="#2f2f2f" stroke-miterlimit="10" stroke-width="6"/>
    <circle id="Ellipse_116" data-name="Ellipse 116" cx="3.295" cy="3.295" r="3.295" transform="translate(2311.082 3876.482)" fill="#2f2f2f"/>
    <path id="Path_371" data-name="Path 371" d="M5656.251,4225.154v-58.188h50.6v58.188" transform="translate(-3414)" fill="none" stroke="#2f2f2f" stroke-miterlimit="10" stroke-width="6"/>
    <rect id="Rectangle_124" data-name="Rectangle 124" width="230.582" height="26.143" rx="13.071" transform="translate(2148.103 4225.154)" fill="none" stroke="#2f2f2f" stroke-miterlimit="10" stroke-width="6"/>
    <path id="Path_372" data-name="Path 372" d="M5498.373,3944.738l-7.042-4.065a1.874,1.874,0,0,0-2.812,1.624v8.131a1.875,1.875,0,0,0,2.812,1.624l7.042-4.066A1.875,1.875,0,0,0,5498.373,3944.738Z" transform="translate(-3414)" fill="#2f2f2f"/>
    <path id="Path_373" data-name="Path 373" d="M5498.373,3976.738l-7.042-4.065a1.874,1.874,0,0,0-2.812,1.624v8.131a1.875,1.875,0,0,0,2.812,1.624l7.042-4.066A1.875,1.875,0,0,0,5498.373,3976.738Z" transform="translate(-3414)" fill="#2f2f2f"/>
    <path id="Path_374" data-name="Path 374" d="M5498.373,4008.738l-7.042-4.065a1.874,1.874,0,0,0-2.812,1.624v8.131a1.875,1.875,0,0,0,2.812,1.624l7.042-4.066A1.875,1.875,0,0,0,5498.373,4008.738Z" transform="translate(-3414)" fill="#2f2f2f"/>
    <path id="Path_375" data-name="Path 375" d="M5498.373,4040.738l-7.042-4.065a1.874,1.874,0,0,0-2.812,1.624v8.131a1.875,1.875,0,0,0,2.812,1.624l7.042-4.066A1.875,1.875,0,0,0,5498.373,4040.738Z" transform="translate(-3414)" fill="#2f2f2f"/>
    <path id="Path_376" data-name="Path 376" d="M5498.373,4072.738l-7.042-4.065a1.874,1.874,0,0,0-2.812,1.624v8.131a1.875,1.875,0,0,0,2.812,1.624l7.042-4.066A1.875,1.875,0,0,0,5498.373,4072.738Z" transform="translate(-3414)" fill="#2f2f2f"/>
    <circle id="Ellipse_117" data-name="Ellipse 117" cx="99.667" cy="99.667" r="99.667" transform="translate(2174.657 3913.269)" fill="none" stroke="#2f2f2f" stroke-miterlimit="10" stroke-width="6"/>
    <circle id="Ellipse_118" data-name="Ellipse 118" cx="126.5" cy="126.5" r="126.5" transform="translate(2147.185 3885.796)" fill="none" stroke="#2f2f2f" stroke-miterlimit="10" stroke-width="6"/>
    <path id="Path_377" data-name="Path 377" d="M5753.84,4099.835" transform="translate(-3414)" fill="none" stroke="#2f2f2f" stroke-miterlimit="10" stroke-width="6"/>
    <path id="Path_378" data-name="Path 378" d="M5777.79,4097.736l98.083,112.6a14,14,0,0,1-1.361,19.753h0a14,14,0,0,1-19.752-1.361L5757.874,4117.5" transform="translate(-3414)" fill="none" stroke="#2f2f2f" stroke-miterlimit="10" stroke-width="6"/>
    <line id="Line_305" data-name="Line 305" x2="62" transform="translate(2104.685 3946.296)" fill="none" stroke="#2f2f2f" stroke-linecap="round" stroke-miterlimit="10" stroke-width="6"/>
    <line id="Line_306" data-name="Line 306" x2="27" transform="translate(2104.685 3978.296)" fill="none" stroke="#2f2f2f" stroke-linecap="round" stroke-miterlimit="10" stroke-width="6"/>
    <line id="Line_307" data-name="Line 307" x2="43" transform="translate(2104.685 4010.296)" fill="none" stroke="#2f2f2f" stroke-linecap="round" stroke-miterlimit="10" stroke-width="6"/>
    <line id="Line_308" data-name="Line 308" x2="43" transform="translate(2104.685 4042.296)" fill="none" stroke="#2f2f2f" stroke-linecap="round" stroke-miterlimit="10" stroke-width="6"/>
    <line id="Line_309" data-name="Line 309" x2="58" transform="translate(2104.685 4074.296)" fill="none" stroke="#2f2f2f" stroke-linecap="round" stroke-miterlimit="10" stroke-width="6"/>
    <path id="Path_379" data-name="Path 379" d="M5663.85,3984.489l-29.843,29.842,28.938,28.938" transform="translate(-3414)" fill="none" stroke="#2f2f2f" stroke-linecap="round" stroke-miterlimit="10" stroke-width="6"/>
    <path id="Path_380" data-name="Path 380" d="M5711.842,3984.6l29.843,29.843-28.938,28.938" transform="translate(-3414)" fill="none" stroke="#2f2f2f" stroke-linecap="round" stroke-miterlimit="10" stroke-width="6"/>
    <line id="Line_310" data-name="Line 310" x1="31.845" y2="69" transform="translate(2256.645 3979.314)" fill="none" stroke="#2f2f2f" stroke-linecap="round" stroke-miterlimit="10" stroke-width="6"/>
  </g>
</svg>
