<svg xmlns="http://www.w3.org/2000/svg" width="317" height="426.617" viewBox="0 0 317 426.617">
  <g id="Group_157" data-name="Group 157" transform="translate(-1361.185 -2138.18)">
    <path id="Path_255" data-name="Path 255" d="M4868.305,2225.356c1.876-43.425,38.512-80.113,86.415-84.239,45.982-3.96,85.865,21.417,97.272,61.177,0,0-66.307-9-178.664,23.062l-5.023,1.083Z" transform="translate(-3414)" fill="none" stroke="#2f2f2f" stroke-linecap="round" stroke-linejoin="round" stroke-width="5"/>
    <path id="Path_256" data-name="Path 256" d="M4893.921,2416.269l10.764,48.027,13,1,21,24c43-8,128-22,128-22l11-23,12-8-29-191-4-24c-60.416-7.061-131.532,9.931-159.362,17.578" transform="translate(-3414)" fill="none" stroke="#2f2f2f" stroke-linecap="round" stroke-linejoin="round" stroke-width="5"/>
    <path id="Path_257" data-name="Path 257" d="M4891.685,2371.725l18-18.429s5-21,9.5-56.983-27.5-47.017-27.5-47.017h-23.38c-16.379,0-24.62,25.357-24.62,25.357l-9,71.643,15,18,11-60s-4.287-8.764-2.324-18.095c1.471-6.992,7.329-15.618,16.324-13.905,9.9,1.886,12.556,13.527,10.444,21.141a39.5,39.5,0,0,1-7.444,14.359l-11.214,59.313Z" transform="translate(-3414)" fill="none" stroke="#2f2f2f" stroke-linecap="round" stroke-linejoin="round" stroke-width="5"/>
    <path id="Path_258" data-name="Path 258" d="M5079.685,2314.3l7-44s4-20-19-32" transform="translate(-3414)" fill="none" stroke="#2f2f2f" stroke-linecap="round" stroke-linejoin="round" stroke-width="5"/>
    <path id="Path_259" data-name="Path 259" d="M4962.336,2151.913l-31.817,5.861a4,4,0,0,0-3.232,3.376l-4.819,34.533a3.994,3.994,0,0,0,4.767,4.462l47.467-9.847a3.994,3.994,0,0,0,2.953-5.245l-10.832-30.547A3.994,3.994,0,0,0,4962.336,2151.913Zm-15.6,31.19c-7.132,1.356-13.833-2.383-14.968-8.351s3.727-11.906,10.858-13.262,13.834,2.382,14.969,8.351S4953.872,2181.746,4946.74,2183.1Z" transform="translate(-3414)" fill="#2f2f2f"/>
    <path id="Path_260" data-name="Path 260" d="M4976.185,2253.868s42-8.072,68-6.072" transform="translate(-3414)" fill="none" stroke="#2f2f2f" stroke-linecap="round" stroke-linejoin="round" stroke-width="5"/>
    <path id="Path_261" data-name="Path 261" d="M4980.685,2278.3a566.054,566.054,0,0,1,68.307-6" transform="translate(-3414)" fill="none" stroke="#2f2f2f" stroke-linecap="round" stroke-linejoin="round" stroke-width="5"/>
    <path id="Path_262" data-name="Path 262" d="M4934.685,2463.3a991.922,991.922,0,0,1,127-22" transform="translate(-3414)" fill="none" stroke="#2f2f2f" stroke-linecap="round" stroke-linejoin="round" stroke-width="5"/>
    <line id="Line_200" data-name="Line 200" x2="9.904" y2="49.491" transform="translate(1555.281 2402.806)" fill="none" stroke="#2f2f2f" stroke-linecap="round" stroke-linejoin="round" stroke-width="5"/>
    <line id="Line_201" data-name="Line 201" x2="23.476" y2="117.304" transform="translate(1520.685 2229.939)" fill="none" stroke="#2f2f2f" stroke-linecap="round" stroke-linejoin="round" stroke-width="5"/>
    <circle id="Ellipse_79" data-name="Ellipse 79" cx="4" cy="4" r="4" transform="translate(1545.685 2370.296)" fill="#2f2f2f"/>
    <path id="Path_263" data-name="Path 263" d="M5051.992,2381.368l-27.807,3.429-14-81.929,27-2.071Z" transform="translate(-3414)" fill="none" stroke="#2f2f2f" stroke-linecap="round" stroke-linejoin="round" stroke-width="5"/>
    <path id="Path_264" data-name="Path 264" d="M4906.685,2381.8l7,31.5,21-4.929-12.256-58.071" transform="translate(-3414)" fill="none" stroke="#2f2f2f" stroke-linecap="round" stroke-linejoin="round" stroke-width="5"/>
    <path id="Path_265" data-name="Path 265" d="M5028.685,2414.3s18-3,27-3" transform="translate(-3414)" fill="none" stroke="#2f2f2f" stroke-linecap="round" stroke-linejoin="round" stroke-width="5"/>
    <path id="Path_266" data-name="Path 266" d="M5033.685,2483.3s-6,21-29,23-31.452-11.5-31.452-11.5" transform="translate(-3414)" fill="none" stroke="#2f2f2f" stroke-linecap="round" stroke-linejoin="round" stroke-width="5"/>
    <path id="Path_267" data-name="Path 267" d="M5031.088,2507.8l27.6,26.5-3,9.5-42,8.5-54-5.5-4-7.5,21-30" transform="translate(-3414)" fill="none" stroke="#2f2f2f" stroke-linecap="round" stroke-linejoin="round" stroke-width="5"/>
    <line id="Line_202" data-name="Line 202" x1="13.071" y2="57.571" transform="translate(1416.685 2371.725)" fill="none" stroke="#2f2f2f" stroke-linecap="round" stroke-linejoin="round" stroke-width="5"/>
    <line id="Line_203" data-name="Line 203" x1="11.533" y2="56.786" transform="translate(1466.152 2382.296)" fill="none" stroke="#2f2f2f" stroke-linecap="round" stroke-linejoin="round" stroke-width="5"/>
    <path id="Path_268" data-name="Path 268" d="M4824.042,2441.3s27.884,20.429,61.263,8.215c0,0,5.38,41.785-37.191,35.785C4807.079,2479.513,4824.042,2441.3,4824.042,2441.3Z" transform="translate(-3414)" fill="none" stroke="#2f2f2f" stroke-linecap="round" stroke-linejoin="round" stroke-width="5"/>
    <path id="Path_269" data-name="Path 269" d="M4815.685,2485.886l-12.857,5.411-25.143,42,6,14,63,15,60-10,3-13-21.379-38.4" transform="translate(-3414)" fill="none" stroke="#2f2f2f" stroke-linecap="round" stroke-linejoin="round" stroke-width="5"/>
    <line id="Line_204" data-name="Line 204" x1="2.5" y1="40.798" transform="translate(1433.185 2506.499)" fill="none" stroke="#2f2f2f" stroke-linecap="round" stroke-linejoin="round" stroke-width="5"/>
    <line id="Line_205" data-name="Line 205" x1="3" y1="19.286" transform="translate(1593.185 2518.296)" fill="none" stroke="#2f2f2f" stroke-linecap="round" stroke-linejoin="round" stroke-width="5"/>
    <path id="Path_270" data-name="Path 270" d="M5065.685,2481.3l18.929,26.5-2.929,12.5-21,1.928" transform="translate(-3414)" fill="none" stroke="#2f2f2f" stroke-linecap="round" stroke-linejoin="round" stroke-width="5"/>
  </g>
</svg>
